M48
; DRILL file {KiCad 9.0.3} date 2025-07-24T18:44:54+0200
; FORMAT={-:-/ absolute / metric / decimal}
; #@! TF.CreationDate,2025-07-24T18:44:54+02:00
; #@! TF.GenerationSoftware,Kicad,Pcbnew,9.0.3
; #@! TF.FileFunction,Plated,1,2,PTH
FMAT,2
METRIC
; #@! TA.AperFunction,Plated,PTH,ViaDrill
T1C0.300
; #@! TA.AperFunction,Plated,PTH,ViaDrill
T2C0.400
; #@! TA.AperFunction,Plated,PTH,ComponentDrill
T3C0.500
; #@! TA.AperFunction,Plated,PTH,ComponentDrill
T4C0.600
; #@! TA.AperFunction,Plated,PTH,ComponentDrill
T5C1.750
; #@! TA.AperFunction,Plated,PTH,ComponentDrill
T6C3.200
; #@! TA.AperFunction,Plated,PTH,ComponentDrill
T7C4.300
; #@! TA.AperFunction,Plated,PTH,ComponentDrill
T8C6.400
%
G90
G05
T1
X77.775Y-126.924
X77.8Y-90.12
X79.75Y-137.655
X79.756Y-122.682
X81.09Y-112.11
X81.331Y-104.699
X81.636Y-98.273
X82.855Y-108.255
X82.982Y-117.145
X83.388Y-81.128
X84.506Y-113.462
X85.078Y-117.335
X85.268Y-108.509
X85.585Y-145.022
X86.284Y-117.145
X88.951Y-135.56
X90.221Y-105.715
X90.678Y-106.833
X91.745Y-95.682
X91.8Y-112.24
X93.015Y-92.253
X94.539Y-113.589
X95.111Y-139.814
X95.301Y-130.277
X95.555Y-121.59
X95.618Y-135.814
X95.62Y-147.44
X95.784Y-129.667
X96.1Y-99.48
X96.16Y-100.77
X97.333Y-119.685
X97.511Y-127.915
X97.968Y-118.542
X97.968Y-124.003
X98.171Y-129.108
X98.2Y-131.71
X98.73Y-122.987
X98.83Y-139.8
X98.984Y-134.671
X99.174Y-136.068
X99.238Y-117.145
X99.314Y-129.896
X99.746Y-132.512
X100.0Y-117.526
X100.102Y-130.988
X100.127Y-92.253
X100.127Y-123.495
X100.127Y-133.972
X100.254Y-122.098
X100.381Y-108.128
X101.016Y-135.052
X101.143Y-118.415
X101.16Y-130.988
X101.21Y-139.86
X101.23Y-129.53
X101.27Y-122.352
X101.778Y-125.781
X101.905Y-124.638
X102.1Y-147.08
X102.159Y-117.399
X102.2Y-142.99
X102.349Y-127.495
X102.54Y-124.003
X103.048Y-108.128
X103.85Y-102.02
X104.05Y-123.12
X104.064Y-87.554
X104.09Y-90.1
X104.31Y-124.31
X104.318Y-85.014
X104.39Y-98.3
X104.445Y-128.829
X104.57Y-99.48
X104.572Y-119.202
X104.75Y-100.719
X104.992Y-139.616
X105.07Y-124.5
X105.77Y-129.47
X106.513Y-108.644
X106.56Y-128.67
X106.858Y-92.253
X107.01Y-121.06
X107.36Y-121.91
X107.51Y-112.62
X107.57Y-108.54
X107.77Y-121.33
X107.899Y-116.84
X107.91Y-97.45
X107.97Y-113.41
X108.2Y-124.22
X108.85Y-123.3
X109.29Y-128.71
X109.41Y-131.35
X110.33Y-104.9
X112.116Y-119.507
X112.42Y-113.51
X112.522Y-124.816
X113.079Y-113.268
X113.12Y-128.91
X113.47Y-120.97
X113.589Y-118.542
X113.83Y-138.5
X114.07Y-116.73
X114.16Y-120.581
X114.46Y-132.6
X115.381Y-114.271
X115.46Y-146.79
X116.62Y-136.46
X117.526Y-121.661
X117.61Y-128.06
X117.751Y-129.501
X117.907Y-122.359
X118.009Y-105.791
X118.237Y-98.298
X118.29Y-111.34
X118.5Y-140.11
X118.92Y-128.06
X118.923Y-79.172
X119.16Y-121.02
X119.24Y-122.804
X119.62Y-140.57
X121.031Y-116.002
X121.996Y-124.486
X122.403Y-113.259
X122.41Y-149.37
X122.5Y-136.47
X123.02Y-83.66
X123.851Y-107.569
T2
X79.64Y-134.11
X80.0Y-94.24
X83.02Y-92.15
X84.76Y-148.323
X85.014Y-135.052
X86.84Y-112.1
X87.808Y-90.475
X87.808Y-151.371
X88.252Y-85.268
X88.252Y-87.808
X88.316Y-112.7
X88.57Y-115.875
X93.0Y-112.08
X93.015Y-132.512
X93.65Y-139.243
X94.285Y-92.253
X95.27Y-131.68
X95.809Y-123.698
X96.38Y-139.941
X96.698Y-108.89
X96.952Y-131.623
X97.01Y-96.71
X98.82Y-130.73
X99.238Y-113.335
X99.44Y-80.32
X99.746Y-126.035
X100.0Y-116.129
X100.127Y-110.541
X100.127Y-112.065
X101.206Y-138.798
X102.52Y-105.25
X102.921Y-117.653
X103.5Y-133.24
X104.78Y-123.49
X105.42Y-150.88
X105.95Y-99.69
X105.969Y-92.126
X107.112Y-117.399
X107.83Y-137.33
X108.001Y-117.907
X108.86Y-112.33
X109.38Y-121.78
X109.83Y-96.04
X110.58Y-126.92
X112.065Y-90.475
X112.573Y-115.113
X113.208Y-85.966
X113.208Y-87.681
X113.44Y-122.91
X113.73Y-140.24
X114.35Y-149.62
X115.52Y-126.7
X116.764Y-92.253
X118.186Y-118.898
X118.25Y-138.86
X118.517Y-96.952
X118.999Y-95.428
X119.05Y-113.564
X119.126Y-106.909
X119.964Y-109.754
X119.99Y-106.985
X120.32Y-93.61
X121.031Y-105.817
T5
X94.1Y-119.15
T6
X79.75Y-148.25
T7
X87.5Y-55.75
X112.5Y-55.75
T8
X87.5Y-75.75
X87.5Y-100.75
X112.5Y-75.75
X112.5Y-100.75
T3
G00X117.24Y-117.62
M15
G01X116.64Y-117.62
M16
G05
G00X117.24Y-125.88
M15
G01X116.64Y-125.88
M16
G05
G00X123.19Y-117.26
M15
G01X122.59Y-117.26
M16
G05
G00X123.19Y-126.24
M15
G01X122.59Y-126.24
M16
G05
T4
G00X87.8Y-68.9
M15
G01X87.2Y-68.9
M16
G05
G00X87.8Y-82.6
M15
G01X87.2Y-82.6
M16
G05
G00X87.8Y-93.9
M15
G01X87.2Y-93.9
M16
G05
G00X87.8Y-107.6
M15
G01X87.2Y-107.6
M16
G05
G00X112.2Y-68.9
M15
G01X112.8Y-68.9
M16
G05
G00X112.2Y-82.6
M15
G01X112.8Y-82.6
M16
G05
G00X112.2Y-93.9
M15
G01X112.8Y-93.9
M16
G05
G00X112.2Y-107.6
M15
G01X112.8Y-107.6
M16
G05
M30
