G04 #@! TF.GenerationSoftware,KiCad,Pcbnew,9.0.3*
G04 #@! TF.CreationDate,2025-07-24T18:44:43+02:00*
G04 #@! TF.ProjectId,OpenThereminV45,4f70656e-5468-4657-9265-6d696e563435,rev?*
G04 #@! TF.SameCoordinates,Original*
G04 #@! TF.FileFunction,Legend,Top*
G04 #@! TF.FilePolarity,Positive*
%FSLAX46Y46*%
G04 Gerber Fmt 4.6, Leading zero omitted, Abs format (unit mm)*
G04 Created by KiCad (PCBNEW 9.0.3) date 2025-07-24 18:44:43*
%MOMM*%
%LPD*%
G01*
G04 APERTURE LIST*
%ADD10C,0.125000*%
%ADD11C,0.090000*%
%ADD12C,0.010000*%
G04 APERTURE END LIST*
D10*
X101497488Y-86749212D02*
X108499873Y-79750355D01*
X91500128Y-71749644D02*
X98502514Y-64750788D01*
X83502945Y-71753173D02*
X80649076Y-68899302D01*
X116500584Y-71749644D02*
X123499441Y-64750788D01*
X123499441Y-111749672D02*
X101501017Y-111749672D01*
X87496245Y-133247167D02*
X87521013Y-133247127D01*
X87545771Y-133247007D01*
X87570520Y-133246807D01*
X87595260Y-133246528D01*
X87619990Y-133246168D01*
X87644710Y-133245729D01*
X87669420Y-133245209D01*
X87694120Y-133244611D01*
X87718810Y-133243932D01*
X87743490Y-133243173D01*
X87768159Y-133242335D01*
X87792817Y-133241418D01*
X87817465Y-133240420D01*
X87842102Y-133239344D01*
X87866728Y-133238187D01*
X87891343Y-133236951D01*
X87915947Y-133235636D01*
X87940540Y-133234241D01*
X87965121Y-133232766D01*
X87989690Y-133231213D01*
X88014247Y-133229580D01*
X88038793Y-133227867D01*
X88063327Y-133226075D01*
X88087848Y-133224204D01*
X88112357Y-133222254D01*
X88136854Y-133220224D01*
X88161338Y-133218116D01*
X88185809Y-133215928D01*
X88210268Y-133213661D01*
X88234713Y-133211315D01*
X88259145Y-133208890D01*
X88283564Y-133206385D01*
X88307970Y-133203802D01*
X88332361Y-133201140D01*
X88356740Y-133198399D01*
X88381104Y-133195579D01*
X88405454Y-133192680D01*
X88429790Y-133189702D01*
X88454111Y-133186646D01*
X88478418Y-133183511D01*
X88502711Y-133180297D01*
X88526988Y-133177004D01*
X88551251Y-133173633D01*
X88575499Y-133170183D01*
X88599731Y-133166654D01*
X88623948Y-133163047D01*
X88648149Y-133159361D01*
X88672334Y-133155597D01*
X88696504Y-133151755D01*
X88720658Y-133147834D01*
X88744795Y-133143834D01*
X88768916Y-133139756D01*
X88793020Y-133135600D01*
X88817108Y-133131366D01*
X88841179Y-133127054D01*
X88865232Y-133122663D01*
X88889269Y-133118194D01*
X88913288Y-133113647D01*
X88937290Y-133109022D01*
X88961273Y-133104319D01*
X88985240Y-133099538D01*
X89009187Y-133094679D01*
X89033117Y-133089742D01*
X89057029Y-133084728D01*
X89080921Y-133079635D01*
X89104796Y-133074465D01*
X89128651Y-133069217D01*
X89152487Y-133063891D01*
X89176304Y-133058488D01*
X89200101Y-133053007D01*
X89223879Y-133047449D01*
X89247637Y-133041813D01*
X89271375Y-133036099D01*
X89295093Y-133030308D01*
X89318790Y-133024440D01*
X89342468Y-133018495D01*
X89366124Y-133012472D01*
X89389759Y-133006372D01*
X89413374Y-133000195D01*
X89436967Y-132993941D01*
X89460539Y-132987610D01*
X89484089Y-132981202D01*
X89507617Y-132974717D01*
X89531124Y-132968154D01*
X89554608Y-132961516D01*
X89578070Y-132954800D01*
X89601509Y-132948008D01*
X89624926Y-132941139D01*
X89648319Y-132934193D01*
X89671690Y-132927171D01*
X89695037Y-132920072D01*
X89718361Y-132912897D01*
X89741660Y-132905645D01*
X89764936Y-132898317D01*
X89788188Y-132890913D01*
X89811416Y-132883433D01*
X89834619Y-132875877D01*
X89857798Y-132868244D01*
X89880951Y-132860536D01*
X89904080Y-132852751D01*
X89927183Y-132844891D01*
X89950260Y-132836955D01*
X89973312Y-132828943D01*
X89996339Y-132820856D01*
X90019339Y-132812693D01*
X90042312Y-132804454D01*
X90065259Y-132796140D01*
X90088180Y-132787751D01*
X90111073Y-132779286D01*
X90133940Y-132770746D01*
X90156779Y-132762131D01*
X90179590Y-132753441D01*
X90202374Y-132744676D01*
X90225130Y-132735835D01*
X90247858Y-132726920D01*
X90270557Y-132717931D01*
X90293227Y-132708866D01*
X90315869Y-132699727D01*
X90338482Y-132690514D01*
X90361066Y-132681226D01*
X90383620Y-132671863D01*
X90406145Y-132662426D01*
X90428639Y-132652916D01*
X90451104Y-132643331D01*
X90473538Y-132633672D01*
X90495942Y-132623939D01*
X90518315Y-132614132D01*
X90540657Y-132604251D01*
X90562968Y-132594297D01*
X90585247Y-132584269D01*
X90607495Y-132574168D01*
X90629711Y-132563993D01*
X90651895Y-132553745D01*
X90674047Y-132543424D01*
X90696166Y-132533030D01*
X90718252Y-132522563D01*
X90740306Y-132512023D01*
X90762326Y-132501410D01*
X90784313Y-132490724D01*
X90806267Y-132479966D01*
X90828187Y-132469135D01*
X90850072Y-132458232D01*
X90871923Y-132447257D01*
X90893740Y-132436209D01*
X90915522Y-132425090D01*
X90937269Y-132413898D01*
X90958981Y-132402635D01*
X90980658Y-132391300D01*
X91002299Y-132379893D01*
X91023904Y-132368415D01*
X91045473Y-132356865D01*
X91067005Y-132345244D01*
X91088501Y-132333552D01*
X91109961Y-132321789D01*
X91131383Y-132309955D01*
X91152768Y-132298050D01*
X91174115Y-132286075D01*
X91195425Y-132274028D01*
X91216697Y-132261912D01*
X91237931Y-132249725D01*
X91259127Y-132237468D01*
X91280284Y-132225141D01*
X91301402Y-132212744D01*
X91322481Y-132200277D01*
X91343520Y-132187740D01*
X91364520Y-132175134D01*
X91385481Y-132162459D01*
X91406401Y-132149714D01*
X91427281Y-132136900D01*
X91448121Y-132124017D01*
X91468920Y-132111065D01*
X91489678Y-132098044D01*
X91510395Y-132084955D01*
X91531070Y-132071797D01*
X91551704Y-132058571D01*
X91572296Y-132045277D01*
X91592846Y-132031915D01*
X91613354Y-132018485D01*
X91633819Y-132004987D01*
X91654241Y-131991422D01*
X91674621Y-131977789D01*
X91694957Y-131964088D01*
X91715249Y-131950321D01*
X91735498Y-131936487D01*
X91755703Y-131922585D01*
X91775864Y-131908617D01*
X91795980Y-131894583D01*
X91816052Y-131880482D01*
X91836079Y-131866315D01*
X91856061Y-131852082D01*
X91875997Y-131837783D01*
X91895888Y-131823418D01*
X91915733Y-131808987D01*
X91935532Y-131794491D01*
X91955285Y-131779930D01*
X91974991Y-131765304D01*
X91994651Y-131750613D01*
X92014263Y-131735857D01*
X92033829Y-131721036D01*
X92053347Y-131706151D01*
X92072817Y-131691202D01*
X92092240Y-131676188D01*
X92111614Y-131661111D01*
X92130941Y-131645970D01*
X92150218Y-131630765D01*
X92169447Y-131615497D01*
X92188627Y-131600166D01*
X92207757Y-131584771D01*
X92226839Y-131569314D01*
X92245870Y-131553794D01*
X92264852Y-131538211D01*
X92283783Y-131522567D01*
X92302664Y-131506860D01*
X92321495Y-131491091D01*
X92340274Y-131475260D01*
X92359003Y-131459368D01*
X92377680Y-131443414D01*
X92396306Y-131427399D01*
X92414881Y-131411323D01*
X92433403Y-131395186D01*
X92451873Y-131378988D01*
X92470291Y-131362730D01*
X92488656Y-131346412D01*
X92506968Y-131330033D01*
X92525228Y-131313595D01*
X92543434Y-131297097D01*
X92561587Y-131280539D01*
X92579686Y-131263922D01*
X92597731Y-131247246D01*
X92615722Y-131230511D01*
X92633658Y-131213718D01*
X92651541Y-131196866D01*
X92669368Y-131179955D01*
X92687140Y-131162987D01*
X92704858Y-131145960D01*
X92722519Y-131128876D01*
X92740126Y-131111734D01*
X92757676Y-131094535D01*
X92775170Y-131077279D01*
X92792609Y-131059966D01*
X92809990Y-131042596D01*
X92818660Y-131033890D01*
X92827315Y-131025170D01*
X92835956Y-131016435D01*
X92844583Y-131007687D01*
X92853196Y-130998925D01*
X92861795Y-130990148D01*
X92870379Y-130981358D01*
X92878948Y-130972554D01*
X92887504Y-130963736D01*
X92896045Y-130954904D01*
X92904571Y-130946058D01*
X92913083Y-130937198D01*
X92921581Y-130928325D01*
X92930064Y-130919438D01*
X92938533Y-130910537D01*
X92946987Y-130901622D01*
X92955426Y-130892693D01*
X92963851Y-130883751D01*
X92972262Y-130874796D01*
X92980657Y-130865826D01*
X92989038Y-130856843D01*
X92997405Y-130847847D01*
X93005756Y-130838837D01*
X93014093Y-130829813D01*
X93022415Y-130820776D01*
X93030722Y-130811725D01*
X93039015Y-130802661D01*
X93047292Y-130793584D01*
X93055555Y-130784493D01*
X93063803Y-130775389D01*
X93072036Y-130766272D01*
X93080254Y-130757141D01*
X93088456Y-130747997D01*
X93096645Y-130738840D01*
X93104817Y-130729670D01*
X93112975Y-130720486D01*
X93121118Y-130711289D01*
X93129246Y-130702079D01*
X93137359Y-130692856D01*
X93145456Y-130683620D01*
X93153538Y-130674371D01*
X93161606Y-130665109D01*
X93169658Y-130655834D01*
X93177694Y-130646546D01*
X93185716Y-130637245D01*
X93193722Y-130627931D01*
X93201713Y-130618604D01*
X93209689Y-130609264D01*
X93217649Y-130599912D01*
X93225594Y-130590546D01*
X93233523Y-130581168D01*
X93241437Y-130571777D01*
X93249336Y-130562374D01*
X93257219Y-130552958D01*
X93265086Y-130543529D01*
X93272939Y-130534087D01*
X93280775Y-130524633D01*
X93288596Y-130515166D01*
X93296402Y-130505687D01*
X93304192Y-130496195D01*
X93311966Y-130486691D01*
X93319724Y-130477174D01*
X93327467Y-130467646D01*
X93335194Y-130458104D01*
X93342906Y-130448550D01*
X93350602Y-130438984D01*
X93358282Y-130429405D01*
X93365946Y-130419814D01*
X93373594Y-130410211D01*
X93381227Y-130400596D01*
X93388843Y-130390968D01*
X93396445Y-130381328D01*
X93404029Y-130371677D01*
X93411599Y-130362012D01*
X93419151Y-130352337D01*
X93426689Y-130342648D01*
X93434210Y-130332948D01*
X93441715Y-130323236D01*
X93449204Y-130313512D01*
X93456678Y-130303775D01*
X93464134Y-130294028D01*
X93471576Y-130284267D01*
X93479000Y-130274496D01*
X93486409Y-130264712D01*
X93493802Y-130254917D01*
X93501178Y-130245109D01*
X93508538Y-130235290D01*
X93515882Y-130225459D01*
X93523210Y-130215617D01*
X93530522Y-130205763D01*
X93537817Y-130195898D01*
X93545096Y-130186020D01*
X93552358Y-130176131D01*
X93559605Y-130166231D01*
X93566834Y-130156319D01*
X93574048Y-130146395D01*
X93581245Y-130136461D01*
X93588426Y-130126514D01*
X93595590Y-130116557D01*
X93602738Y-130106587D01*
X93609869Y-130096607D01*
X93616985Y-130086615D01*
X93624083Y-130076612D01*
X93631165Y-130066598D01*
X93638230Y-130056573D01*
X93645279Y-130046535D01*
X93652310Y-130036488D01*
X93659326Y-130026428D01*
X93666325Y-130016359D01*
X93673307Y-130006277D01*
X93680272Y-129996185D01*
X93687221Y-129986081D01*
X93694153Y-129975967D01*
X93701069Y-129965842D01*
X93707967Y-129955706D01*
X93714849Y-129945558D01*
X93721714Y-129935401D01*
X93728562Y-129925231D01*
X93735393Y-129915052D01*
X93742208Y-129904861D01*
X93749006Y-129894660D01*
X93755787Y-129884448D01*
X93762550Y-129874226D01*
X93769298Y-129863992D01*
X93776027Y-129853748D01*
X93782741Y-129843493D01*
X93789437Y-129833229D01*
X93796116Y-129822952D01*
X93802778Y-129812666D01*
X93809423Y-129802369D01*
X93816051Y-129792062D01*
X93822662Y-129781744D01*
X93829256Y-129771416D01*
X93835833Y-129761077D01*
X93842392Y-129750729D01*
X93848935Y-129740369D01*
X93855460Y-129730000D01*
X93861968Y-129719620D01*
X93868459Y-129709230D01*
X93874933Y-129698829D01*
X93881389Y-129688419D01*
X93887829Y-129677998D01*
X93894251Y-129667568D01*
X93900656Y-129657127D01*
X93907043Y-129646676D01*
X93913414Y-129636215D01*
X93919766Y-129625745D01*
X93926102Y-129615263D01*
X93932420Y-129604773D01*
X93938721Y-129594271D01*
X93945004Y-129583761D01*
X93951270Y-129573240D01*
X93957519Y-129562710D01*
X93963750Y-129552169D01*
X93969963Y-129541620D01*
X93976160Y-129531060D01*
X93982338Y-129520491D01*
X93988500Y-129509911D01*
X93994643Y-129499323D01*
X94000770Y-129488724D01*
X94006878Y-129478116D01*
X94012969Y-129467498D01*
X94019042Y-129456872D01*
X94025098Y-129446234D01*
X94031136Y-129435589D01*
X94037157Y-129424933D01*
X94043160Y-129414268D01*
X94049145Y-129403593D01*
X94055112Y-129392910D01*
X94061063Y-129382216D01*
X94066995Y-129371514D01*
X94072909Y-129360802D01*
X94078806Y-129350081D01*
X94084685Y-129339350D01*
X94090546Y-129328611D01*
X94096390Y-129317862D01*
X94102215Y-129307105D01*
X94108023Y-129296337D01*
X94113813Y-129285562D01*
X94119585Y-129274776D01*
X94125339Y-129263983D01*
X94131076Y-129253179D01*
X94136794Y-129242368D01*
X94142495Y-129231546D01*
X94148177Y-129220717D01*
X94153842Y-129209877D01*
X94159489Y-129199030D01*
X94165118Y-129188173D01*
X94170729Y-129177308D01*
X94176322Y-129166434D01*
X94181896Y-129155551D01*
X94187454Y-129144659D01*
X94192992Y-129133760D01*
X94198513Y-129122850D01*
X94204016Y-129111933D01*
X94209501Y-129101006D01*
X94214967Y-129090072D01*
X94220416Y-129079128D01*
X94225846Y-129068177D01*
X94231259Y-129057216D01*
X94236653Y-129046248D01*
X94242029Y-129035270D01*
X94247387Y-129024285D01*
X94252727Y-129013291D01*
X94258048Y-129002289D01*
X94263352Y-128991278D01*
X94268636Y-128980259D01*
X94273904Y-128969231D01*
X94279152Y-128958197D01*
X94284383Y-128947152D01*
X94289595Y-128936101D01*
X94294789Y-128925040D01*
X94299964Y-128913973D01*
X94305122Y-128902896D01*
X94310260Y-128891813D01*
X94315381Y-128880719D01*
X94320483Y-128869620D01*
X94325568Y-128858511D01*
X94330633Y-128847395D01*
X94335681Y-128836270D01*
X94340709Y-128825139D01*
X94345720Y-128813998D01*
X94350712Y-128802851D01*
X94355686Y-128791694D01*
X94360641Y-128780531D01*
X94365578Y-128769359D01*
X94370496Y-128758181D01*
X94375396Y-128746993D01*
X94380277Y-128735800D01*
X94385141Y-128724597D01*
X94389985Y-128713388D01*
X94394811Y-128702170D01*
X94399618Y-128690946D01*
X94404407Y-128679712D01*
X94409177Y-128668473D01*
X94413930Y-128657225D01*
X94418662Y-128645971D01*
X94423378Y-128634707D01*
X94428073Y-128623438D01*
X94432751Y-128612160D01*
X94437410Y-128600877D01*
X94442050Y-128589584D01*
X94446672Y-128578285D01*
X94451275Y-128566978D01*
X94455859Y-128555665D01*
X94460425Y-128544343D01*
X94464972Y-128533016D01*
X94469500Y-128521679D01*
X94474010Y-128510338D01*
X94478501Y-128498987D01*
X94482973Y-128487631D01*
X94487427Y-128476266D01*
X94491861Y-128464897D01*
X94496278Y-128453518D01*
X94500675Y-128442134D01*
X94505054Y-128430741D01*
X94509413Y-128419343D01*
X94513755Y-128407936D01*
X94518077Y-128396525D01*
X94522380Y-128385104D01*
X94526665Y-128373679D01*
X94530931Y-128362245D01*
X94535178Y-128350806D01*
X94539406Y-128339358D01*
X94543615Y-128327906D01*
X94547806Y-128316445D01*
X94551977Y-128304979D01*
X94556130Y-128293505D01*
X94560264Y-128282026D01*
X94564379Y-128270538D01*
X94568475Y-128259046D01*
X94572553Y-128247545D01*
X94576611Y-128236040D01*
X94580650Y-128224526D01*
X94584670Y-128213007D01*
X94588672Y-128201481D01*
X94592654Y-128189950D01*
X94596618Y-128178410D01*
X94600563Y-128166866D01*
X94604489Y-128155314D01*
X94608395Y-128143757D01*
X94612283Y-128132192D01*
X94616151Y-128120623D01*
X94620001Y-128109046D01*
X94623832Y-128097464D01*
X94627644Y-128085874D01*
X94631436Y-128074280D01*
X94635210Y-128062678D01*
X94638964Y-128051072D01*
X94642700Y-128039457D01*
X94646416Y-128027839D01*
X94650113Y-128016212D01*
X94653791Y-128004582D01*
X94657451Y-127992943D01*
X94661091Y-127981301D01*
X94664712Y-127969651D01*
X94668313Y-127957996D01*
X94671896Y-127946334D01*
X94675460Y-127934668D01*
X94679005Y-127922994D01*
X94682530Y-127911316D01*
X94686036Y-127899630D01*
X94689523Y-127887941D01*
X94692991Y-127876244D01*
X94696439Y-127864543D01*
X94699869Y-127852834D01*
X94703279Y-127841122D01*
X94706671Y-127829402D01*
X94710042Y-127817679D01*
X94713395Y-127805947D01*
X94716729Y-127794213D01*
X94720043Y-127782470D01*
X94723338Y-127770725D01*
X94726614Y-127758971D01*
X94729870Y-127747214D01*
X94733108Y-127735450D01*
X94736326Y-127723682D01*
X94739525Y-127711907D01*
X94742704Y-127700128D01*
X94745865Y-127688342D01*
X94749006Y-127676553D01*
X94752128Y-127664756D01*
X94755230Y-127652957D01*
X94758313Y-127641149D01*
X94761377Y-127629339D01*
X94764422Y-127617521D01*
X94767447Y-127605700D01*
X94770453Y-127593872D01*
X94773439Y-127582041D01*
X94776407Y-127570202D01*
X94779354Y-127558361D01*
X94782283Y-127546512D01*
X94785192Y-127534660D01*
X94788082Y-127522801D01*
X94790952Y-127510940D01*
X94793804Y-127499071D01*
X94796635Y-127487199D01*
X94799448Y-127475320D01*
X94802240Y-127463439D01*
X94805014Y-127451550D01*
X94807768Y-127439659D01*
X94810503Y-127427760D01*
X94813218Y-127415859D01*
X94815914Y-127403951D01*
X94818590Y-127392040D01*
X94821247Y-127380122D01*
X94823885Y-127368202D01*
X94826503Y-127356275D01*
X94829102Y-127344345D01*
X94831681Y-127332408D01*
X94834241Y-127320469D01*
X94836781Y-127308523D01*
X94839302Y-127296575D01*
X94841803Y-127284619D01*
X94844285Y-127272662D01*
X94846748Y-127260697D01*
X94849190Y-127248731D01*
X94851614Y-127236757D01*
X94854017Y-127224782D01*
X94856402Y-127212799D01*
X94858767Y-127200814D01*
X94861112Y-127188823D01*
X94863438Y-127176829D01*
X94865744Y-127164829D01*
X94868031Y-127152827D01*
X94870298Y-127140818D01*
X94872546Y-127128807D01*
X94874774Y-127116790D01*
X94876983Y-127104770D01*
X94879172Y-127092744D01*
X94881341Y-127080716D01*
X94883491Y-127068681D01*
X94885621Y-127056645D01*
X94887732Y-127044602D01*
X94889823Y-127032557D01*
X94891895Y-127020506D01*
X94893947Y-127008452D01*
X94895979Y-126996393D01*
X94897992Y-126984332D01*
X94899985Y-126972264D01*
X94901959Y-126960194D01*
X94903913Y-126948119D01*
X94905847Y-126936041D01*
X94907762Y-126923957D01*
X94909657Y-126911872D01*
X94911532Y-126899780D01*
X94913388Y-126887687D01*
X94915224Y-126875588D01*
X94917040Y-126863487D01*
X94918837Y-126851379D01*
X94920614Y-126839271D01*
X94922372Y-126827156D01*
X94924110Y-126815039D01*
X94925828Y-126802917D01*
X94927526Y-126790793D01*
X94929205Y-126778663D01*
X94930864Y-126766532D01*
X94932504Y-126754394D01*
X94934124Y-126742255D01*
X94935724Y-126730111D01*
X94937304Y-126717965D01*
X94938865Y-126705812D01*
X94940406Y-126693659D01*
X94941927Y-126681500D01*
X94943428Y-126669339D01*
X94944910Y-126657173D01*
X94946372Y-126645005D01*
X94947815Y-126632832D01*
X94949237Y-126620657D01*
X94950640Y-126608477D01*
X94952023Y-126596295D01*
X94953387Y-126584108D01*
X94954730Y-126571920D01*
X94956054Y-126559725D01*
X94957358Y-126547530D01*
X94958643Y-126535329D01*
X94959907Y-126523127D01*
X94961152Y-126510920D01*
X94962377Y-126498711D01*
X94963582Y-126486497D01*
X94964768Y-126474282D01*
X94965933Y-126462061D01*
X94967079Y-126449839D01*
X94968205Y-126437612D01*
X94969312Y-126425384D01*
X94970398Y-126413151D01*
X94971465Y-126400916D01*
X94972512Y-126388676D01*
X94973539Y-126376436D01*
X94974546Y-126364189D01*
X94975533Y-126351943D01*
X94976501Y-126339690D01*
X94977449Y-126327437D01*
X94978377Y-126315179D01*
X94979285Y-126302920D01*
X94980173Y-126290655D01*
X94981041Y-126278390D01*
X94981890Y-126266120D01*
X94982719Y-126253849D01*
X94983528Y-126241572D01*
X94984317Y-126229295D01*
X94985086Y-126217013D01*
X94985835Y-126204731D01*
X94986564Y-126192443D01*
X94987274Y-126180154D01*
X94987964Y-126167861D01*
X94988633Y-126155567D01*
X94989283Y-126143267D01*
X94989913Y-126130968D01*
X94990523Y-126118663D01*
X94991113Y-126106358D01*
X94991684Y-126094047D01*
X94992234Y-126081737D01*
X94992765Y-126069421D01*
X94993275Y-126057105D01*
X94993766Y-126044784D01*
X94994236Y-126032463D01*
X94994687Y-126020136D01*
X94995118Y-126007810D01*
X94995529Y-125995478D01*
X94995920Y-125983146D01*
X94996291Y-125970810D01*
X94996642Y-125958473D01*
X94996974Y-125946131D01*
X94997285Y-125933789D01*
X94997576Y-125921442D01*
X94997847Y-125909095D01*
X94998099Y-125896743D01*
X94998330Y-125884391D01*
X94998542Y-125872034D01*
X94998733Y-125859678D01*
X94998905Y-125847316D01*
X94999056Y-125834955D01*
X94999188Y-125822588D01*
X94999299Y-125810222D01*
X94999391Y-125797851D01*
X94999462Y-125785480D01*
X94999514Y-125773104D01*
X94999545Y-125760728D01*
X94999557Y-125748348D01*
X94999557Y-125747383D01*
X123499441Y-89751246D02*
X123499441Y-111749672D01*
X76500560Y-138637420D02*
X98498986Y-138637420D01*
X123499441Y-86749212D02*
X76500560Y-86749212D01*
X101501017Y-86749212D02*
X101501017Y-64750788D01*
X83499418Y-96750100D02*
X80497388Y-93748074D01*
X76500560Y-64750788D02*
X123499441Y-64750788D01*
X94999557Y-125747383D02*
X94999557Y-125747383D01*
X76500560Y-145248232D02*
X76500560Y-42752362D01*
X76500560Y-158247623D02*
X123499441Y-158247623D01*
X98498986Y-86749212D02*
X91500128Y-79750355D01*
X76500560Y-64750788D02*
X83499418Y-57751929D01*
D11*
X125249152Y-121415429D02*
X102432316Y-121415429D01*
D10*
X76500560Y-89751246D02*
X123499441Y-89751246D01*
X76500560Y-111749672D02*
X123499441Y-111749672D01*
X76500560Y-86749212D02*
X76500560Y-64750788D01*
X101501017Y-111749672D02*
X101501017Y-89751246D01*
X98498986Y-158191180D02*
X98498986Y-64750788D01*
X79999989Y-125747383D02*
X80000029Y-125772130D01*
X80000149Y-125796867D01*
X80000349Y-125821596D01*
X80000628Y-125846315D01*
X80000988Y-125871024D01*
X80001427Y-125895724D01*
X80001947Y-125920414D01*
X80002546Y-125945094D01*
X80003224Y-125969764D01*
X80003983Y-125994423D01*
X80004821Y-126019073D01*
X80005738Y-126043712D01*
X80006736Y-126068340D01*
X80007813Y-126092958D01*
X80008969Y-126117565D01*
X80010205Y-126142161D01*
X80011521Y-126166746D01*
X80012916Y-126191320D01*
X80014390Y-126215882D01*
X80015944Y-126240433D01*
X80017577Y-126264972D01*
X80019290Y-126289499D01*
X80021081Y-126314015D01*
X80022953Y-126338518D01*
X80024903Y-126363010D01*
X80026933Y-126387489D01*
X80029042Y-126411955D01*
X80031230Y-126436409D01*
X80033497Y-126460850D01*
X80035843Y-126485278D01*
X80038268Y-126509694D01*
X80040773Y-126534096D01*
X80043356Y-126558484D01*
X80046019Y-126582860D01*
X80048760Y-126607221D01*
X80051580Y-126631569D01*
X80054479Y-126655903D01*
X80057457Y-126680223D01*
X80060514Y-126704528D01*
X80063650Y-126728820D01*
X80066864Y-126753096D01*
X80070157Y-126777359D01*
X80073529Y-126801606D01*
X80076979Y-126825838D01*
X80080508Y-126850055D01*
X80084116Y-126874257D01*
X80087802Y-126898443D01*
X80091566Y-126922614D01*
X80095409Y-126946769D01*
X80099331Y-126970908D01*
X80103331Y-126995031D01*
X80107409Y-127019137D01*
X80111566Y-127043228D01*
X80115801Y-127067301D01*
X80120114Y-127091358D01*
X80124505Y-127115398D01*
X80128974Y-127139421D01*
X80133522Y-127163427D01*
X80138148Y-127187415D01*
X80142851Y-127211385D01*
X80147633Y-127235338D01*
X80152493Y-127259273D01*
X80157431Y-127283190D01*
X80162446Y-127307089D01*
X80167539Y-127330969D01*
X80172711Y-127354831D01*
X80177959Y-127378673D01*
X80183286Y-127402497D01*
X80188690Y-127426302D01*
X80194172Y-127450087D01*
X80199732Y-127473853D01*
X80205369Y-127497599D01*
X80211083Y-127521326D01*
X80216875Y-127545032D01*
X80222744Y-127568718D01*
X80228691Y-127592384D01*
X80234715Y-127616029D01*
X80240816Y-127639654D01*
X80246994Y-127663257D01*
X80253250Y-127686840D01*
X80259582Y-127710401D01*
X80265992Y-127733940D01*
X80272478Y-127757458D01*
X80279042Y-127780954D01*
X80285682Y-127804428D01*
X80292399Y-127827880D01*
X80299193Y-127851309D01*
X80306063Y-127874716D01*
X80313011Y-127898099D01*
X80320034Y-127921460D01*
X80327135Y-127944798D01*
X80334312Y-127968112D01*
X80341565Y-127991403D01*
X80348894Y-128014669D01*
X80356300Y-128037912D01*
X80363782Y-128061131D01*
X80371340Y-128084325D01*
X80378975Y-128107495D01*
X80386685Y-128130639D01*
X80394471Y-128153759D01*
X80402334Y-128176854D01*
X80410272Y-128199923D01*
X80418286Y-128222967D01*
X80426375Y-128245985D01*
X80434540Y-128268977D01*
X80442781Y-128291942D01*
X80451097Y-128314882D01*
X80459489Y-128337794D01*
X80467956Y-128360680D01*
X80476498Y-128383539D01*
X80485115Y-128406370D01*
X80493808Y-128429175D01*
X80502576Y-128451951D01*
X80511418Y-128474700D01*
X80520336Y-128497420D01*
X80529328Y-128520112D01*
X80538395Y-128542776D01*
X80547537Y-128565411D01*
X80556753Y-128588017D01*
X80566044Y-128610594D01*
X80575409Y-128633142D01*
X80584848Y-128655660D01*
X80594362Y-128678148D01*
X80603950Y-128700607D01*
X80613612Y-128723035D01*
X80623347Y-128745432D01*
X80633157Y-128767799D01*
X80643041Y-128790135D01*
X80652998Y-128812440D01*
X80663029Y-128834714D01*
X80673133Y-128856956D01*
X80683311Y-128879167D01*
X80693562Y-128901345D01*
X80703886Y-128923492D01*
X80714284Y-128945605D01*
X80724754Y-128967687D01*
X80735298Y-128989735D01*
X80745914Y-129011750D01*
X80756603Y-129033732D01*
X80767364Y-129055681D01*
X80778199Y-129077596D01*
X80789105Y-129099476D01*
X80800084Y-129121323D01*
X80811135Y-129143135D01*
X80822258Y-129164913D01*
X80833454Y-129186655D01*
X80844721Y-129208363D01*
X80856059Y-129230035D01*
X80867470Y-129251671D01*
X80878952Y-129273272D01*
X80890505Y-129294837D01*
X80902130Y-129316365D01*
X80913826Y-129337857D01*
X80925593Y-129359313D01*
X80937431Y-129380731D01*
X80949340Y-129402112D01*
X80961320Y-129423456D01*
X80973370Y-129444762D01*
X80985491Y-129466031D01*
X80997682Y-129487261D01*
X81009943Y-129508453D01*
X81022274Y-129529606D01*
X81034676Y-129550721D01*
X81047147Y-129571796D01*
X81059688Y-129592833D01*
X81072298Y-129613830D01*
X81084978Y-129634787D01*
X81097727Y-129655704D01*
X81110546Y-129676581D01*
X81123433Y-129697418D01*
X81136390Y-129718214D01*
X81149415Y-129738969D01*
X81162509Y-129759683D01*
X81175671Y-129780355D01*
X81188902Y-129800986D01*
X81202200Y-129821576D01*
X81215567Y-129842123D01*
X81229002Y-129862628D01*
X81242505Y-129883090D01*
X81256075Y-129903510D01*
X81269713Y-129923887D01*
X81283418Y-129944220D01*
X81297190Y-129964510D01*
X81311029Y-129984757D01*
X81324935Y-130004959D01*
X81338908Y-130025118D01*
X81352948Y-130045232D01*
X81367054Y-130065301D01*
X81381226Y-130085326D01*
X81395464Y-130105305D01*
X81409768Y-130125239D01*
X81424138Y-130145128D01*
X81438574Y-130164971D01*
X81453075Y-130184768D01*
X81467641Y-130204519D01*
X81482272Y-130224223D01*
X81496969Y-130243880D01*
X81511730Y-130263491D01*
X81526556Y-130283054D01*
X81541446Y-130302570D01*
X81556401Y-130322039D01*
X81571419Y-130341460D01*
X81586502Y-130360832D01*
X81601648Y-130380156D01*
X81616858Y-130399432D01*
X81632132Y-130418659D01*
X81647468Y-130437837D01*
X81662868Y-130456966D01*
X81678331Y-130476045D01*
X81693856Y-130495075D01*
X81709444Y-130514055D01*
X81725094Y-130532984D01*
X81740806Y-130551864D01*
X81756581Y-130570692D01*
X81772417Y-130589470D01*
X81788315Y-130608197D01*
X81804274Y-130626873D01*
X81820294Y-130645497D01*
X81836376Y-130664070D01*
X81852518Y-130682590D01*
X81868721Y-130701059D01*
X81884985Y-130719475D01*
X81901309Y-130737838D01*
X81917692Y-130756149D01*
X81934136Y-130774406D01*
X81950640Y-130792611D01*
X81967203Y-130810762D01*
X81983825Y-130828859D01*
X82000506Y-130846902D01*
X82017247Y-130864892D01*
X82034046Y-130882827D01*
X82050904Y-130900707D01*
X82067819Y-130918533D01*
X82084793Y-130936303D01*
X82101825Y-130954019D01*
X82118915Y-130971679D01*
X82136062Y-130989283D01*
X82153267Y-131006832D01*
X82170528Y-131024325D01*
X82187847Y-131041761D01*
X82205222Y-131059141D01*
X82213930Y-131067809D01*
X82222653Y-131076464D01*
X82231390Y-131085104D01*
X82240141Y-131093730D01*
X82248906Y-131102342D01*
X82257685Y-131110940D01*
X82266478Y-131119523D01*
X82275285Y-131128091D01*
X82284105Y-131136646D01*
X82292940Y-131145186D01*
X82301789Y-131153712D01*
X82310651Y-131162223D01*
X82319527Y-131170719D01*
X82328417Y-131179202D01*
X82337320Y-131187669D01*
X82346238Y-131196122D01*
X82355169Y-131204561D01*
X82364114Y-131212985D01*
X82373072Y-131221394D01*
X82382044Y-131229789D01*
X82391029Y-131238169D01*
X82400029Y-131246534D01*
X82409041Y-131254884D01*
X82418067Y-131263220D01*
X82427107Y-131271541D01*
X82436160Y-131279848D01*
X82445226Y-131288139D01*
X82454306Y-131296415D01*
X82463400Y-131304677D01*
X82472506Y-131312924D01*
X82481626Y-131321156D01*
X82490759Y-131329373D01*
X82499906Y-131337574D01*
X82509066Y-131345761D01*
X82518238Y-131353933D01*
X82527425Y-131362090D01*
X82536624Y-131370232D01*
X82545836Y-131378358D01*
X82555062Y-131386470D01*
X82564300Y-131394566D01*
X82573552Y-131402648D01*
X82582816Y-131410714D01*
X82592094Y-131418764D01*
X82601384Y-131426800D01*
X82610688Y-131434820D01*
X82620004Y-131442825D01*
X82629333Y-131450815D01*
X82638676Y-131458790D01*
X82648030Y-131466748D01*
X82657398Y-131474692D01*
X82666778Y-131482620D01*
X82676172Y-131490533D01*
X82685577Y-131498431D01*
X82694996Y-131506313D01*
X82704427Y-131514179D01*
X82713871Y-131522030D01*
X82723327Y-131529865D01*
X82732797Y-131537685D01*
X82742278Y-131545489D01*
X82751772Y-131553278D01*
X82761278Y-131561051D01*
X82770798Y-131568808D01*
X82780329Y-131576550D01*
X82789873Y-131584276D01*
X82799429Y-131591986D01*
X82808997Y-131599680D01*
X82818578Y-131607359D01*
X82828171Y-131615022D01*
X82837776Y-131622669D01*
X82847394Y-131630300D01*
X82857023Y-131637915D01*
X82866666Y-131645515D01*
X82876319Y-131653098D01*
X82885986Y-131660666D01*
X82895664Y-131668218D01*
X82905354Y-131675754D01*
X82915056Y-131683273D01*
X82924771Y-131690777D01*
X82934497Y-131698265D01*
X82944235Y-131705737D01*
X82953985Y-131713192D01*
X82963747Y-131720632D01*
X82973521Y-131728055D01*
X82983307Y-131735462D01*
X82993104Y-131742853D01*
X83002913Y-131750228D01*
X83012734Y-131757587D01*
X83022567Y-131764930D01*
X83032411Y-131772256D01*
X83042267Y-131779566D01*
X83052135Y-131786859D01*
X83062014Y-131794137D01*
X83071905Y-131801398D01*
X83081807Y-131808643D01*
X83091721Y-131815871D01*
X83101646Y-131823083D01*
X83111583Y-131830278D01*
X83121531Y-131837458D01*
X83131490Y-131844620D01*
X83141461Y-131851767D01*
X83151443Y-131858896D01*
X83161437Y-131866009D01*
X83171442Y-131873106D01*
X83181458Y-131880186D01*
X83191485Y-131887249D01*
X83201524Y-131894297D01*
X83211573Y-131901327D01*
X83221634Y-131908341D01*
X83231705Y-131915338D01*
X83241789Y-131922318D01*
X83251882Y-131929282D01*
X83261987Y-131936229D01*
X83272103Y-131943159D01*
X83282230Y-131950073D01*
X83292367Y-131956969D01*
X83302517Y-131963850D01*
X83312676Y-131970712D01*
X83322846Y-131977559D01*
X83333027Y-131984388D01*
X83343220Y-131991201D01*
X83353422Y-131997997D01*
X83363636Y-132004776D01*
X83373859Y-132011538D01*
X83384095Y-132018283D01*
X83394339Y-132025011D01*
X83404596Y-132031722D01*
X83414862Y-132038416D01*
X83425140Y-132045094D01*
X83435427Y-132051753D01*
X83445725Y-132058397D01*
X83456033Y-132065023D01*
X83466353Y-132071632D01*
X83476682Y-132078223D01*
X83487022Y-132084798D01*
X83497372Y-132091356D01*
X83507733Y-132097897D01*
X83518103Y-132104419D01*
X83528484Y-132110926D01*
X83538875Y-132117414D01*
X83549277Y-132123887D01*
X83559688Y-132130341D01*
X83570110Y-132136778D01*
X83580541Y-132143198D01*
X83590983Y-132149601D01*
X83601435Y-132155986D01*
X83611897Y-132162354D01*
X83622369Y-132168704D01*
X83632851Y-132175038D01*
X83643342Y-132181354D01*
X83653844Y-132187653D01*
X83664355Y-132193933D01*
X83674877Y-132200197D01*
X83685408Y-132206443D01*
X83695950Y-132212673D01*
X83706500Y-132218884D01*
X83717061Y-132225078D01*
X83727630Y-132231254D01*
X83738211Y-132237413D01*
X83748800Y-132243554D01*
X83759400Y-132249678D01*
X83770008Y-132255784D01*
X83780627Y-132261873D01*
X83791254Y-132267944D01*
X83801892Y-132273998D01*
X83812538Y-132280033D01*
X83823195Y-132286051D01*
X83833859Y-132292052D01*
X83844535Y-132298035D01*
X83855219Y-132303999D01*
X83865913Y-132309947D01*
X83876615Y-132315877D01*
X83887328Y-132321789D01*
X83898049Y-132327683D01*
X83908780Y-132333560D01*
X83919519Y-132339418D01*
X83930269Y-132345259D01*
X83941026Y-132351082D01*
X83951794Y-132356887D01*
X83962570Y-132362674D01*
X83973356Y-132368444D01*
X83984149Y-132374195D01*
X83994954Y-132379930D01*
X84005765Y-132385645D01*
X84016587Y-132391343D01*
X84027416Y-132397023D01*
X84038256Y-132402686D01*
X84049103Y-132408329D01*
X84059960Y-132413956D01*
X84070825Y-132419564D01*
X84081700Y-132425154D01*
X84092582Y-132430726D01*
X84103474Y-132436281D01*
X84114373Y-132441816D01*
X84125283Y-132447335D01*
X84136199Y-132452834D01*
X84147126Y-132458317D01*
X84158060Y-132463780D01*
X84169004Y-132469226D01*
X84179954Y-132474653D01*
X84190915Y-132480063D01*
X84201883Y-132485454D01*
X84212861Y-132490828D01*
X84223845Y-132496182D01*
X84234839Y-132501520D01*
X84245840Y-132506838D01*
X84256852Y-132512139D01*
X84267869Y-132517420D01*
X84278897Y-132522685D01*
X84289931Y-132527930D01*
X84300975Y-132533158D01*
X84312025Y-132538367D01*
X84323086Y-132543558D01*
X84334152Y-132548730D01*
X84345229Y-132553885D01*
X84356311Y-132559020D01*
X84367404Y-132564139D01*
X84378503Y-132569237D01*
X84389611Y-132574319D01*
X84400726Y-132579381D01*
X84411850Y-132584425D01*
X84422981Y-132589451D01*
X84434121Y-132594459D01*
X84445267Y-132599447D01*
X84456423Y-132604418D01*
X84467584Y-132609370D01*
X84478755Y-132614304D01*
X84489933Y-132619219D01*
X84501119Y-132624116D01*
X84512312Y-132628993D01*
X84523514Y-132633854D01*
X84534721Y-132638694D01*
X84545938Y-132643517D01*
X84557161Y-132648321D01*
X84568393Y-132653107D01*
X84579631Y-132657874D01*
X84590878Y-132662623D01*
X84602131Y-132667352D01*
X84613393Y-132672064D01*
X84624661Y-132676756D01*
X84635938Y-132681431D01*
X84647220Y-132686086D01*
X84658511Y-132690723D01*
X84669808Y-132695341D01*
X84681114Y-132699941D01*
X84692425Y-132704522D01*
X84703746Y-132709085D01*
X84715071Y-132713628D01*
X84726406Y-132718153D01*
X84737746Y-132722659D01*
X84749095Y-132727147D01*
X84760449Y-132731615D01*
X84771812Y-132736066D01*
X84783180Y-132740497D01*
X84794558Y-132744909D01*
X84805940Y-132749303D01*
X84817331Y-132753678D01*
X84828726Y-132758034D01*
X84840131Y-132762372D01*
X84851541Y-132766690D01*
X84862959Y-132770991D01*
X84874383Y-132775271D01*
X84885815Y-132779534D01*
X84897252Y-132783777D01*
X84908697Y-132788002D01*
X84920147Y-132792207D01*
X84931606Y-132796394D01*
X84943070Y-132800562D01*
X84954542Y-132804711D01*
X84966019Y-132808841D01*
X84977504Y-132812953D01*
X84988994Y-132817045D01*
X85000492Y-132821119D01*
X85011995Y-132825173D01*
X85023507Y-132829209D01*
X85035022Y-132833225D01*
X85046547Y-132837223D01*
X85058075Y-132841202D01*
X85069612Y-132845162D01*
X85081154Y-132849102D01*
X85092703Y-132853025D01*
X85104257Y-132856927D01*
X85115819Y-132860811D01*
X85127386Y-132864676D01*
X85138960Y-132868522D01*
X85150539Y-132872348D01*
X85162126Y-132876156D01*
X85173717Y-132879945D01*
X85185317Y-132883715D01*
X85196920Y-132887465D01*
X85208531Y-132891197D01*
X85220147Y-132894909D01*
X85231770Y-132898603D01*
X85243398Y-132902277D01*
X85255033Y-132905932D01*
X85266672Y-132909568D01*
X85278320Y-132913185D01*
X85289971Y-132916783D01*
X85301630Y-132920362D01*
X85313293Y-132923921D01*
X85324964Y-132927462D01*
X85336638Y-132930983D01*
X85348320Y-132934485D01*
X85360006Y-132937968D01*
X85371700Y-132941432D01*
X85383397Y-132944876D01*
X85395102Y-132948302D01*
X85406811Y-132951708D01*
X85418528Y-132955095D01*
X85430247Y-132958463D01*
X85441975Y-132961812D01*
X85453706Y-132965141D01*
X85465445Y-132968451D01*
X85477187Y-132971742D01*
X85488936Y-132975014D01*
X85500689Y-132978266D01*
X85512450Y-132981499D01*
X85524214Y-132984713D01*
X85535985Y-132987908D01*
X85547760Y-132991083D01*
X85559542Y-132994239D01*
X85571327Y-132997376D01*
X85583120Y-133000494D01*
X85594915Y-133003591D01*
X85606719Y-133006671D01*
X85618525Y-133009730D01*
X85630338Y-133012770D01*
X85642155Y-133015791D01*
X85653979Y-133018793D01*
X85665806Y-133021775D01*
X85677640Y-133024738D01*
X85689477Y-133027681D01*
X85701321Y-133030606D01*
X85713169Y-133033510D01*
X85725023Y-133036396D01*
X85736880Y-133039262D01*
X85748745Y-133042109D01*
X85760612Y-133044936D01*
X85772486Y-133047744D01*
X85784363Y-133050532D01*
X85796247Y-133053302D01*
X85808134Y-133056051D01*
X85820027Y-133058782D01*
X85831924Y-133061492D01*
X85843827Y-133064184D01*
X85855733Y-133066856D01*
X85867646Y-133069508D01*
X85879561Y-133072141D01*
X85891483Y-133074755D01*
X85903408Y-133077349D01*
X85915340Y-133079924D01*
X85927274Y-133082479D01*
X85939215Y-133085015D01*
X85951158Y-133087531D01*
X85963108Y-133090028D01*
X85975060Y-133092505D01*
X85987019Y-133094963D01*
X85998981Y-133097401D01*
X86010949Y-133099821D01*
X86022919Y-133102220D01*
X86034896Y-133104600D01*
X86046876Y-133106960D01*
X86058861Y-133109301D01*
X86070849Y-133111622D01*
X86082844Y-133113924D01*
X86094841Y-133116206D01*
X86106844Y-133118468D01*
X86118849Y-133120711D01*
X86130861Y-133122935D01*
X86142875Y-133125139D01*
X86154895Y-133127323D01*
X86166917Y-133129488D01*
X86178946Y-133131633D01*
X86190977Y-133133759D01*
X86203014Y-133135865D01*
X86215053Y-133137951D01*
X86227098Y-133140018D01*
X86239145Y-133142065D01*
X86251199Y-133144093D01*
X86263254Y-133146101D01*
X86275315Y-133148090D01*
X86287378Y-133150058D01*
X86299448Y-133152008D01*
X86311519Y-133153937D01*
X86323597Y-133155847D01*
X86335676Y-133157737D01*
X86347761Y-133159608D01*
X86359848Y-133161459D01*
X86371941Y-133163291D01*
X86384035Y-133165102D01*
X86396136Y-133166894D01*
X86408238Y-133168667D01*
X86420347Y-133170419D01*
X86432456Y-133172152D01*
X86444572Y-133173866D01*
X86456689Y-133175559D01*
X86468813Y-133177234D01*
X86480937Y-133178888D01*
X86493068Y-133180523D01*
X86505200Y-133182137D01*
X86517338Y-133183733D01*
X86529477Y-133185308D01*
X86541622Y-133186864D01*
X86553768Y-133188400D01*
X86565920Y-133189917D01*
X86578074Y-133191413D01*
X86590233Y-133192890D01*
X86602393Y-133194347D01*
X86614560Y-133195785D01*
X86626727Y-133197202D01*
X86638900Y-133198600D01*
X86651074Y-133199979D01*
X86663254Y-133201337D01*
X86675435Y-133202676D01*
X86687622Y-133203995D01*
X86699810Y-133205294D01*
X86712003Y-133206573D01*
X86724198Y-133207833D01*
X86736398Y-133209073D01*
X86748599Y-133210293D01*
X86760805Y-133211493D01*
X86773013Y-133212674D01*
X86785226Y-133213835D01*
X86797439Y-133214976D01*
X86809659Y-133216097D01*
X86821879Y-133217198D01*
X86834105Y-133218280D01*
X86846331Y-133219341D01*
X86858563Y-133220383D01*
X86870796Y-133221405D01*
X86883034Y-133222408D01*
X86895273Y-133223390D01*
X86907517Y-133224353D01*
X86919762Y-133225296D01*
X86932012Y-133226219D01*
X86944263Y-133227122D01*
X86956519Y-133228005D01*
X86968776Y-133228868D01*
X86981038Y-133229712D01*
X86993301Y-133230536D01*
X87005569Y-133231339D01*
X87017837Y-133232123D01*
X87030111Y-133232888D01*
X87042385Y-133233632D01*
X87054664Y-133234356D01*
X87066944Y-133235061D01*
X87079229Y-133235745D01*
X87091514Y-133236410D01*
X87103805Y-133237055D01*
X87116096Y-133237680D01*
X87128392Y-133238285D01*
X87140688Y-133238870D01*
X87152989Y-133239435D01*
X87165291Y-133239981D01*
X87177598Y-133240506D01*
X87189905Y-133241012D01*
X87202217Y-133241497D01*
X87214529Y-133241963D01*
X87226846Y-133242409D01*
X87239164Y-133242834D01*
X87251486Y-133243240D01*
X87263809Y-133243626D01*
X87276136Y-133243992D01*
X87288464Y-133244338D01*
X87300796Y-133244664D01*
X87313129Y-133244971D01*
X87325467Y-133245257D01*
X87337804Y-133245523D01*
X87350146Y-133245769D01*
X87362489Y-133245996D01*
X87374836Y-133246202D01*
X87387183Y-133246389D01*
X87399535Y-133246555D01*
X87411887Y-133246701D01*
X87424244Y-133246828D01*
X87436600Y-133246934D01*
X87448962Y-133247021D01*
X87461323Y-133247087D01*
X87473689Y-133247134D01*
X87496245Y-133247167D01*
X108499873Y-71753173D02*
X105646005Y-68899302D01*
X123499441Y-86749212D02*
X101501017Y-86749212D01*
X94999557Y-125747383D02*
X94999557Y-138637416D01*
X98498986Y-111749672D02*
X91500128Y-104750807D01*
X101501017Y-89751246D02*
X123499441Y-89751246D01*
X123499441Y-158247623D02*
X123499441Y-42752362D01*
X123499441Y-114878694D02*
X123499441Y-136877119D01*
X76500560Y-111749672D02*
X76500560Y-89751246D01*
X76500560Y-111749672D02*
X83499418Y-104750807D01*
X76500560Y-158247623D02*
X76500560Y-151248769D01*
X123499441Y-64750788D02*
X123499441Y-86749212D01*
X98498986Y-64750788D02*
X98498986Y-86749212D01*
X98498986Y-111749672D02*
X76500560Y-111749672D01*
X123499441Y-111749672D02*
X116497056Y-104750807D01*
X123499441Y-86749212D02*
X116497056Y-79750355D01*
X101497488Y-111749672D02*
X108499873Y-104750807D01*
X94999557Y-138637416D02*
X79999989Y-138637416D01*
X101501017Y-158191180D02*
X101501017Y-64750788D01*
X76500560Y-64750788D02*
X98498986Y-64750788D01*
X91500128Y-96750100D02*
X98498986Y-89751246D01*
X76500560Y-136877119D02*
X76500560Y-114878694D01*
X101501017Y-64750788D02*
X123499441Y-64750788D01*
X98498986Y-89751246D02*
X98498986Y-111749672D01*
X98498986Y-114878694D02*
X98498986Y-136877119D01*
D11*
X125249152Y-133783370D02*
X102432316Y-133783370D01*
D10*
X101501017Y-136877119D02*
X101501017Y-114878694D01*
X76500560Y-86749212D02*
X83499418Y-79750355D01*
X76500560Y-89751246D02*
X98498986Y-89751246D01*
X101497488Y-64750788D02*
X108499873Y-57751929D01*
X76500560Y-42752362D02*
X123499441Y-42752362D01*
X116500584Y-96750100D02*
X123499441Y-89751246D01*
X98498986Y-86749212D02*
X76500560Y-86749212D01*
X79999989Y-138637416D02*
X79999989Y-125747383D01*
D11*
X102432316Y-145675075D02*
X125249152Y-145675075D01*
D10*
X108499873Y-96750100D02*
X105497845Y-93748074D01*
D12*
X81585933Y-67805400D02*
X81374267Y-67805400D01*
X81374267Y-65773400D01*
X81585933Y-65773400D01*
X81585933Y-67805400D01*
G36*
X81585933Y-67805400D02*
G01*
X81374267Y-67805400D01*
X81374267Y-65773400D01*
X81585933Y-65773400D01*
X81585933Y-67805400D01*
G37*
X86327267Y-114880067D02*
X86073267Y-114880067D01*
X86073267Y-113483067D01*
X86327267Y-113483067D01*
X86327267Y-114880067D01*
G36*
X86327267Y-114880067D02*
G01*
X86073267Y-114880067D01*
X86073267Y-113483067D01*
X86327267Y-113483067D01*
X86327267Y-114880067D01*
G37*
X102964267Y-114880067D02*
X102710267Y-114880067D01*
X102710267Y-112932734D01*
X102964267Y-112932734D01*
X102964267Y-114880067D01*
G36*
X102964267Y-114880067D02*
G01*
X102710267Y-114880067D01*
X102710267Y-112932734D01*
X102964267Y-112932734D01*
X102964267Y-114880067D01*
G37*
X104742267Y-92824400D02*
X104530600Y-92824400D01*
X104530600Y-91385067D01*
X104742267Y-91385067D01*
X104742267Y-92824400D01*
G36*
X104742267Y-92824400D02*
G01*
X104530600Y-92824400D01*
X104530600Y-91385067D01*
X104742267Y-91385067D01*
X104742267Y-92824400D01*
G37*
X104953933Y-67805400D02*
X104699933Y-67805400D01*
X104699933Y-66408400D01*
X104953933Y-66408400D01*
X104953933Y-67805400D01*
G36*
X104953933Y-67805400D02*
G01*
X104699933Y-67805400D01*
X104699933Y-66408400D01*
X104953933Y-66408400D01*
X104953933Y-67805400D01*
G37*
X83608373Y-92094150D02*
X83596767Y-92803234D01*
X83363933Y-92830024D01*
X83363933Y-91385067D01*
X83619980Y-91385067D01*
X83608373Y-92094150D01*
G36*
X83608373Y-92094150D02*
G01*
X83596767Y-92803234D01*
X83363933Y-92830024D01*
X83363933Y-91385067D01*
X83619980Y-91385067D01*
X83608373Y-92094150D01*
G37*
X107221659Y-134674538D02*
X107239933Y-134755567D01*
X107220090Y-134838557D01*
X107155267Y-134861400D01*
X107088874Y-134836596D01*
X107070600Y-134755567D01*
X107090443Y-134672576D01*
X107155267Y-134649734D01*
X107221659Y-134674538D01*
G36*
X107221659Y-134674538D02*
G01*
X107239933Y-134755567D01*
X107220090Y-134838557D01*
X107155267Y-134861400D01*
X107088874Y-134836596D01*
X107070600Y-134755567D01*
X107090443Y-134672576D01*
X107155267Y-134649734D01*
X107221659Y-134674538D01*
G37*
X78876600Y-113144400D02*
X77902933Y-113144400D01*
X77902933Y-113779400D01*
X78834267Y-113779400D01*
X78834267Y-113991067D01*
X77902933Y-113991067D01*
X77902933Y-114880067D01*
X77648933Y-114880067D01*
X77648933Y-112932734D01*
X78876600Y-112932734D01*
X78876600Y-113144400D01*
G36*
X78876600Y-113144400D02*
G01*
X77902933Y-113144400D01*
X77902933Y-113779400D01*
X78834267Y-113779400D01*
X78834267Y-113991067D01*
X77902933Y-113991067D01*
X77902933Y-114880067D01*
X77648933Y-114880067D01*
X77648933Y-112932734D01*
X78876600Y-112932734D01*
X78876600Y-113144400D01*
G37*
X83576260Y-90758327D02*
X83611257Y-90800222D01*
X83617933Y-90898234D01*
X83610853Y-90997781D01*
X83574943Y-91038611D01*
X83490933Y-91046400D01*
X83405607Y-91038140D01*
X83370609Y-90996245D01*
X83363933Y-90898234D01*
X83371013Y-90798686D01*
X83406923Y-90757856D01*
X83490933Y-90750067D01*
X83576260Y-90758327D01*
G36*
X83576260Y-90758327D02*
G01*
X83611257Y-90800222D01*
X83617933Y-90898234D01*
X83610853Y-90997781D01*
X83574943Y-91038611D01*
X83490933Y-91046400D01*
X83405607Y-91038140D01*
X83370609Y-90996245D01*
X83363933Y-90898234D01*
X83371013Y-90798686D01*
X83406923Y-90757856D01*
X83490933Y-90750067D01*
X83576260Y-90758327D01*
G37*
X104708004Y-90761137D02*
X104737304Y-90810953D01*
X104742267Y-90898234D01*
X104734359Y-90998433D01*
X104698777Y-91039452D01*
X104636433Y-91046400D01*
X104564862Y-91035330D01*
X104535563Y-90985514D01*
X104530600Y-90898234D01*
X104538507Y-90798034D01*
X104574090Y-90757015D01*
X104636433Y-90750067D01*
X104708004Y-90761137D01*
G36*
X104708004Y-90761137D02*
G01*
X104737304Y-90810953D01*
X104742267Y-90898234D01*
X104734359Y-90998433D01*
X104698777Y-91039452D01*
X104636433Y-91046400D01*
X104564862Y-91035330D01*
X104535563Y-90985514D01*
X104530600Y-90898234D01*
X104538507Y-90798034D01*
X104574090Y-90757015D01*
X104636433Y-90750067D01*
X104708004Y-90761137D01*
G37*
X86186252Y-112813114D02*
X86189683Y-112813505D01*
X86273454Y-112838020D01*
X86310488Y-112903769D01*
X86319365Y-112964484D01*
X86321203Y-113058730D01*
X86286506Y-113095820D01*
X86202949Y-113102067D01*
X86116424Y-113094304D01*
X86080508Y-113053996D01*
X86073270Y-112955608D01*
X86073267Y-112951088D01*
X86079338Y-112851265D01*
X86110517Y-112812935D01*
X86186252Y-112813114D01*
G36*
X86186252Y-112813114D02*
G01*
X86189683Y-112813505D01*
X86273454Y-112838020D01*
X86310488Y-112903769D01*
X86319365Y-112964484D01*
X86321203Y-113058730D01*
X86286506Y-113095820D01*
X86202949Y-113102067D01*
X86116424Y-113094304D01*
X86080508Y-113053996D01*
X86073270Y-112955608D01*
X86073267Y-112951088D01*
X86079338Y-112851265D01*
X86110517Y-112812935D01*
X86186252Y-112813114D01*
G37*
X104917708Y-65781091D02*
X104948753Y-65821696D01*
X104946032Y-65910984D01*
X104923923Y-66009736D01*
X104867775Y-66052471D01*
X104816350Y-66061962D01*
X104738840Y-66063007D01*
X104706518Y-66026291D01*
X104699936Y-65928829D01*
X104699933Y-65924379D01*
X104706601Y-65823645D01*
X104741224Y-65781831D01*
X104825734Y-65773404D01*
X104829615Y-65773400D01*
X104917708Y-65781091D01*
G36*
X104917708Y-65781091D02*
G01*
X104948753Y-65821696D01*
X104946032Y-65910984D01*
X104923923Y-66009736D01*
X104867775Y-66052471D01*
X104816350Y-66061962D01*
X104738840Y-66063007D01*
X104706518Y-66026291D01*
X104699936Y-65928829D01*
X104699933Y-65924379D01*
X104706601Y-65823645D01*
X104741224Y-65781831D01*
X104825734Y-65773404D01*
X104829615Y-65773400D01*
X104917708Y-65781091D01*
G37*
X107768419Y-123309277D02*
X107847604Y-123326564D01*
X107874432Y-123360249D01*
X107874933Y-123367900D01*
X107855426Y-123404772D01*
X107786276Y-123424568D01*
X107651537Y-123431275D01*
X107620933Y-123431400D01*
X107473447Y-123426523D01*
X107394262Y-123409236D01*
X107367434Y-123375551D01*
X107366933Y-123367900D01*
X107386440Y-123331029D01*
X107455590Y-123311232D01*
X107590329Y-123304525D01*
X107620933Y-123304400D01*
X107768419Y-123309277D01*
G36*
X107768419Y-123309277D02*
G01*
X107847604Y-123326564D01*
X107874432Y-123360249D01*
X107874933Y-123367900D01*
X107855426Y-123404772D01*
X107786276Y-123424568D01*
X107651537Y-123431275D01*
X107620933Y-123431400D01*
X107473447Y-123426523D01*
X107394262Y-123409236D01*
X107367434Y-123375551D01*
X107366933Y-123367900D01*
X107386440Y-123331029D01*
X107455590Y-123311232D01*
X107590329Y-123304525D01*
X107620933Y-123304400D01*
X107768419Y-123309277D01*
G37*
X89507225Y-91401276D02*
X89543910Y-91475112D01*
X89544600Y-91490900D01*
X89525426Y-91573192D01*
X89457133Y-91596729D01*
X89455700Y-91596734D01*
X89373930Y-91625411D01*
X89269611Y-91697944D01*
X89222867Y-91740667D01*
X89078933Y-91884600D01*
X89078933Y-92824400D01*
X88824933Y-92824400D01*
X88824933Y-91385067D01*
X88951933Y-91385067D01*
X89041970Y-91395660D01*
X89075138Y-91444899D01*
X89078933Y-91508810D01*
X89078933Y-91632554D01*
X89202677Y-91508810D01*
X89319706Y-91419011D01*
X89426857Y-91382871D01*
X89507225Y-91401276D01*
G36*
X89507225Y-91401276D02*
G01*
X89543910Y-91475112D01*
X89544600Y-91490900D01*
X89525426Y-91573192D01*
X89457133Y-91596729D01*
X89455700Y-91596734D01*
X89373930Y-91625411D01*
X89269611Y-91697944D01*
X89222867Y-91740667D01*
X89078933Y-91884600D01*
X89078933Y-92824400D01*
X88824933Y-92824400D01*
X88824933Y-91385067D01*
X88951933Y-91385067D01*
X89041970Y-91395660D01*
X89075138Y-91444899D01*
X89078933Y-91508810D01*
X89078933Y-91632554D01*
X89202677Y-91508810D01*
X89319706Y-91419011D01*
X89426857Y-91382871D01*
X89507225Y-91401276D01*
G37*
X110716225Y-91401276D02*
X110752910Y-91475112D01*
X110753600Y-91490900D01*
X110734426Y-91573192D01*
X110666133Y-91596729D01*
X110664700Y-91596734D01*
X110582930Y-91625411D01*
X110478611Y-91697944D01*
X110431867Y-91740667D01*
X110287933Y-91884600D01*
X110287933Y-92824400D01*
X110033933Y-92824400D01*
X110033933Y-91385067D01*
X110160933Y-91385067D01*
X110250970Y-91395660D01*
X110284138Y-91444899D01*
X110287933Y-91508810D01*
X110287933Y-91632554D01*
X110411677Y-91508810D01*
X110528706Y-91419011D01*
X110635857Y-91382871D01*
X110716225Y-91401276D01*
G36*
X110716225Y-91401276D02*
G01*
X110752910Y-91475112D01*
X110753600Y-91490900D01*
X110734426Y-91573192D01*
X110666133Y-91596729D01*
X110664700Y-91596734D01*
X110582930Y-91625411D01*
X110478611Y-91697944D01*
X110431867Y-91740667D01*
X110287933Y-91884600D01*
X110287933Y-92824400D01*
X110033933Y-92824400D01*
X110033933Y-91385067D01*
X110160933Y-91385067D01*
X110250970Y-91395660D01*
X110284138Y-91444899D01*
X110287933Y-91508810D01*
X110287933Y-91632554D01*
X110411677Y-91508810D01*
X110528706Y-91419011D01*
X110635857Y-91382871D01*
X110716225Y-91401276D01*
G37*
X107190403Y-135162553D02*
X107214195Y-135186181D01*
X107228841Y-135242371D01*
X107236544Y-135344878D01*
X107239503Y-135507454D01*
X107239933Y-135686900D01*
X107239162Y-135906505D01*
X107235382Y-136055201D01*
X107226391Y-136146743D01*
X107209990Y-136194883D01*
X107183978Y-136213375D01*
X107155267Y-136216067D01*
X107120130Y-136211247D01*
X107096338Y-136187619D01*
X107081692Y-136131429D01*
X107073989Y-136028923D01*
X107071030Y-135866346D01*
X107070600Y-135686900D01*
X107071371Y-135467295D01*
X107075151Y-135318599D01*
X107084142Y-135227058D01*
X107100543Y-135178918D01*
X107126555Y-135160425D01*
X107155267Y-135157734D01*
X107190403Y-135162553D01*
G36*
X107190403Y-135162553D02*
G01*
X107214195Y-135186181D01*
X107228841Y-135242371D01*
X107236544Y-135344878D01*
X107239503Y-135507454D01*
X107239933Y-135686900D01*
X107239162Y-135906505D01*
X107235382Y-136055201D01*
X107226391Y-136146743D01*
X107209990Y-136194883D01*
X107183978Y-136213375D01*
X107155267Y-136216067D01*
X107120130Y-136211247D01*
X107096338Y-136187619D01*
X107081692Y-136131429D01*
X107073989Y-136028923D01*
X107071030Y-135866346D01*
X107070600Y-135686900D01*
X107071371Y-135467295D01*
X107075151Y-135318599D01*
X107084142Y-135227058D01*
X107100543Y-135178918D01*
X107126555Y-135160425D01*
X107155267Y-135157734D01*
X107190403Y-135162553D01*
G37*
X80051350Y-140245505D02*
X80142715Y-140276492D01*
X80178884Y-140356691D01*
X80180628Y-140369783D01*
X80193489Y-140480665D01*
X80314955Y-140359199D01*
X80431122Y-140270563D01*
X80537840Y-140235487D01*
X80617882Y-140254762D01*
X80654023Y-140329181D01*
X80654600Y-140343567D01*
X80631949Y-140429441D01*
X80588998Y-140449400D01*
X80479670Y-140475803D01*
X80359807Y-140539791D01*
X80268369Y-140618530D01*
X80248539Y-140648918D01*
X80232111Y-140720715D01*
X80215128Y-140856159D01*
X80199839Y-141034276D01*
X80190492Y-141190234D01*
X80167767Y-141655900D01*
X80051350Y-141669295D01*
X79934933Y-141682691D01*
X79934933Y-140232110D01*
X80051350Y-140245505D01*
G36*
X80051350Y-140245505D02*
G01*
X80142715Y-140276492D01*
X80178884Y-140356691D01*
X80180628Y-140369783D01*
X80193489Y-140480665D01*
X80314955Y-140359199D01*
X80431122Y-140270563D01*
X80537840Y-140235487D01*
X80617882Y-140254762D01*
X80654023Y-140329181D01*
X80654600Y-140343567D01*
X80631949Y-140429441D01*
X80588998Y-140449400D01*
X80479670Y-140475803D01*
X80359807Y-140539791D01*
X80268369Y-140618530D01*
X80248539Y-140648918D01*
X80232111Y-140720715D01*
X80215128Y-140856159D01*
X80199839Y-141034276D01*
X80190492Y-141190234D01*
X80167767Y-141655900D01*
X80051350Y-141669295D01*
X79934933Y-141682691D01*
X79934933Y-140232110D01*
X80051350Y-140245505D01*
G37*
X103506123Y-90877521D02*
X103699789Y-90879751D01*
X103832074Y-90885058D01*
X103914621Y-90894744D01*
X103959071Y-90910109D01*
X103977067Y-90932456D01*
X103980267Y-90959879D01*
X103971133Y-91003329D01*
X103931986Y-91029905D01*
X103845206Y-91045075D01*
X103693172Y-91054307D01*
X103673350Y-91055129D01*
X103366433Y-91067567D01*
X103354991Y-91945984D01*
X103343549Y-92824400D01*
X103135318Y-92824400D01*
X103123875Y-91945984D01*
X103112433Y-91067567D01*
X102805517Y-91055129D01*
X102645854Y-91046194D01*
X102553239Y-91031878D01*
X102510050Y-91006713D01*
X102498667Y-90965230D01*
X102498600Y-90959879D01*
X102502662Y-90930068D01*
X102522611Y-90908419D01*
X102570088Y-90893632D01*
X102656736Y-90884405D01*
X102794197Y-90879436D01*
X102994112Y-90877425D01*
X103239433Y-90877067D01*
X103506123Y-90877521D01*
G36*
X103506123Y-90877521D02*
G01*
X103699789Y-90879751D01*
X103832074Y-90885058D01*
X103914621Y-90894744D01*
X103959071Y-90910109D01*
X103977067Y-90932456D01*
X103980267Y-90959879D01*
X103971133Y-91003329D01*
X103931986Y-91029905D01*
X103845206Y-91045075D01*
X103693172Y-91054307D01*
X103673350Y-91055129D01*
X103366433Y-91067567D01*
X103354991Y-91945984D01*
X103343549Y-92824400D01*
X103135318Y-92824400D01*
X103123875Y-91945984D01*
X103112433Y-91067567D01*
X102805517Y-91055129D01*
X102645854Y-91046194D01*
X102553239Y-91031878D01*
X102510050Y-91006713D01*
X102498667Y-90965230D01*
X102498600Y-90959879D01*
X102502662Y-90930068D01*
X102522611Y-90908419D01*
X102570088Y-90893632D01*
X102656736Y-90884405D01*
X102794197Y-90879436D01*
X102994112Y-90877425D01*
X103239433Y-90877067D01*
X103506123Y-90877521D01*
G37*
X106456473Y-112897584D02*
X106477933Y-112909646D01*
X106463803Y-112952896D01*
X106423996Y-113064853D01*
X106362385Y-113234880D01*
X106282842Y-113452344D01*
X106189242Y-113706607D01*
X106092525Y-113967979D01*
X105975133Y-114283140D01*
X105882403Y-114527581D01*
X105810175Y-114710194D01*
X105754285Y-114839868D01*
X105710574Y-114925495D01*
X105674880Y-114975965D01*
X105643041Y-115000167D01*
X105610895Y-115006992D01*
X105606136Y-115007067D01*
X105505156Y-115007067D01*
X105632577Y-114657817D01*
X105786356Y-114236760D01*
X105914196Y-113888420D01*
X106019010Y-113605919D01*
X106103715Y-113382374D01*
X106171224Y-113210906D01*
X106224454Y-113084635D01*
X106266318Y-112996681D01*
X106299731Y-112940162D01*
X106327610Y-112908200D01*
X106352867Y-112893913D01*
X106378419Y-112890421D01*
X106381362Y-112890400D01*
X106456473Y-112897584D01*
G36*
X106456473Y-112897584D02*
G01*
X106477933Y-112909646D01*
X106463803Y-112952896D01*
X106423996Y-113064853D01*
X106362385Y-113234880D01*
X106282842Y-113452344D01*
X106189242Y-113706607D01*
X106092525Y-113967979D01*
X105975133Y-114283140D01*
X105882403Y-114527581D01*
X105810175Y-114710194D01*
X105754285Y-114839868D01*
X105710574Y-114925495D01*
X105674880Y-114975965D01*
X105643041Y-115000167D01*
X105610895Y-115006992D01*
X105606136Y-115007067D01*
X105505156Y-115007067D01*
X105632577Y-114657817D01*
X105786356Y-114236760D01*
X105914196Y-113888420D01*
X106019010Y-113605919D01*
X106103715Y-113382374D01*
X106171224Y-113210906D01*
X106224454Y-113084635D01*
X106266318Y-112996681D01*
X106299731Y-112940162D01*
X106327610Y-112908200D01*
X106352867Y-112893913D01*
X106378419Y-112890421D01*
X106381362Y-112890400D01*
X106456473Y-112897584D01*
G37*
X83236933Y-140697083D02*
X83243385Y-140977357D01*
X83264582Y-141184387D01*
X83303285Y-141328744D01*
X83362254Y-141420999D01*
X83438726Y-141469694D01*
X83581016Y-141486602D01*
X83724687Y-141446320D01*
X83836172Y-141361086D01*
X83865696Y-141314017D01*
X83886152Y-141226575D01*
X83902137Y-141075112D01*
X83911960Y-140880231D01*
X83914267Y-140722575D01*
X83914267Y-140237734D01*
X84168267Y-140237734D01*
X84168267Y-141677067D01*
X84065286Y-141677067D01*
X83968324Y-141644391D01*
X83935223Y-141591737D01*
X83908140Y-141506407D01*
X83799661Y-141591737D01*
X83675211Y-141649000D01*
X83510424Y-141675686D01*
X83344919Y-141669059D01*
X83226349Y-141631342D01*
X83148775Y-141568908D01*
X83092961Y-141477394D01*
X83055884Y-141344161D01*
X83034524Y-141156573D01*
X83025859Y-140901993D01*
X83025267Y-140790169D01*
X83025267Y-140237734D01*
X83236933Y-140237734D01*
X83236933Y-140697083D01*
G36*
X83236933Y-140697083D02*
G01*
X83243385Y-140977357D01*
X83264582Y-141184387D01*
X83303285Y-141328744D01*
X83362254Y-141420999D01*
X83438726Y-141469694D01*
X83581016Y-141486602D01*
X83724687Y-141446320D01*
X83836172Y-141361086D01*
X83865696Y-141314017D01*
X83886152Y-141226575D01*
X83902137Y-141075112D01*
X83911960Y-140880231D01*
X83914267Y-140722575D01*
X83914267Y-140237734D01*
X84168267Y-140237734D01*
X84168267Y-141677067D01*
X84065286Y-141677067D01*
X83968324Y-141644391D01*
X83935223Y-141591737D01*
X83908140Y-141506407D01*
X83799661Y-141591737D01*
X83675211Y-141649000D01*
X83510424Y-141675686D01*
X83344919Y-141669059D01*
X83226349Y-141631342D01*
X83148775Y-141568908D01*
X83092961Y-141477394D01*
X83055884Y-141344161D01*
X83034524Y-141156573D01*
X83025859Y-140901993D01*
X83025267Y-140790169D01*
X83025267Y-140237734D01*
X83236933Y-140237734D01*
X83236933Y-140697083D01*
G37*
X109737600Y-113985358D02*
X109739175Y-114205087D01*
X109745586Y-114357854D01*
X109759358Y-114461331D01*
X109783016Y-114533191D01*
X109819089Y-114591106D01*
X109825339Y-114599191D01*
X109933238Y-114688801D01*
X110047589Y-114709387D01*
X110181518Y-114691023D01*
X110280503Y-114632785D01*
X110348904Y-114525361D01*
X110391079Y-114359441D01*
X110411388Y-114125714D01*
X110414933Y-113924811D01*
X110414933Y-113483067D01*
X110626600Y-113483067D01*
X110626600Y-114880067D01*
X110520767Y-114880067D01*
X110438001Y-114860438D01*
X110414933Y-114794133D01*
X110414933Y-114708199D01*
X110297117Y-114795304D01*
X110120037Y-114881351D01*
X109925162Y-114904160D01*
X109757740Y-114865323D01*
X109670990Y-114814150D01*
X109608351Y-114742199D01*
X109566178Y-114636355D01*
X109540825Y-114483507D01*
X109528648Y-114270539D01*
X109525933Y-114031408D01*
X109525933Y-113483067D01*
X109737600Y-113483067D01*
X109737600Y-113985358D01*
G36*
X109737600Y-113985358D02*
G01*
X109739175Y-114205087D01*
X109745586Y-114357854D01*
X109759358Y-114461331D01*
X109783016Y-114533191D01*
X109819089Y-114591106D01*
X109825339Y-114599191D01*
X109933238Y-114688801D01*
X110047589Y-114709387D01*
X110181518Y-114691023D01*
X110280503Y-114632785D01*
X110348904Y-114525361D01*
X110391079Y-114359441D01*
X110411388Y-114125714D01*
X110414933Y-113924811D01*
X110414933Y-113483067D01*
X110626600Y-113483067D01*
X110626600Y-114880067D01*
X110520767Y-114880067D01*
X110438001Y-114860438D01*
X110414933Y-114794133D01*
X110414933Y-114708199D01*
X110297117Y-114795304D01*
X110120037Y-114881351D01*
X109925162Y-114904160D01*
X109757740Y-114865323D01*
X109670990Y-114814150D01*
X109608351Y-114742199D01*
X109566178Y-114636355D01*
X109540825Y-114483507D01*
X109528648Y-114270539D01*
X109525933Y-114031408D01*
X109525933Y-113483067D01*
X109737600Y-113483067D01*
X109737600Y-113985358D01*
G37*
X103212773Y-65865548D02*
X103468722Y-65879070D01*
X103656324Y-65902231D01*
X103791797Y-65940533D01*
X103891360Y-65999476D01*
X103971231Y-66084563D01*
X104006293Y-66134710D01*
X104065551Y-66291248D01*
X104075421Y-66482723D01*
X104034679Y-66674440D01*
X104026097Y-66696381D01*
X103932230Y-66835887D01*
X103780932Y-66931301D01*
X103565631Y-66985399D01*
X103304620Y-67001067D01*
X102964267Y-67001067D01*
X102964267Y-67805400D01*
X102710267Y-67805400D01*
X102710267Y-66789400D01*
X102964267Y-66789400D01*
X103284550Y-66789400D01*
X103450938Y-66784020D01*
X103591489Y-66769839D01*
X103678319Y-66749793D01*
X103683326Y-66747392D01*
X103764262Y-66663076D01*
X103817075Y-66532008D01*
X103830818Y-66390342D01*
X103814876Y-66312937D01*
X103746361Y-66195182D01*
X103638451Y-66119732D01*
X103476699Y-66080112D01*
X103272347Y-66069734D01*
X102964267Y-66069734D01*
X102964267Y-66789400D01*
X102710267Y-66789400D01*
X102710267Y-66069734D01*
X102710267Y-65847631D01*
X103212773Y-65865548D01*
G36*
X103212773Y-65865548D02*
G01*
X103468722Y-65879070D01*
X103656324Y-65902231D01*
X103791797Y-65940533D01*
X103891360Y-65999476D01*
X103971231Y-66084563D01*
X104006293Y-66134710D01*
X104065551Y-66291248D01*
X104075421Y-66482723D01*
X104034679Y-66674440D01*
X104026097Y-66696381D01*
X103932230Y-66835887D01*
X103780932Y-66931301D01*
X103565631Y-66985399D01*
X103304620Y-67001067D01*
X102964267Y-67001067D01*
X102964267Y-67805400D01*
X102710267Y-67805400D01*
X102710267Y-66789400D01*
X102964267Y-66789400D01*
X103284550Y-66789400D01*
X103450938Y-66784020D01*
X103591489Y-66769839D01*
X103678319Y-66749793D01*
X103683326Y-66747392D01*
X103764262Y-66663076D01*
X103817075Y-66532008D01*
X103830818Y-66390342D01*
X103814876Y-66312937D01*
X103746361Y-66195182D01*
X103638451Y-66119732D01*
X103476699Y-66080112D01*
X103272347Y-66069734D01*
X102964267Y-66069734D01*
X102964267Y-66789400D01*
X102710267Y-66789400D01*
X102710267Y-66069734D01*
X102710267Y-65847631D01*
X103212773Y-65865548D01*
G37*
X104575864Y-113469619D02*
X104652652Y-113509766D01*
X104738602Y-113589755D01*
X104799897Y-113699328D01*
X104839873Y-113851743D01*
X104861866Y-114060253D01*
X104869209Y-114338116D01*
X104869267Y-114370707D01*
X104869267Y-114880067D01*
X104615267Y-114880067D01*
X104615267Y-114360320D01*
X104611191Y-114096846D01*
X104596066Y-113906542D01*
X104565544Y-113778177D01*
X104515274Y-113700520D01*
X104440909Y-113662340D01*
X104341162Y-113652400D01*
X104195102Y-113664384D01*
X104088020Y-113707344D01*
X104014341Y-113791789D01*
X103968486Y-113928231D01*
X103944879Y-114127178D01*
X103937943Y-114399142D01*
X103937933Y-114412298D01*
X103937933Y-114880067D01*
X103683933Y-114880067D01*
X103683933Y-113483067D01*
X103810933Y-113483067D01*
X103903306Y-113495898D01*
X103936236Y-113544943D01*
X103937933Y-113571497D01*
X103942274Y-113624134D01*
X103967448Y-113628231D01*
X104031685Y-113580825D01*
X104068181Y-113550330D01*
X104223050Y-113467027D01*
X104403306Y-113439358D01*
X104575864Y-113469619D01*
G36*
X104575864Y-113469619D02*
G01*
X104652652Y-113509766D01*
X104738602Y-113589755D01*
X104799897Y-113699328D01*
X104839873Y-113851743D01*
X104861866Y-114060253D01*
X104869209Y-114338116D01*
X104869267Y-114370707D01*
X104869267Y-114880067D01*
X104615267Y-114880067D01*
X104615267Y-114360320D01*
X104611191Y-114096846D01*
X104596066Y-113906542D01*
X104565544Y-113778177D01*
X104515274Y-113700520D01*
X104440909Y-113662340D01*
X104341162Y-113652400D01*
X104195102Y-113664384D01*
X104088020Y-113707344D01*
X104014341Y-113791789D01*
X103968486Y-113928231D01*
X103944879Y-114127178D01*
X103937943Y-114399142D01*
X103937933Y-114412298D01*
X103937933Y-114880067D01*
X103683933Y-114880067D01*
X103683933Y-113483067D01*
X103810933Y-113483067D01*
X103903306Y-113495898D01*
X103936236Y-113544943D01*
X103937933Y-113571497D01*
X103942274Y-113624134D01*
X103967448Y-113628231D01*
X104031685Y-113580825D01*
X104068181Y-113550330D01*
X104223050Y-113467027D01*
X104403306Y-113439358D01*
X104575864Y-113469619D01*
G37*
X87317056Y-44200099D02*
X87342524Y-44266900D01*
X87343267Y-44292997D01*
X87343267Y-44402593D01*
X87473515Y-44292997D01*
X87603070Y-44212360D01*
X87755726Y-44184124D01*
X87793798Y-44183400D01*
X87956201Y-44194243D01*
X88078391Y-44233370D01*
X88165735Y-44310682D01*
X88223599Y-44436078D01*
X88257350Y-44619459D01*
X88272356Y-44870724D01*
X88274600Y-45070298D01*
X88274600Y-45622734D01*
X88062933Y-45622734D01*
X88062933Y-45155707D01*
X88055865Y-44872933D01*
X88032660Y-44663855D01*
X87990320Y-44518528D01*
X87925845Y-44427006D01*
X87836235Y-44379345D01*
X87828147Y-44377193D01*
X87698356Y-44371273D01*
X87600168Y-44393865D01*
X87509184Y-44443308D01*
X87444113Y-44513651D01*
X87400117Y-44619085D01*
X87372356Y-44773799D01*
X87355989Y-44991984D01*
X87350697Y-45125317D01*
X87343170Y-45336675D01*
X87334859Y-45477653D01*
X87322393Y-45562501D01*
X87302399Y-45605464D01*
X87271505Y-45620791D01*
X87232974Y-45622734D01*
X87131600Y-45622734D01*
X87131600Y-44183400D01*
X87237433Y-44183400D01*
X87317056Y-44200099D01*
G36*
X87317056Y-44200099D02*
G01*
X87342524Y-44266900D01*
X87343267Y-44292997D01*
X87343267Y-44402593D01*
X87473515Y-44292997D01*
X87603070Y-44212360D01*
X87755726Y-44184124D01*
X87793798Y-44183400D01*
X87956201Y-44194243D01*
X88078391Y-44233370D01*
X88165735Y-44310682D01*
X88223599Y-44436078D01*
X88257350Y-44619459D01*
X88272356Y-44870724D01*
X88274600Y-45070298D01*
X88274600Y-45622734D01*
X88062933Y-45622734D01*
X88062933Y-45155707D01*
X88055865Y-44872933D01*
X88032660Y-44663855D01*
X87990320Y-44518528D01*
X87925845Y-44427006D01*
X87836235Y-44379345D01*
X87828147Y-44377193D01*
X87698356Y-44371273D01*
X87600168Y-44393865D01*
X87509184Y-44443308D01*
X87444113Y-44513651D01*
X87400117Y-44619085D01*
X87372356Y-44773799D01*
X87355989Y-44991984D01*
X87350697Y-45125317D01*
X87343170Y-45336675D01*
X87334859Y-45477653D01*
X87322393Y-45562501D01*
X87302399Y-45605464D01*
X87271505Y-45620791D01*
X87232974Y-45622734D01*
X87131600Y-45622734D01*
X87131600Y-44183400D01*
X87237433Y-44183400D01*
X87317056Y-44200099D01*
G37*
X79645731Y-114016069D02*
X79652555Y-114238490D01*
X79661205Y-114392258D01*
X79674654Y-114493377D01*
X79695873Y-114557854D01*
X79727834Y-114601693D01*
X79759706Y-114629902D01*
X79873194Y-114690004D01*
X79977267Y-114710734D01*
X80098012Y-114683809D01*
X80194827Y-114629902D01*
X80236520Y-114591023D01*
X80265300Y-114543206D01*
X80284137Y-114470447D01*
X80296003Y-114356740D01*
X80303870Y-114186080D01*
X80308802Y-114016069D01*
X80322838Y-113483067D01*
X80569933Y-113483067D01*
X80569933Y-114880067D01*
X80442933Y-114880067D01*
X80351021Y-114867623D01*
X80317970Y-114818885D01*
X80315933Y-114788021D01*
X80315933Y-114695975D01*
X80220683Y-114784593D01*
X80091051Y-114859641D01*
X79920961Y-114900085D01*
X79750718Y-114896729D01*
X79739111Y-114894464D01*
X79648047Y-114851046D01*
X79551875Y-114772129D01*
X79548611Y-114768698D01*
X79508358Y-114720752D01*
X79480017Y-114666548D01*
X79461017Y-114590421D01*
X79448787Y-114476707D01*
X79440755Y-114309742D01*
X79434350Y-114073859D01*
X79434317Y-114072453D01*
X79420534Y-113483067D01*
X79631695Y-113483067D01*
X79645731Y-114016069D01*
G36*
X79645731Y-114016069D02*
G01*
X79652555Y-114238490D01*
X79661205Y-114392258D01*
X79674654Y-114493377D01*
X79695873Y-114557854D01*
X79727834Y-114601693D01*
X79759706Y-114629902D01*
X79873194Y-114690004D01*
X79977267Y-114710734D01*
X80098012Y-114683809D01*
X80194827Y-114629902D01*
X80236520Y-114591023D01*
X80265300Y-114543206D01*
X80284137Y-114470447D01*
X80296003Y-114356740D01*
X80303870Y-114186080D01*
X80308802Y-114016069D01*
X80322838Y-113483067D01*
X80569933Y-113483067D01*
X80569933Y-114880067D01*
X80442933Y-114880067D01*
X80351021Y-114867623D01*
X80317970Y-114818885D01*
X80315933Y-114788021D01*
X80315933Y-114695975D01*
X80220683Y-114784593D01*
X80091051Y-114859641D01*
X79920961Y-114900085D01*
X79750718Y-114896729D01*
X79739111Y-114894464D01*
X79648047Y-114851046D01*
X79551875Y-114772129D01*
X79548611Y-114768698D01*
X79508358Y-114720752D01*
X79480017Y-114666548D01*
X79461017Y-114590421D01*
X79448787Y-114476707D01*
X79440755Y-114309742D01*
X79434350Y-114073859D01*
X79434317Y-114072453D01*
X79420534Y-113483067D01*
X79631695Y-113483067D01*
X79645731Y-114016069D01*
G37*
X80769409Y-44211838D02*
X80895656Y-44285466D01*
X80941833Y-44327275D01*
X80974475Y-44370078D01*
X80996326Y-44428787D01*
X81010133Y-44518313D01*
X81018639Y-44653565D01*
X81024591Y-44849456D01*
X81028140Y-45005133D01*
X81041846Y-45622734D01*
X80823933Y-45622734D01*
X80823309Y-45125317D01*
X80818281Y-44861602D01*
X80801465Y-44669396D01*
X80769124Y-44535923D01*
X80717519Y-44448409D01*
X80642913Y-44394079D01*
X80604748Y-44378409D01*
X80455982Y-44366871D01*
X80311096Y-44421881D01*
X80201653Y-44529976D01*
X80186845Y-44556678D01*
X80161793Y-44647294D01*
X80139050Y-44801016D01*
X80121305Y-44996284D01*
X80113285Y-45146484D01*
X80104774Y-45352491D01*
X80095556Y-45488439D01*
X80081981Y-45568882D01*
X80060400Y-45608375D01*
X80027163Y-45621474D01*
X79993864Y-45622734D01*
X79892600Y-45622734D01*
X79892600Y-44183400D01*
X79998433Y-44183400D01*
X80078056Y-44200099D01*
X80103524Y-44266900D01*
X80104267Y-44292997D01*
X80104267Y-44402593D01*
X80234515Y-44292997D01*
X80397670Y-44204820D01*
X80585748Y-44177655D01*
X80769409Y-44211838D01*
G36*
X80769409Y-44211838D02*
G01*
X80895656Y-44285466D01*
X80941833Y-44327275D01*
X80974475Y-44370078D01*
X80996326Y-44428787D01*
X81010133Y-44518313D01*
X81018639Y-44653565D01*
X81024591Y-44849456D01*
X81028140Y-45005133D01*
X81041846Y-45622734D01*
X80823933Y-45622734D01*
X80823309Y-45125317D01*
X80818281Y-44861602D01*
X80801465Y-44669396D01*
X80769124Y-44535923D01*
X80717519Y-44448409D01*
X80642913Y-44394079D01*
X80604748Y-44378409D01*
X80455982Y-44366871D01*
X80311096Y-44421881D01*
X80201653Y-44529976D01*
X80186845Y-44556678D01*
X80161793Y-44647294D01*
X80139050Y-44801016D01*
X80121305Y-44996284D01*
X80113285Y-45146484D01*
X80104774Y-45352491D01*
X80095556Y-45488439D01*
X80081981Y-45568882D01*
X80060400Y-45608375D01*
X80027163Y-45621474D01*
X79993864Y-45622734D01*
X79892600Y-45622734D01*
X79892600Y-44183400D01*
X79998433Y-44183400D01*
X80078056Y-44200099D01*
X80103524Y-44266900D01*
X80104267Y-44292997D01*
X80104267Y-44402593D01*
X80234515Y-44292997D01*
X80397670Y-44204820D01*
X80585748Y-44177655D01*
X80769409Y-44211838D01*
G37*
X85285994Y-44200885D02*
X85310820Y-44269730D01*
X85311267Y-44289234D01*
X85317872Y-44368882D01*
X85330509Y-44395067D01*
X85370173Y-44368183D01*
X85442494Y-44302180D01*
X85455585Y-44289234D01*
X85542968Y-44221356D01*
X85648639Y-44189988D01*
X85778265Y-44183400D01*
X85922604Y-44191879D01*
X86021458Y-44226586D01*
X86113109Y-44301432D01*
X86118856Y-44307144D01*
X86242600Y-44430887D01*
X86242600Y-45622734D01*
X86030933Y-45622734D01*
X86030933Y-45091643D01*
X86030069Y-44869955D01*
X86025658Y-44716250D01*
X86014969Y-44613843D01*
X85995272Y-44546056D01*
X85963840Y-44496205D01*
X85927024Y-44456643D01*
X85792086Y-44369575D01*
X85648942Y-44366068D01*
X85503659Y-44446226D01*
X85500153Y-44449217D01*
X85421176Y-44545861D01*
X85365780Y-44685931D01*
X85331308Y-44881145D01*
X85315099Y-45143223D01*
X85313110Y-45273484D01*
X85311142Y-45444617D01*
X85303963Y-45548097D01*
X85286330Y-45600934D01*
X85252998Y-45620141D01*
X85205433Y-45622734D01*
X85099600Y-45622734D01*
X85099600Y-44183400D01*
X85205433Y-44183400D01*
X85285994Y-44200885D01*
G36*
X85285994Y-44200885D02*
G01*
X85310820Y-44269730D01*
X85311267Y-44289234D01*
X85317872Y-44368882D01*
X85330509Y-44395067D01*
X85370173Y-44368183D01*
X85442494Y-44302180D01*
X85455585Y-44289234D01*
X85542968Y-44221356D01*
X85648639Y-44189988D01*
X85778265Y-44183400D01*
X85922604Y-44191879D01*
X86021458Y-44226586D01*
X86113109Y-44301432D01*
X86118856Y-44307144D01*
X86242600Y-44430887D01*
X86242600Y-45622734D01*
X86030933Y-45622734D01*
X86030933Y-45091643D01*
X86030069Y-44869955D01*
X86025658Y-44716250D01*
X86014969Y-44613843D01*
X85995272Y-44546056D01*
X85963840Y-44496205D01*
X85927024Y-44456643D01*
X85792086Y-44369575D01*
X85648942Y-44366068D01*
X85503659Y-44446226D01*
X85500153Y-44449217D01*
X85421176Y-44545861D01*
X85365780Y-44685931D01*
X85331308Y-44881145D01*
X85315099Y-45143223D01*
X85313110Y-45273484D01*
X85311142Y-45444617D01*
X85303963Y-45548097D01*
X85286330Y-45600934D01*
X85252998Y-45620141D01*
X85205433Y-45622734D01*
X85099600Y-45622734D01*
X85099600Y-44183400D01*
X85205433Y-44183400D01*
X85285994Y-44200885D01*
G37*
X85725703Y-140249066D02*
X85883239Y-140326334D01*
X85928543Y-140368403D01*
X85961259Y-140414097D01*
X85984735Y-140477138D01*
X86000972Y-140572245D01*
X86011966Y-140714141D01*
X86019719Y-140917546D01*
X86023473Y-141067543D01*
X86037179Y-141677067D01*
X85819267Y-141677067D01*
X85819267Y-141145976D01*
X85818403Y-140924289D01*
X85813991Y-140770583D01*
X85803302Y-140668177D01*
X85783606Y-140600389D01*
X85752173Y-140550538D01*
X85715357Y-140510976D01*
X85589008Y-140424320D01*
X85451036Y-140415783D01*
X85342727Y-140452413D01*
X85257617Y-140503730D01*
X85196602Y-140577239D01*
X85155080Y-140687175D01*
X85128447Y-140847772D01*
X85112101Y-141073266D01*
X85107603Y-141179650D01*
X85099162Y-141391009D01*
X85090197Y-141531994D01*
X85077298Y-141616848D01*
X85057057Y-141659815D01*
X85026064Y-141675138D01*
X84988549Y-141677067D01*
X84887933Y-141677067D01*
X84887933Y-140237734D01*
X84993767Y-140237734D01*
X85072511Y-140253721D01*
X85098531Y-140318592D01*
X85099600Y-140350946D01*
X85099600Y-140464159D01*
X85201341Y-140368577D01*
X85358832Y-140270194D01*
X85542259Y-140230355D01*
X85725703Y-140249066D01*
G36*
X85725703Y-140249066D02*
G01*
X85883239Y-140326334D01*
X85928543Y-140368403D01*
X85961259Y-140414097D01*
X85984735Y-140477138D01*
X86000972Y-140572245D01*
X86011966Y-140714141D01*
X86019719Y-140917546D01*
X86023473Y-141067543D01*
X86037179Y-141677067D01*
X85819267Y-141677067D01*
X85819267Y-141145976D01*
X85818403Y-140924289D01*
X85813991Y-140770583D01*
X85803302Y-140668177D01*
X85783606Y-140600389D01*
X85752173Y-140550538D01*
X85715357Y-140510976D01*
X85589008Y-140424320D01*
X85451036Y-140415783D01*
X85342727Y-140452413D01*
X85257617Y-140503730D01*
X85196602Y-140577239D01*
X85155080Y-140687175D01*
X85128447Y-140847772D01*
X85112101Y-141073266D01*
X85107603Y-141179650D01*
X85099162Y-141391009D01*
X85090197Y-141531994D01*
X85077298Y-141616848D01*
X85057057Y-141659815D01*
X85026064Y-141675138D01*
X84988549Y-141677067D01*
X84887933Y-141677067D01*
X84887933Y-140237734D01*
X84993767Y-140237734D01*
X85072511Y-140253721D01*
X85098531Y-140318592D01*
X85099600Y-140350946D01*
X85099600Y-140464159D01*
X85201341Y-140368577D01*
X85358832Y-140270194D01*
X85542259Y-140230355D01*
X85725703Y-140249066D01*
G37*
X80273097Y-66396417D02*
X80462753Y-66485748D01*
X80609060Y-66638144D01*
X80703914Y-66845037D01*
X80739208Y-67097860D01*
X80739267Y-67109212D01*
X80706248Y-67343853D01*
X80615518Y-67544353D01*
X80479560Y-67702063D01*
X80310860Y-67808336D01*
X80121904Y-67854524D01*
X79925177Y-67831978D01*
X79786767Y-67768970D01*
X79599399Y-67607534D01*
X79478786Y-67404125D01*
X79428718Y-67173376D01*
X79445073Y-67009311D01*
X79685052Y-67009311D01*
X79686845Y-67207264D01*
X79732131Y-67388233D01*
X79772950Y-67464937D01*
X79902810Y-67595639D01*
X80054033Y-67651700D01*
X80210358Y-67631407D01*
X80355520Y-67533049D01*
X80361437Y-67526858D01*
X80450759Y-67376195D01*
X80492120Y-67184860D01*
X80485703Y-66981828D01*
X80431686Y-66796075D01*
X80356162Y-66681326D01*
X80222911Y-66595763D01*
X80062884Y-66572883D01*
X79906000Y-66612491D01*
X79806648Y-66684934D01*
X79725427Y-66824995D01*
X79685052Y-67009311D01*
X79445073Y-67009311D01*
X79452988Y-66929919D01*
X79522183Y-66747932D01*
X79650694Y-66556716D01*
X79809954Y-66438267D01*
X80014754Y-66382204D01*
X80048196Y-66378717D01*
X80273097Y-66396417D01*
G36*
X80273097Y-66396417D02*
G01*
X80462753Y-66485748D01*
X80609060Y-66638144D01*
X80703914Y-66845037D01*
X80739208Y-67097860D01*
X80739267Y-67109212D01*
X80706248Y-67343853D01*
X80615518Y-67544353D01*
X80479560Y-67702063D01*
X80310860Y-67808336D01*
X80121904Y-67854524D01*
X79925177Y-67831978D01*
X79786767Y-67768970D01*
X79599399Y-67607534D01*
X79478786Y-67404125D01*
X79428718Y-67173376D01*
X79445073Y-67009311D01*
X79685052Y-67009311D01*
X79686845Y-67207264D01*
X79732131Y-67388233D01*
X79772950Y-67464937D01*
X79902810Y-67595639D01*
X80054033Y-67651700D01*
X80210358Y-67631407D01*
X80355520Y-67533049D01*
X80361437Y-67526858D01*
X80450759Y-67376195D01*
X80492120Y-67184860D01*
X80485703Y-66981828D01*
X80431686Y-66796075D01*
X80356162Y-66681326D01*
X80222911Y-66595763D01*
X80062884Y-66572883D01*
X79906000Y-66612491D01*
X79806648Y-66684934D01*
X79725427Y-66824995D01*
X79685052Y-67009311D01*
X79445073Y-67009311D01*
X79452988Y-66929919D01*
X79522183Y-66747932D01*
X79650694Y-66556716D01*
X79809954Y-66438267D01*
X80014754Y-66382204D01*
X80048196Y-66378717D01*
X80273097Y-66396417D01*
G37*
X108381676Y-135152425D02*
X108527386Y-135260202D01*
X108625482Y-135433789D01*
X108663775Y-135595752D01*
X108658591Y-135800819D01*
X108592637Y-135974618D01*
X108479863Y-136108390D01*
X108334218Y-136193374D01*
X108169651Y-136220813D01*
X108000111Y-136181945D01*
X107868174Y-136095360D01*
X107788632Y-136013206D01*
X107744736Y-135926907D01*
X107723161Y-135803813D01*
X107717005Y-135724943D01*
X107723939Y-135611335D01*
X107878657Y-135611335D01*
X107884595Y-135696997D01*
X107925192Y-135892647D01*
X108003948Y-136022714D01*
X108112739Y-136082345D01*
X108243439Y-136066689D01*
X108369989Y-135986899D01*
X108442999Y-135910828D01*
X108478319Y-135825087D01*
X108488599Y-135695477D01*
X108488767Y-135665734D01*
X108481569Y-135524930D01*
X108451543Y-135433980D01*
X108386043Y-135358685D01*
X108369989Y-135344568D01*
X108236064Y-135260004D01*
X108115091Y-135255974D01*
X107993175Y-135332713D01*
X107973854Y-135351297D01*
X107911052Y-135424550D01*
X107882057Y-135500625D01*
X107878657Y-135611335D01*
X107723939Y-135611335D01*
X107731422Y-135488741D01*
X107805318Y-135305494D01*
X107934298Y-135180828D01*
X108113968Y-135120370D01*
X108193197Y-135115400D01*
X108381676Y-135152425D01*
G36*
X108381676Y-135152425D02*
G01*
X108527386Y-135260202D01*
X108625482Y-135433789D01*
X108663775Y-135595752D01*
X108658591Y-135800819D01*
X108592637Y-135974618D01*
X108479863Y-136108390D01*
X108334218Y-136193374D01*
X108169651Y-136220813D01*
X108000111Y-136181945D01*
X107868174Y-136095360D01*
X107788632Y-136013206D01*
X107744736Y-135926907D01*
X107723161Y-135803813D01*
X107717005Y-135724943D01*
X107723939Y-135611335D01*
X107878657Y-135611335D01*
X107884595Y-135696997D01*
X107925192Y-135892647D01*
X108003948Y-136022714D01*
X108112739Y-136082345D01*
X108243439Y-136066689D01*
X108369989Y-135986899D01*
X108442999Y-135910828D01*
X108478319Y-135825087D01*
X108488599Y-135695477D01*
X108488767Y-135665734D01*
X108481569Y-135524930D01*
X108451543Y-135433980D01*
X108386043Y-135358685D01*
X108369989Y-135344568D01*
X108236064Y-135260004D01*
X108115091Y-135255974D01*
X107993175Y-135332713D01*
X107973854Y-135351297D01*
X107911052Y-135424550D01*
X107882057Y-135500625D01*
X107878657Y-135611335D01*
X107723939Y-135611335D01*
X107731422Y-135488741D01*
X107805318Y-135305494D01*
X107934298Y-135180828D01*
X108113968Y-135120370D01*
X108193197Y-135115400D01*
X108381676Y-135152425D01*
G37*
X81989831Y-140256101D02*
X82171954Y-140357721D01*
X82301055Y-140522817D01*
X82374095Y-140747894D01*
X82390267Y-140948259D01*
X82372757Y-141177878D01*
X82313534Y-141355153D01*
X82202553Y-141506262D01*
X82160088Y-141548148D01*
X82030597Y-141622149D01*
X81854308Y-141664595D01*
X81663978Y-141672910D01*
X81492363Y-141644516D01*
X81409483Y-141607192D01*
X81260508Y-141463449D01*
X81159184Y-141262343D01*
X81113566Y-141021344D01*
X81111800Y-140961299D01*
X81115159Y-140933408D01*
X81331933Y-140933408D01*
X81359683Y-141142646D01*
X81434888Y-141311661D01*
X81545477Y-141432356D01*
X81679382Y-141496632D01*
X81824534Y-141496392D01*
X81968863Y-141423538D01*
X82008897Y-141387616D01*
X82113700Y-141229945D01*
X82163859Y-141038178D01*
X82160188Y-140836993D01*
X82103503Y-140651069D01*
X81994619Y-140505085D01*
X81979326Y-140492395D01*
X81827380Y-140416694D01*
X81675335Y-140415494D01*
X81536535Y-140479708D01*
X81424323Y-140600243D01*
X81352045Y-140768011D01*
X81331933Y-140933408D01*
X81115159Y-140933408D01*
X81143510Y-140698009D01*
X81235111Y-140486511D01*
X81381305Y-140332871D01*
X81576798Y-140243155D01*
X81757729Y-140221451D01*
X81989831Y-140256101D01*
G36*
X81989831Y-140256101D02*
G01*
X82171954Y-140357721D01*
X82301055Y-140522817D01*
X82374095Y-140747894D01*
X82390267Y-140948259D01*
X82372757Y-141177878D01*
X82313534Y-141355153D01*
X82202553Y-141506262D01*
X82160088Y-141548148D01*
X82030597Y-141622149D01*
X81854308Y-141664595D01*
X81663978Y-141672910D01*
X81492363Y-141644516D01*
X81409483Y-141607192D01*
X81260508Y-141463449D01*
X81159184Y-141262343D01*
X81113566Y-141021344D01*
X81111800Y-140961299D01*
X81115159Y-140933408D01*
X81331933Y-140933408D01*
X81359683Y-141142646D01*
X81434888Y-141311661D01*
X81545477Y-141432356D01*
X81679382Y-141496632D01*
X81824534Y-141496392D01*
X81968863Y-141423538D01*
X82008897Y-141387616D01*
X82113700Y-141229945D01*
X82163859Y-141038178D01*
X82160188Y-140836993D01*
X82103503Y-140651069D01*
X81994619Y-140505085D01*
X81979326Y-140492395D01*
X81827380Y-140416694D01*
X81675335Y-140415494D01*
X81536535Y-140479708D01*
X81424323Y-140600243D01*
X81352045Y-140768011D01*
X81331933Y-140933408D01*
X81115159Y-140933408D01*
X81143510Y-140698009D01*
X81235111Y-140486511D01*
X81381305Y-140332871D01*
X81576798Y-140243155D01*
X81757729Y-140221451D01*
X81989831Y-140256101D01*
G37*
X82098534Y-113458537D02*
X82200949Y-113491309D01*
X82288010Y-113544100D01*
X82350889Y-113619673D01*
X82393176Y-113730989D01*
X82418462Y-113891010D01*
X82430336Y-114112697D01*
X82432600Y-114327631D01*
X82432600Y-114880067D01*
X82220933Y-114880067D01*
X82220309Y-114382650D01*
X82214978Y-114130399D01*
X82200361Y-113935184D01*
X82177479Y-113808536D01*
X82167054Y-113781229D01*
X82074827Y-113680369D01*
X81945801Y-113638829D01*
X81803019Y-113656036D01*
X81669526Y-113731418D01*
X81610179Y-113795082D01*
X81570572Y-113860329D01*
X81543373Y-113942701D01*
X81525474Y-114060396D01*
X81513766Y-114231609D01*
X81507493Y-114396053D01*
X81500274Y-114604044D01*
X81492032Y-114741847D01*
X81479290Y-114823907D01*
X81458565Y-114864667D01*
X81426377Y-114878572D01*
X81390864Y-114880067D01*
X81289600Y-114880067D01*
X81289600Y-113483067D01*
X81395433Y-113483067D01*
X81478424Y-113502910D01*
X81501267Y-113567734D01*
X81518995Y-113636524D01*
X81543600Y-113652400D01*
X81584711Y-113620981D01*
X81585933Y-113611154D01*
X81622874Y-113559176D01*
X81714819Y-113504955D01*
X81833455Y-113461293D01*
X81950468Y-113440992D01*
X81962839Y-113440734D01*
X82098534Y-113458537D01*
G36*
X82098534Y-113458537D02*
G01*
X82200949Y-113491309D01*
X82288010Y-113544100D01*
X82350889Y-113619673D01*
X82393176Y-113730989D01*
X82418462Y-113891010D01*
X82430336Y-114112697D01*
X82432600Y-114327631D01*
X82432600Y-114880067D01*
X82220933Y-114880067D01*
X82220309Y-114382650D01*
X82214978Y-114130399D01*
X82200361Y-113935184D01*
X82177479Y-113808536D01*
X82167054Y-113781229D01*
X82074827Y-113680369D01*
X81945801Y-113638829D01*
X81803019Y-113656036D01*
X81669526Y-113731418D01*
X81610179Y-113795082D01*
X81570572Y-113860329D01*
X81543373Y-113942701D01*
X81525474Y-114060396D01*
X81513766Y-114231609D01*
X81507493Y-114396053D01*
X81500274Y-114604044D01*
X81492032Y-114741847D01*
X81479290Y-114823907D01*
X81458565Y-114864667D01*
X81426377Y-114878572D01*
X81390864Y-114880067D01*
X81289600Y-114880067D01*
X81289600Y-113483067D01*
X81395433Y-113483067D01*
X81478424Y-113502910D01*
X81501267Y-113567734D01*
X81518995Y-113636524D01*
X81543600Y-113652400D01*
X81584711Y-113620981D01*
X81585933Y-113611154D01*
X81622874Y-113559176D01*
X81714819Y-113504955D01*
X81833455Y-113461293D01*
X81950468Y-113440992D01*
X81962839Y-113440734D01*
X82098534Y-113458537D01*
G37*
X87715948Y-113450685D02*
X87912313Y-113525868D01*
X88070869Y-113663366D01*
X88149131Y-113790858D01*
X88221109Y-114027148D01*
X88228051Y-114256323D01*
X88178238Y-114467652D01*
X88079951Y-114650406D01*
X87941468Y-114793854D01*
X87771069Y-114887266D01*
X87577034Y-114919913D01*
X87367644Y-114881063D01*
X87322100Y-114862641D01*
X87150467Y-114744870D01*
X87026911Y-114576895D01*
X86952018Y-114376084D01*
X86939896Y-114273827D01*
X87180444Y-114273827D01*
X87218375Y-114452476D01*
X87296097Y-114596490D01*
X87375016Y-114665009D01*
X87533160Y-114711681D01*
X87700140Y-114686029D01*
X87848970Y-114592443D01*
X87854523Y-114586990D01*
X87945666Y-114444913D01*
X87988993Y-114266155D01*
X87986879Y-114074396D01*
X87941698Y-113893318D01*
X87855824Y-113746602D01*
X87762739Y-113671570D01*
X87626589Y-113618361D01*
X87507460Y-113622356D01*
X87410799Y-113658266D01*
X87297481Y-113752763D01*
X87220789Y-113901702D01*
X87181513Y-114082813D01*
X87180444Y-114273827D01*
X86939896Y-114273827D01*
X86926378Y-114159805D01*
X86950578Y-113945427D01*
X87025207Y-113750317D01*
X87150852Y-113591845D01*
X87276248Y-113508740D01*
X87498389Y-113443186D01*
X87715948Y-113450685D01*
G36*
X87715948Y-113450685D02*
G01*
X87912313Y-113525868D01*
X88070869Y-113663366D01*
X88149131Y-113790858D01*
X88221109Y-114027148D01*
X88228051Y-114256323D01*
X88178238Y-114467652D01*
X88079951Y-114650406D01*
X87941468Y-114793854D01*
X87771069Y-114887266D01*
X87577034Y-114919913D01*
X87367644Y-114881063D01*
X87322100Y-114862641D01*
X87150467Y-114744870D01*
X87026911Y-114576895D01*
X86952018Y-114376084D01*
X86939896Y-114273827D01*
X87180444Y-114273827D01*
X87218375Y-114452476D01*
X87296097Y-114596490D01*
X87375016Y-114665009D01*
X87533160Y-114711681D01*
X87700140Y-114686029D01*
X87848970Y-114592443D01*
X87854523Y-114586990D01*
X87945666Y-114444913D01*
X87988993Y-114266155D01*
X87986879Y-114074396D01*
X87941698Y-113893318D01*
X87855824Y-113746602D01*
X87762739Y-113671570D01*
X87626589Y-113618361D01*
X87507460Y-113622356D01*
X87410799Y-113658266D01*
X87297481Y-113752763D01*
X87220789Y-113901702D01*
X87181513Y-114082813D01*
X87180444Y-114273827D01*
X86939896Y-114273827D01*
X86926378Y-114159805D01*
X86950578Y-113945427D01*
X87025207Y-113750317D01*
X87150852Y-113591845D01*
X87276248Y-113508740D01*
X87498389Y-113443186D01*
X87715948Y-113450685D01*
G37*
X89676201Y-113458537D02*
X89778616Y-113491309D01*
X89865677Y-113544100D01*
X89928556Y-113619673D01*
X89970843Y-113730989D01*
X89996128Y-113891010D01*
X90008002Y-114112697D01*
X90010267Y-114327631D01*
X90010267Y-114880067D01*
X89798600Y-114880067D01*
X89798600Y-114395225D01*
X89794408Y-114184453D01*
X89782974Y-114000297D01*
X89766011Y-113863760D01*
X89750431Y-113804666D01*
X89660432Y-113694949D01*
X89532619Y-113644762D01*
X89389820Y-113654546D01*
X89254860Y-113724742D01*
X89188795Y-113793811D01*
X89148841Y-113859176D01*
X89121434Y-113940816D01*
X89103430Y-114057012D01*
X89091681Y-114226047D01*
X89085160Y-114396053D01*
X89077940Y-114604044D01*
X89069699Y-114741847D01*
X89056956Y-114823907D01*
X89036231Y-114864667D01*
X89004044Y-114878572D01*
X88968531Y-114880067D01*
X88867267Y-114880067D01*
X88867267Y-113483067D01*
X88973100Y-113483067D01*
X89056090Y-113502910D01*
X89078933Y-113567734D01*
X89096661Y-113636524D01*
X89121267Y-113652400D01*
X89162378Y-113620981D01*
X89163600Y-113611154D01*
X89200540Y-113559176D01*
X89292486Y-113504955D01*
X89411122Y-113461293D01*
X89528134Y-113440992D01*
X89540506Y-113440734D01*
X89676201Y-113458537D01*
G36*
X89676201Y-113458537D02*
G01*
X89778616Y-113491309D01*
X89865677Y-113544100D01*
X89928556Y-113619673D01*
X89970843Y-113730989D01*
X89996128Y-113891010D01*
X90008002Y-114112697D01*
X90010267Y-114327631D01*
X90010267Y-114880067D01*
X89798600Y-114880067D01*
X89798600Y-114395225D01*
X89794408Y-114184453D01*
X89782974Y-114000297D01*
X89766011Y-113863760D01*
X89750431Y-113804666D01*
X89660432Y-113694949D01*
X89532619Y-113644762D01*
X89389820Y-113654546D01*
X89254860Y-113724742D01*
X89188795Y-113793811D01*
X89148841Y-113859176D01*
X89121434Y-113940816D01*
X89103430Y-114057012D01*
X89091681Y-114226047D01*
X89085160Y-114396053D01*
X89077940Y-114604044D01*
X89069699Y-114741847D01*
X89056956Y-114823907D01*
X89036231Y-114864667D01*
X89004044Y-114878572D01*
X88968531Y-114880067D01*
X88867267Y-114880067D01*
X88867267Y-113483067D01*
X88973100Y-113483067D01*
X89056090Y-113502910D01*
X89078933Y-113567734D01*
X89096661Y-113636524D01*
X89121267Y-113652400D01*
X89162378Y-113620981D01*
X89163600Y-113611154D01*
X89200540Y-113559176D01*
X89292486Y-113504955D01*
X89411122Y-113461293D01*
X89528134Y-113440992D01*
X89540506Y-113440734D01*
X89676201Y-113458537D01*
G37*
X108707191Y-65776207D02*
X108738124Y-65795216D01*
X108755092Y-65846313D01*
X108762289Y-65945381D01*
X108763908Y-66108304D01*
X108763933Y-66174291D01*
X108763933Y-66575182D01*
X108918007Y-66470624D01*
X109112655Y-66377947D01*
X109298152Y-66368510D01*
X109470854Y-66442087D01*
X109551333Y-66510000D01*
X109695267Y-66653934D01*
X109695267Y-67805400D01*
X109592886Y-67805400D01*
X109550270Y-67802940D01*
X109521079Y-67786308D01*
X109502235Y-67741631D01*
X109490659Y-67655031D01*
X109483275Y-67512635D01*
X109477005Y-67300567D01*
X109476469Y-67280542D01*
X109468580Y-67052600D01*
X109457570Y-66893242D01*
X109440960Y-66786386D01*
X109416269Y-66715953D01*
X109381789Y-66666709D01*
X109261704Y-66591327D01*
X109114124Y-66577135D01*
X108968916Y-66623049D01*
X108890005Y-66684555D01*
X108846804Y-66737349D01*
X108817057Y-66798663D01*
X108797405Y-66885904D01*
X108784490Y-67016481D01*
X108774952Y-67207805D01*
X108771575Y-67298388D01*
X108763376Y-67512135D01*
X108754671Y-67655370D01*
X108742156Y-67742205D01*
X108722527Y-67786748D01*
X108692482Y-67803109D01*
X108652882Y-67805400D01*
X108552267Y-67805400D01*
X108552267Y-65773400D01*
X108658100Y-65773400D01*
X108707191Y-65776207D01*
G36*
X108707191Y-65776207D02*
G01*
X108738124Y-65795216D01*
X108755092Y-65846313D01*
X108762289Y-65945381D01*
X108763908Y-66108304D01*
X108763933Y-66174291D01*
X108763933Y-66575182D01*
X108918007Y-66470624D01*
X109112655Y-66377947D01*
X109298152Y-66368510D01*
X109470854Y-66442087D01*
X109551333Y-66510000D01*
X109695267Y-66653934D01*
X109695267Y-67805400D01*
X109592886Y-67805400D01*
X109550270Y-67802940D01*
X109521079Y-67786308D01*
X109502235Y-67741631D01*
X109490659Y-67655031D01*
X109483275Y-67512635D01*
X109477005Y-67300567D01*
X109476469Y-67280542D01*
X109468580Y-67052600D01*
X109457570Y-66893242D01*
X109440960Y-66786386D01*
X109416269Y-66715953D01*
X109381789Y-66666709D01*
X109261704Y-66591327D01*
X109114124Y-66577135D01*
X108968916Y-66623049D01*
X108890005Y-66684555D01*
X108846804Y-66737349D01*
X108817057Y-66798663D01*
X108797405Y-66885904D01*
X108784490Y-67016481D01*
X108774952Y-67207805D01*
X108771575Y-67298388D01*
X108763376Y-67512135D01*
X108754671Y-67655370D01*
X108742156Y-67742205D01*
X108722527Y-67786748D01*
X108692482Y-67803109D01*
X108652882Y-67805400D01*
X108552267Y-67805400D01*
X108552267Y-65773400D01*
X108658100Y-65773400D01*
X108707191Y-65776207D01*
G37*
X82445398Y-66410858D02*
X82475000Y-66427440D01*
X82494555Y-66471955D01*
X82507288Y-66558212D01*
X82516429Y-66700023D01*
X82525204Y-66911197D01*
X82526224Y-66937641D01*
X82540045Y-67197828D01*
X82562062Y-67385005D01*
X82597840Y-67510789D01*
X82652944Y-67586796D01*
X82732940Y-67624641D01*
X82843394Y-67635942D01*
X82860845Y-67636067D01*
X82988189Y-67618990D01*
X83084990Y-67562073D01*
X83154728Y-67456787D01*
X83200884Y-67294601D01*
X83226938Y-67066987D01*
X83236371Y-66765415D01*
X83236565Y-66715317D01*
X83238191Y-66557132D01*
X83246778Y-66465477D01*
X83268601Y-66422218D01*
X83309936Y-66409220D01*
X83342767Y-66408400D01*
X83448600Y-66408400D01*
X83448600Y-67805400D01*
X83342767Y-67805400D01*
X83259534Y-67785326D01*
X83236933Y-67722009D01*
X83231817Y-67674001D01*
X83203951Y-67668637D01*
X83134555Y-67708497D01*
X83082859Y-67743176D01*
X82891131Y-67828616D01*
X82691487Y-67838090D01*
X82580767Y-67807713D01*
X82489193Y-67750320D01*
X82411433Y-67679089D01*
X82376927Y-67631913D01*
X82352397Y-67569514D01*
X82335641Y-67476632D01*
X82324458Y-67338009D01*
X82316647Y-67138386D01*
X82312983Y-66996759D01*
X82299200Y-66408400D01*
X82402518Y-66408400D01*
X82445398Y-66410858D01*
G36*
X82445398Y-66410858D02*
G01*
X82475000Y-66427440D01*
X82494555Y-66471955D01*
X82507288Y-66558212D01*
X82516429Y-66700023D01*
X82525204Y-66911197D01*
X82526224Y-66937641D01*
X82540045Y-67197828D01*
X82562062Y-67385005D01*
X82597840Y-67510789D01*
X82652944Y-67586796D01*
X82732940Y-67624641D01*
X82843394Y-67635942D01*
X82860845Y-67636067D01*
X82988189Y-67618990D01*
X83084990Y-67562073D01*
X83154728Y-67456787D01*
X83200884Y-67294601D01*
X83226938Y-67066987D01*
X83236371Y-66765415D01*
X83236565Y-66715317D01*
X83238191Y-66557132D01*
X83246778Y-66465477D01*
X83268601Y-66422218D01*
X83309936Y-66409220D01*
X83342767Y-66408400D01*
X83448600Y-66408400D01*
X83448600Y-67805400D01*
X83342767Y-67805400D01*
X83259534Y-67785326D01*
X83236933Y-67722009D01*
X83231817Y-67674001D01*
X83203951Y-67668637D01*
X83134555Y-67708497D01*
X83082859Y-67743176D01*
X82891131Y-67828616D01*
X82691487Y-67838090D01*
X82580767Y-67807713D01*
X82489193Y-67750320D01*
X82411433Y-67679089D01*
X82376927Y-67631913D01*
X82352397Y-67569514D01*
X82335641Y-67476632D01*
X82324458Y-67338009D01*
X82316647Y-67138386D01*
X82312983Y-66996759D01*
X82299200Y-66408400D01*
X82402518Y-66408400D01*
X82445398Y-66410858D01*
G37*
X109264198Y-122480745D02*
X109395751Y-122558374D01*
X109502885Y-122665523D01*
X109562704Y-122776985D01*
X109568267Y-122815465D01*
X109539943Y-122843970D01*
X109469945Y-122826369D01*
X109380729Y-122771834D01*
X109314267Y-122711734D01*
X109169398Y-122610509D01*
X109006170Y-122580803D01*
X108843608Y-122618171D01*
X108700734Y-122718164D01*
X108596574Y-122876335D01*
X108595106Y-122879846D01*
X108560813Y-123035249D01*
X108560468Y-123224579D01*
X108590535Y-123412353D01*
X108647477Y-123563092D01*
X108666036Y-123591557D01*
X108800623Y-123709159D01*
X108964173Y-123760345D01*
X109133382Y-123744080D01*
X109284947Y-123659328D01*
X109323156Y-123620779D01*
X109404586Y-123552962D01*
X109489340Y-123517862D01*
X109551686Y-123522366D01*
X109568267Y-123555152D01*
X109539216Y-123620854D01*
X109468609Y-123711917D01*
X109381258Y-123801133D01*
X109301980Y-123861297D01*
X109280657Y-123870477D01*
X109067209Y-123912973D01*
X108888674Y-123904984D01*
X108785100Y-123876266D01*
X108585238Y-123763813D01*
X108445025Y-123591654D01*
X108385140Y-123441914D01*
X108350769Y-123289961D01*
X108345791Y-123159205D01*
X108371549Y-123012073D01*
X108404796Y-122891927D01*
X108506628Y-122678169D01*
X108659861Y-122526141D01*
X108852301Y-122441676D01*
X109071757Y-122430608D01*
X109264198Y-122480745D01*
G36*
X109264198Y-122480745D02*
G01*
X109395751Y-122558374D01*
X109502885Y-122665523D01*
X109562704Y-122776985D01*
X109568267Y-122815465D01*
X109539943Y-122843970D01*
X109469945Y-122826369D01*
X109380729Y-122771834D01*
X109314267Y-122711734D01*
X109169398Y-122610509D01*
X109006170Y-122580803D01*
X108843608Y-122618171D01*
X108700734Y-122718164D01*
X108596574Y-122876335D01*
X108595106Y-122879846D01*
X108560813Y-123035249D01*
X108560468Y-123224579D01*
X108590535Y-123412353D01*
X108647477Y-123563092D01*
X108666036Y-123591557D01*
X108800623Y-123709159D01*
X108964173Y-123760345D01*
X109133382Y-123744080D01*
X109284947Y-123659328D01*
X109323156Y-123620779D01*
X109404586Y-123552962D01*
X109489340Y-123517862D01*
X109551686Y-123522366D01*
X109568267Y-123555152D01*
X109539216Y-123620854D01*
X109468609Y-123711917D01*
X109381258Y-123801133D01*
X109301980Y-123861297D01*
X109280657Y-123870477D01*
X109067209Y-123912973D01*
X108888674Y-123904984D01*
X108785100Y-123876266D01*
X108585238Y-123763813D01*
X108445025Y-123591654D01*
X108385140Y-123441914D01*
X108350769Y-123289961D01*
X108345791Y-123159205D01*
X108371549Y-123012073D01*
X108404796Y-122891927D01*
X108506628Y-122678169D01*
X108659861Y-122526141D01*
X108852301Y-122441676D01*
X109071757Y-122430608D01*
X109264198Y-122480745D01*
G37*
X111642890Y-113066930D02*
X111673557Y-113102924D01*
X111683990Y-113189324D01*
X111684933Y-113271400D01*
X111684933Y-113483067D01*
X111854267Y-113483067D01*
X111965051Y-113490167D01*
X112014013Y-113518864D01*
X112023600Y-113567734D01*
X112009400Y-113623126D01*
X111952005Y-113647607D01*
X111854267Y-113652400D01*
X111684933Y-113652400D01*
X111684933Y-114130767D01*
X111688059Y-114364572D01*
X111700339Y-114526530D01*
X111726123Y-114629324D01*
X111769763Y-114685639D01*
X111835610Y-114708158D01*
X111883900Y-114710734D01*
X111961184Y-114737745D01*
X111982804Y-114798634D01*
X111948414Y-114863181D01*
X111886017Y-114895718D01*
X111768181Y-114917106D01*
X111670001Y-114902213D01*
X111642600Y-114893022D01*
X111576212Y-114858735D01*
X111529444Y-114802171D01*
X111499045Y-114709915D01*
X111481762Y-114568553D01*
X111474341Y-114364670D01*
X111473267Y-114194642D01*
X111473267Y-113652400D01*
X111346267Y-113652400D01*
X111252777Y-113638681D01*
X111220271Y-113588720D01*
X111219267Y-113570545D01*
X111249347Y-113502659D01*
X111335683Y-113475295D01*
X111406905Y-113459121D01*
X111443693Y-113416173D01*
X111460405Y-113322636D01*
X111465003Y-113260817D01*
X111477348Y-113138750D01*
X111502239Y-113079375D01*
X111552396Y-113060718D01*
X111581419Y-113059734D01*
X111642890Y-113066930D01*
G36*
X111642890Y-113066930D02*
G01*
X111673557Y-113102924D01*
X111683990Y-113189324D01*
X111684933Y-113271400D01*
X111684933Y-113483067D01*
X111854267Y-113483067D01*
X111965051Y-113490167D01*
X112014013Y-113518864D01*
X112023600Y-113567734D01*
X112009400Y-113623126D01*
X111952005Y-113647607D01*
X111854267Y-113652400D01*
X111684933Y-113652400D01*
X111684933Y-114130767D01*
X111688059Y-114364572D01*
X111700339Y-114526530D01*
X111726123Y-114629324D01*
X111769763Y-114685639D01*
X111835610Y-114708158D01*
X111883900Y-114710734D01*
X111961184Y-114737745D01*
X111982804Y-114798634D01*
X111948414Y-114863181D01*
X111886017Y-114895718D01*
X111768181Y-114917106D01*
X111670001Y-114902213D01*
X111642600Y-114893022D01*
X111576212Y-114858735D01*
X111529444Y-114802171D01*
X111499045Y-114709915D01*
X111481762Y-114568553D01*
X111474341Y-114364670D01*
X111473267Y-114194642D01*
X111473267Y-113652400D01*
X111346267Y-113652400D01*
X111252777Y-113638681D01*
X111220271Y-113588720D01*
X111219267Y-113570545D01*
X111249347Y-113502659D01*
X111335683Y-113475295D01*
X111406905Y-113459121D01*
X111443693Y-113416173D01*
X111460405Y-113322636D01*
X111465003Y-113260817D01*
X111477348Y-113138750D01*
X111502239Y-113079375D01*
X111552396Y-113060718D01*
X111581419Y-113059734D01*
X111642890Y-113066930D01*
G37*
X83975060Y-113498355D02*
X84121752Y-113583051D01*
X84220232Y-113700275D01*
X84252933Y-113831153D01*
X84222046Y-113891094D01*
X84151242Y-113909037D01*
X84073308Y-113886373D01*
X84021031Y-113824493D01*
X84019952Y-113821269D01*
X83952232Y-113728456D01*
X83834907Y-113658621D01*
X83702829Y-113628826D01*
X83639340Y-113634956D01*
X83542620Y-113684604D01*
X83440374Y-113772829D01*
X83423004Y-113792385D01*
X83363735Y-113871992D01*
X83332786Y-113950426D01*
X83323633Y-114056649D01*
X83329146Y-114209036D01*
X83345143Y-114380852D01*
X83374877Y-114495441D01*
X83426483Y-114580056D01*
X83446663Y-114602839D01*
X83584826Y-114695804D01*
X83739367Y-114713980D01*
X83888511Y-114658159D01*
X83971270Y-114583734D01*
X84061588Y-114503401D01*
X84153335Y-114461519D01*
X84224466Y-114463507D01*
X84252933Y-114514524D01*
X84219345Y-114608083D01*
X84134061Y-114715981D01*
X84020302Y-114813110D01*
X83929685Y-114864030D01*
X83715813Y-114917961D01*
X83510869Y-114891512D01*
X83406267Y-114848251D01*
X83252209Y-114727529D01*
X83145965Y-114555552D01*
X83087292Y-114350770D01*
X83075947Y-114131634D01*
X83111686Y-113916595D01*
X83194266Y-113724104D01*
X83323445Y-113572612D01*
X83423915Y-113508740D01*
X83608320Y-113454269D01*
X83797976Y-113453117D01*
X83975060Y-113498355D01*
G36*
X83975060Y-113498355D02*
G01*
X84121752Y-113583051D01*
X84220232Y-113700275D01*
X84252933Y-113831153D01*
X84222046Y-113891094D01*
X84151242Y-113909037D01*
X84073308Y-113886373D01*
X84021031Y-113824493D01*
X84019952Y-113821269D01*
X83952232Y-113728456D01*
X83834907Y-113658621D01*
X83702829Y-113628826D01*
X83639340Y-113634956D01*
X83542620Y-113684604D01*
X83440374Y-113772829D01*
X83423004Y-113792385D01*
X83363735Y-113871992D01*
X83332786Y-113950426D01*
X83323633Y-114056649D01*
X83329146Y-114209036D01*
X83345143Y-114380852D01*
X83374877Y-114495441D01*
X83426483Y-114580056D01*
X83446663Y-114602839D01*
X83584826Y-114695804D01*
X83739367Y-114713980D01*
X83888511Y-114658159D01*
X83971270Y-114583734D01*
X84061588Y-114503401D01*
X84153335Y-114461519D01*
X84224466Y-114463507D01*
X84252933Y-114514524D01*
X84219345Y-114608083D01*
X84134061Y-114715981D01*
X84020302Y-114813110D01*
X83929685Y-114864030D01*
X83715813Y-114917961D01*
X83510869Y-114891512D01*
X83406267Y-114848251D01*
X83252209Y-114727529D01*
X83145965Y-114555552D01*
X83087292Y-114350770D01*
X83075947Y-114131634D01*
X83111686Y-113916595D01*
X83194266Y-113724104D01*
X83323445Y-113572612D01*
X83423915Y-113508740D01*
X83608320Y-113454269D01*
X83797976Y-113453117D01*
X83975060Y-113498355D01*
G37*
X86157528Y-90968708D02*
X86188826Y-91004146D01*
X86199345Y-91089818D01*
X86200267Y-91170845D01*
X86200267Y-91379956D01*
X86359017Y-91393095D01*
X86467044Y-91411752D01*
X86512106Y-91452187D01*
X86517767Y-91490900D01*
X86499548Y-91550023D01*
X86430725Y-91579752D01*
X86359017Y-91588706D01*
X86200267Y-91601844D01*
X86200267Y-92046572D01*
X86204930Y-92291608D01*
X86221293Y-92463651D01*
X86252915Y-92573980D01*
X86303355Y-92633876D01*
X86376171Y-92654620D01*
X86392256Y-92655067D01*
X86474491Y-92675514D01*
X86496600Y-92739734D01*
X86483650Y-92793370D01*
X86430292Y-92818253D01*
X86314762Y-92824399D01*
X86312661Y-92824400D01*
X86147858Y-92802468D01*
X86058661Y-92746983D01*
X86028470Y-92699010D01*
X86008085Y-92623907D01*
X85995794Y-92506672D01*
X85989885Y-92332302D01*
X85988600Y-92133150D01*
X85988600Y-91596734D01*
X85861600Y-91596734D01*
X85770836Y-91585343D01*
X85737633Y-91536923D01*
X85734600Y-91490900D01*
X85748269Y-91415264D01*
X85806373Y-91387594D01*
X85861600Y-91385067D01*
X85936781Y-91380442D01*
X85974271Y-91352009D01*
X85987174Y-91277926D01*
X85988600Y-91173400D01*
X85992031Y-91047778D01*
X86009542Y-90985108D01*
X86051960Y-90963739D01*
X86094433Y-90961734D01*
X86157528Y-90968708D01*
G36*
X86157528Y-90968708D02*
G01*
X86188826Y-91004146D01*
X86199345Y-91089818D01*
X86200267Y-91170845D01*
X86200267Y-91379956D01*
X86359017Y-91393095D01*
X86467044Y-91411752D01*
X86512106Y-91452187D01*
X86517767Y-91490900D01*
X86499548Y-91550023D01*
X86430725Y-91579752D01*
X86359017Y-91588706D01*
X86200267Y-91601844D01*
X86200267Y-92046572D01*
X86204930Y-92291608D01*
X86221293Y-92463651D01*
X86252915Y-92573980D01*
X86303355Y-92633876D01*
X86376171Y-92654620D01*
X86392256Y-92655067D01*
X86474491Y-92675514D01*
X86496600Y-92739734D01*
X86483650Y-92793370D01*
X86430292Y-92818253D01*
X86314762Y-92824399D01*
X86312661Y-92824400D01*
X86147858Y-92802468D01*
X86058661Y-92746983D01*
X86028470Y-92699010D01*
X86008085Y-92623907D01*
X85995794Y-92506672D01*
X85989885Y-92332302D01*
X85988600Y-92133150D01*
X85988600Y-91596734D01*
X85861600Y-91596734D01*
X85770836Y-91585343D01*
X85737633Y-91536923D01*
X85734600Y-91490900D01*
X85748269Y-91415264D01*
X85806373Y-91387594D01*
X85861600Y-91385067D01*
X85936781Y-91380442D01*
X85974271Y-91352009D01*
X85987174Y-91277926D01*
X85988600Y-91173400D01*
X85992031Y-91047778D01*
X86009542Y-90985108D01*
X86051960Y-90963739D01*
X86094433Y-90961734D01*
X86157528Y-90968708D01*
G37*
X103344770Y-146690484D02*
X103536125Y-146754913D01*
X103690300Y-146874976D01*
X103757025Y-146972814D01*
X103786702Y-147047834D01*
X103760945Y-147079566D01*
X103716075Y-147089300D01*
X103636502Y-147082003D01*
X103606914Y-147055175D01*
X103527532Y-146941992D01*
X103389363Y-146866792D01*
X103227269Y-146841734D01*
X103089379Y-146854419D01*
X102989384Y-146904957D01*
X102920041Y-146970759D01*
X102812239Y-147143452D01*
X102764796Y-147348987D01*
X102776351Y-147563138D01*
X102845541Y-147761681D01*
X102971002Y-147920389D01*
X102973581Y-147922575D01*
X103133510Y-148008473D01*
X103302577Y-148016114D01*
X103462756Y-147947430D01*
X103555767Y-147860117D01*
X103636450Y-147777026D01*
X103703650Y-147732662D01*
X103715683Y-147730352D01*
X103765134Y-147758169D01*
X103761502Y-147828313D01*
X103710830Y-147922514D01*
X103619164Y-148022502D01*
X103618960Y-148022681D01*
X103511557Y-148104406D01*
X103408370Y-148142532D01*
X103267713Y-148151543D01*
X103248543Y-148151383D01*
X103104102Y-148143233D01*
X102983963Y-148125497D01*
X102943100Y-148113680D01*
X102783346Y-148005479D01*
X102669788Y-147843831D01*
X102602544Y-147646321D01*
X102581735Y-147430533D01*
X102607478Y-147214052D01*
X102679894Y-147014461D01*
X102799102Y-146849346D01*
X102933853Y-146750986D01*
X103137068Y-146687304D01*
X103344770Y-146690484D01*
G36*
X103344770Y-146690484D02*
G01*
X103536125Y-146754913D01*
X103690300Y-146874976D01*
X103757025Y-146972814D01*
X103786702Y-147047834D01*
X103760945Y-147079566D01*
X103716075Y-147089300D01*
X103636502Y-147082003D01*
X103606914Y-147055175D01*
X103527532Y-146941992D01*
X103389363Y-146866792D01*
X103227269Y-146841734D01*
X103089379Y-146854419D01*
X102989384Y-146904957D01*
X102920041Y-146970759D01*
X102812239Y-147143452D01*
X102764796Y-147348987D01*
X102776351Y-147563138D01*
X102845541Y-147761681D01*
X102971002Y-147920389D01*
X102973581Y-147922575D01*
X103133510Y-148008473D01*
X103302577Y-148016114D01*
X103462756Y-147947430D01*
X103555767Y-147860117D01*
X103636450Y-147777026D01*
X103703650Y-147732662D01*
X103715683Y-147730352D01*
X103765134Y-147758169D01*
X103761502Y-147828313D01*
X103710830Y-147922514D01*
X103619164Y-148022502D01*
X103618960Y-148022681D01*
X103511557Y-148104406D01*
X103408370Y-148142532D01*
X103267713Y-148151543D01*
X103248543Y-148151383D01*
X103104102Y-148143233D01*
X102983963Y-148125497D01*
X102943100Y-148113680D01*
X102783346Y-148005479D01*
X102669788Y-147843831D01*
X102602544Y-147646321D01*
X102581735Y-147430533D01*
X102607478Y-147214052D01*
X102679894Y-147014461D01*
X102799102Y-146849346D01*
X102933853Y-146750986D01*
X103137068Y-146687304D01*
X103344770Y-146690484D01*
G37*
X107529346Y-66390241D02*
X107711577Y-66466967D01*
X107856706Y-66606626D01*
X107862970Y-66615744D01*
X107934928Y-66732768D01*
X107951355Y-66798329D01*
X107910267Y-66826550D01*
X107832600Y-66831734D01*
X107743429Y-66819471D01*
X107705610Y-66789927D01*
X107705600Y-66789400D01*
X107669062Y-66709627D01*
X107579435Y-66634696D01*
X107466696Y-66585823D01*
X107406483Y-66577734D01*
X107224760Y-66611867D01*
X107093730Y-66712457D01*
X107015266Y-66876787D01*
X106991238Y-67102141D01*
X106994506Y-67175601D01*
X107032513Y-67388099D01*
X107115037Y-67535984D01*
X107248761Y-67630389D01*
X107273708Y-67640647D01*
X107392075Y-67650718D01*
X107523309Y-67613599D01*
X107633049Y-67543559D01*
X107683207Y-67470598D01*
X107736682Y-67400854D01*
X107835574Y-67382067D01*
X107916909Y-67386340D01*
X107939308Y-67415224D01*
X107914729Y-67492812D01*
X107903863Y-67519650D01*
X107797928Y-67676115D01*
X107638981Y-67785741D01*
X107448184Y-67842517D01*
X107246698Y-67840432D01*
X107055684Y-67773475D01*
X107040905Y-67764781D01*
X106891654Y-67627444D01*
X106792738Y-67440637D01*
X106745447Y-67223905D01*
X106751068Y-66996789D01*
X106810888Y-66778834D01*
X106926195Y-66589581D01*
X106960987Y-66551879D01*
X107133957Y-66431274D01*
X107330108Y-66377869D01*
X107529346Y-66390241D01*
G36*
X107529346Y-66390241D02*
G01*
X107711577Y-66466967D01*
X107856706Y-66606626D01*
X107862970Y-66615744D01*
X107934928Y-66732768D01*
X107951355Y-66798329D01*
X107910267Y-66826550D01*
X107832600Y-66831734D01*
X107743429Y-66819471D01*
X107705610Y-66789927D01*
X107705600Y-66789400D01*
X107669062Y-66709627D01*
X107579435Y-66634696D01*
X107466696Y-66585823D01*
X107406483Y-66577734D01*
X107224760Y-66611867D01*
X107093730Y-66712457D01*
X107015266Y-66876787D01*
X106991238Y-67102141D01*
X106994506Y-67175601D01*
X107032513Y-67388099D01*
X107115037Y-67535984D01*
X107248761Y-67630389D01*
X107273708Y-67640647D01*
X107392075Y-67650718D01*
X107523309Y-67613599D01*
X107633049Y-67543559D01*
X107683207Y-67470598D01*
X107736682Y-67400854D01*
X107835574Y-67382067D01*
X107916909Y-67386340D01*
X107939308Y-67415224D01*
X107914729Y-67492812D01*
X107903863Y-67519650D01*
X107797928Y-67676115D01*
X107638981Y-67785741D01*
X107448184Y-67842517D01*
X107246698Y-67840432D01*
X107055684Y-67773475D01*
X107040905Y-67764781D01*
X106891654Y-67627444D01*
X106792738Y-67440637D01*
X106745447Y-67223905D01*
X106751068Y-66996789D01*
X106810888Y-66778834D01*
X106926195Y-66589581D01*
X106960987Y-66551879D01*
X107133957Y-66431274D01*
X107330108Y-66377869D01*
X107529346Y-66390241D01*
G37*
X78798526Y-66829367D02*
X78432587Y-67805400D01*
X78273593Y-67805400D01*
X78171376Y-67802362D01*
X78117208Y-67794829D01*
X78114600Y-67792503D01*
X78100704Y-67750829D01*
X78061712Y-67640886D01*
X78001672Y-67473902D01*
X77924630Y-67261102D01*
X77834631Y-67013712D01*
X77775933Y-66852900D01*
X77679883Y-66588672D01*
X77594412Y-66350855D01*
X77523593Y-66151007D01*
X77471500Y-66000684D01*
X77442206Y-65911443D01*
X77437267Y-65892130D01*
X77474086Y-65868204D01*
X77562786Y-65858069D01*
X77564267Y-65858067D01*
X77653524Y-65861626D01*
X77691260Y-65870199D01*
X77691267Y-65870327D01*
X77704384Y-65912147D01*
X77741087Y-66022285D01*
X77797405Y-66189001D01*
X77869365Y-66400556D01*
X77952995Y-66645213D01*
X77988492Y-66748743D01*
X78095792Y-67054880D01*
X78182409Y-67287907D01*
X78247500Y-67445768D01*
X78290219Y-67526408D01*
X78309151Y-67530234D01*
X78330488Y-67465363D01*
X78376056Y-67334773D01*
X78440951Y-67152244D01*
X78520274Y-66931552D01*
X78609121Y-66686476D01*
X78617888Y-66662400D01*
X78715823Y-66394573D01*
X78790438Y-66195821D01*
X78847238Y-66055611D01*
X78891725Y-65963408D01*
X78929403Y-65908679D01*
X78965776Y-65880890D01*
X79006347Y-65869506D01*
X79033829Y-65866284D01*
X79164466Y-65853334D01*
X78798526Y-66829367D01*
G36*
X78798526Y-66829367D02*
G01*
X78432587Y-67805400D01*
X78273593Y-67805400D01*
X78171376Y-67802362D01*
X78117208Y-67794829D01*
X78114600Y-67792503D01*
X78100704Y-67750829D01*
X78061712Y-67640886D01*
X78001672Y-67473902D01*
X77924630Y-67261102D01*
X77834631Y-67013712D01*
X77775933Y-66852900D01*
X77679883Y-66588672D01*
X77594412Y-66350855D01*
X77523593Y-66151007D01*
X77471500Y-66000684D01*
X77442206Y-65911443D01*
X77437267Y-65892130D01*
X77474086Y-65868204D01*
X77562786Y-65858069D01*
X77564267Y-65858067D01*
X77653524Y-65861626D01*
X77691260Y-65870199D01*
X77691267Y-65870327D01*
X77704384Y-65912147D01*
X77741087Y-66022285D01*
X77797405Y-66189001D01*
X77869365Y-66400556D01*
X77952995Y-66645213D01*
X77988492Y-66748743D01*
X78095792Y-67054880D01*
X78182409Y-67287907D01*
X78247500Y-67445768D01*
X78290219Y-67526408D01*
X78309151Y-67530234D01*
X78330488Y-67465363D01*
X78376056Y-67334773D01*
X78440951Y-67152244D01*
X78520274Y-66931552D01*
X78609121Y-66686476D01*
X78617888Y-66662400D01*
X78715823Y-66394573D01*
X78790438Y-66195821D01*
X78847238Y-66055611D01*
X78891725Y-65963408D01*
X78929403Y-65908679D01*
X78965776Y-65880890D01*
X79006347Y-65869506D01*
X79033829Y-65866284D01*
X79164466Y-65853334D01*
X78798526Y-66829367D01*
G37*
X108382933Y-91556935D02*
X108507925Y-91464524D01*
X108689501Y-91377944D01*
X108882969Y-91366395D01*
X109070965Y-91425460D01*
X109236124Y-91550719D01*
X109327496Y-91673100D01*
X109393259Y-91851106D01*
X109411926Y-92060024D01*
X109388080Y-92277536D01*
X109326304Y-92481323D01*
X109231181Y-92649067D01*
X109107295Y-92758450D01*
X109104287Y-92760028D01*
X108933422Y-92814166D01*
X108745764Y-92821208D01*
X108575502Y-92782465D01*
X108494476Y-92736661D01*
X108382933Y-92648922D01*
X108382933Y-92736661D01*
X108364243Y-92800546D01*
X108293146Y-92823275D01*
X108255933Y-92824400D01*
X108128933Y-92824400D01*
X108128933Y-92046713D01*
X108393497Y-92046713D01*
X108396738Y-92273633D01*
X108435210Y-92435464D01*
X108514030Y-92546253D01*
X108595434Y-92600692D01*
X108761369Y-92650869D01*
X108911658Y-92620856D01*
X108970652Y-92586034D01*
X109084814Y-92462289D01*
X109155945Y-92295693D01*
X109183991Y-92108146D01*
X109168895Y-91921548D01*
X109110601Y-91757800D01*
X109009055Y-91638803D01*
X108973112Y-91616614D01*
X108795357Y-91559573D01*
X108635341Y-91584166D01*
X108524549Y-91655130D01*
X108460486Y-91720014D01*
X108422950Y-91794161D01*
X108403115Y-91903943D01*
X108393497Y-92046713D01*
X108128933Y-92046713D01*
X108128933Y-90750067D01*
X108382933Y-90750067D01*
X108382933Y-91556935D01*
G36*
X108382933Y-91556935D02*
G01*
X108507925Y-91464524D01*
X108689501Y-91377944D01*
X108882969Y-91366395D01*
X109070965Y-91425460D01*
X109236124Y-91550719D01*
X109327496Y-91673100D01*
X109393259Y-91851106D01*
X109411926Y-92060024D01*
X109388080Y-92277536D01*
X109326304Y-92481323D01*
X109231181Y-92649067D01*
X109107295Y-92758450D01*
X109104287Y-92760028D01*
X108933422Y-92814166D01*
X108745764Y-92821208D01*
X108575502Y-92782465D01*
X108494476Y-92736661D01*
X108382933Y-92648922D01*
X108382933Y-92736661D01*
X108364243Y-92800546D01*
X108293146Y-92823275D01*
X108255933Y-92824400D01*
X108128933Y-92824400D01*
X108128933Y-92046713D01*
X108393497Y-92046713D01*
X108396738Y-92273633D01*
X108435210Y-92435464D01*
X108514030Y-92546253D01*
X108595434Y-92600692D01*
X108761369Y-92650869D01*
X108911658Y-92620856D01*
X108970652Y-92586034D01*
X109084814Y-92462289D01*
X109155945Y-92295693D01*
X109183991Y-92108146D01*
X109168895Y-91921548D01*
X109110601Y-91757800D01*
X109009055Y-91638803D01*
X108973112Y-91616614D01*
X108795357Y-91559573D01*
X108635341Y-91584166D01*
X108524549Y-91655130D01*
X108460486Y-91720014D01*
X108422950Y-91794161D01*
X108403115Y-91903943D01*
X108393497Y-92046713D01*
X108128933Y-92046713D01*
X108128933Y-90750067D01*
X108382933Y-90750067D01*
X108382933Y-91556935D01*
G37*
X85140522Y-113068928D02*
X85173137Y-113111110D01*
X85188704Y-113208174D01*
X85192530Y-113260817D01*
X85203581Y-113382264D01*
X85228976Y-113443035D01*
X85287832Y-113466988D01*
X85364183Y-113475039D01*
X85472812Y-113494111D01*
X85517840Y-113535154D01*
X85522933Y-113570289D01*
X85507800Y-113624198D01*
X85447875Y-113647975D01*
X85353600Y-113652400D01*
X85184267Y-113652400D01*
X85184267Y-114099683D01*
X85188885Y-114345247D01*
X85205103Y-114517805D01*
X85236463Y-114628633D01*
X85286508Y-114689007D01*
X85358782Y-114710203D01*
X85376256Y-114710734D01*
X85458491Y-114731181D01*
X85480600Y-114795400D01*
X85455597Y-114864049D01*
X85420562Y-114880067D01*
X85323740Y-114892558D01*
X85304146Y-114897880D01*
X85215077Y-114900312D01*
X85184267Y-114892356D01*
X85101305Y-114855478D01*
X85043277Y-114806427D01*
X85005788Y-114730747D01*
X84984442Y-114613980D01*
X84974845Y-114441672D01*
X84972600Y-114199367D01*
X84972600Y-113652400D01*
X84845600Y-113652400D01*
X84752110Y-113638681D01*
X84719604Y-113588720D01*
X84718600Y-113570545D01*
X84748681Y-113502659D01*
X84835017Y-113475295D01*
X84906239Y-113459121D01*
X84943026Y-113416173D01*
X84959738Y-113322636D01*
X84964336Y-113260817D01*
X84976805Y-113138613D01*
X85001846Y-113079181D01*
X85051884Y-113060624D01*
X85078433Y-113059734D01*
X85140522Y-113068928D01*
G36*
X85140522Y-113068928D02*
G01*
X85173137Y-113111110D01*
X85188704Y-113208174D01*
X85192530Y-113260817D01*
X85203581Y-113382264D01*
X85228976Y-113443035D01*
X85287832Y-113466988D01*
X85364183Y-113475039D01*
X85472812Y-113494111D01*
X85517840Y-113535154D01*
X85522933Y-113570289D01*
X85507800Y-113624198D01*
X85447875Y-113647975D01*
X85353600Y-113652400D01*
X85184267Y-113652400D01*
X85184267Y-114099683D01*
X85188885Y-114345247D01*
X85205103Y-114517805D01*
X85236463Y-114628633D01*
X85286508Y-114689007D01*
X85358782Y-114710203D01*
X85376256Y-114710734D01*
X85458491Y-114731181D01*
X85480600Y-114795400D01*
X85455597Y-114864049D01*
X85420562Y-114880067D01*
X85323740Y-114892558D01*
X85304146Y-114897880D01*
X85215077Y-114900312D01*
X85184267Y-114892356D01*
X85101305Y-114855478D01*
X85043277Y-114806427D01*
X85005788Y-114730747D01*
X84984442Y-114613980D01*
X84974845Y-114441672D01*
X84972600Y-114199367D01*
X84972600Y-113652400D01*
X84845600Y-113652400D01*
X84752110Y-113638681D01*
X84719604Y-113588720D01*
X84718600Y-113570545D01*
X84748681Y-113502659D01*
X84835017Y-113475295D01*
X84906239Y-113459121D01*
X84943026Y-113416173D01*
X84959738Y-113322636D01*
X84964336Y-113260817D01*
X84976805Y-113138613D01*
X85001846Y-113079181D01*
X85051884Y-113060624D01*
X85078433Y-113059734D01*
X85140522Y-113068928D01*
G37*
X104385913Y-146725269D02*
X104404993Y-146769534D01*
X104445518Y-146879238D01*
X104502168Y-147039497D01*
X104569625Y-147235426D01*
X104595174Y-147310773D01*
X104666076Y-147520461D01*
X104728445Y-147704474D01*
X104776700Y-147846376D01*
X104805259Y-147929731D01*
X104809318Y-147941330D01*
X104820870Y-147949593D01*
X104841213Y-147923771D01*
X104873301Y-147856445D01*
X104920086Y-147740195D01*
X104984523Y-147567601D01*
X105069563Y-147331245D01*
X105178160Y-147023706D01*
X105204872Y-146947567D01*
X105262460Y-146811735D01*
X105321805Y-146741767D01*
X105376459Y-146721592D01*
X105448178Y-146726193D01*
X105453797Y-146763925D01*
X105432969Y-146821025D01*
X105388075Y-146943044D01*
X105324456Y-147115502D01*
X105247450Y-147323921D01*
X105187013Y-147487317D01*
X105095605Y-147732264D01*
X105026800Y-147908678D01*
X104974630Y-148027726D01*
X104933125Y-148100576D01*
X104896317Y-148138394D01*
X104858235Y-148152346D01*
X104830691Y-148153909D01*
X104789849Y-148149433D01*
X104753826Y-148128885D01*
X104716993Y-148081391D01*
X104673722Y-147996080D01*
X104618385Y-147862078D01*
X104545352Y-147668511D01*
X104463632Y-147444826D01*
X104372087Y-147190866D01*
X104307613Y-147005260D01*
X104267547Y-146877090D01*
X104249226Y-146795435D01*
X104249988Y-146749377D01*
X104267171Y-146727995D01*
X104287350Y-146721896D01*
X104362632Y-146718008D01*
X104385913Y-146725269D01*
G36*
X104385913Y-146725269D02*
G01*
X104404993Y-146769534D01*
X104445518Y-146879238D01*
X104502168Y-147039497D01*
X104569625Y-147235426D01*
X104595174Y-147310773D01*
X104666076Y-147520461D01*
X104728445Y-147704474D01*
X104776700Y-147846376D01*
X104805259Y-147929731D01*
X104809318Y-147941330D01*
X104820870Y-147949593D01*
X104841213Y-147923771D01*
X104873301Y-147856445D01*
X104920086Y-147740195D01*
X104984523Y-147567601D01*
X105069563Y-147331245D01*
X105178160Y-147023706D01*
X105204872Y-146947567D01*
X105262460Y-146811735D01*
X105321805Y-146741767D01*
X105376459Y-146721592D01*
X105448178Y-146726193D01*
X105453797Y-146763925D01*
X105432969Y-146821025D01*
X105388075Y-146943044D01*
X105324456Y-147115502D01*
X105247450Y-147323921D01*
X105187013Y-147487317D01*
X105095605Y-147732264D01*
X105026800Y-147908678D01*
X104974630Y-148027726D01*
X104933125Y-148100576D01*
X104896317Y-148138394D01*
X104858235Y-148152346D01*
X104830691Y-148153909D01*
X104789849Y-148149433D01*
X104753826Y-148128885D01*
X104716993Y-148081391D01*
X104673722Y-147996080D01*
X104618385Y-147862078D01*
X104545352Y-147668511D01*
X104463632Y-147444826D01*
X104372087Y-147190866D01*
X104307613Y-147005260D01*
X104267547Y-146877090D01*
X104249226Y-146795435D01*
X104249988Y-146749377D01*
X104267171Y-146727995D01*
X104287350Y-146721896D01*
X104362632Y-146718008D01*
X104385913Y-146725269D01*
G37*
X78756755Y-90898234D02*
X78880177Y-91036485D01*
X78971858Y-91190422D01*
X79006032Y-91365121D01*
X78984937Y-91537129D01*
X78910810Y-91682991D01*
X78810446Y-91767487D01*
X78711311Y-91820543D01*
X78836289Y-91937289D01*
X78907861Y-92013954D01*
X78945438Y-92092748D01*
X78959602Y-92204970D01*
X78961267Y-92306926D01*
X78965790Y-92470526D01*
X78977415Y-92620453D01*
X78987725Y-92692109D01*
X78998810Y-92783431D01*
X78971034Y-92818992D01*
X78910114Y-92824400D01*
X78819159Y-92813997D01*
X78777822Y-92796178D01*
X78762407Y-92741432D01*
X78752156Y-92629669D01*
X78749600Y-92527328D01*
X78736171Y-92290087D01*
X78688816Y-92123289D01*
X78596927Y-92015990D01*
X78449899Y-91957241D01*
X78237126Y-91936096D01*
X78176108Y-91935400D01*
X77902933Y-91935400D01*
X77902933Y-92782067D01*
X77648933Y-92782067D01*
X77648933Y-91723734D01*
X77648933Y-91046400D01*
X77902933Y-91046400D01*
X77902933Y-91723734D01*
X78241600Y-91723734D01*
X78421358Y-91720191D01*
X78538425Y-91706659D01*
X78614589Y-91678780D01*
X78664933Y-91639067D01*
X78731105Y-91520156D01*
X78747642Y-91368497D01*
X78710754Y-91222523D01*
X78706768Y-91214803D01*
X78623720Y-91140454D01*
X78473261Y-91084891D01*
X78271461Y-91052758D01*
X78125183Y-91046636D01*
X77902933Y-91046400D01*
X77648933Y-91046400D01*
X77648933Y-90870338D01*
X78756755Y-90898234D01*
G36*
X78756755Y-90898234D02*
G01*
X78880177Y-91036485D01*
X78971858Y-91190422D01*
X79006032Y-91365121D01*
X78984937Y-91537129D01*
X78910810Y-91682991D01*
X78810446Y-91767487D01*
X78711311Y-91820543D01*
X78836289Y-91937289D01*
X78907861Y-92013954D01*
X78945438Y-92092748D01*
X78959602Y-92204970D01*
X78961267Y-92306926D01*
X78965790Y-92470526D01*
X78977415Y-92620453D01*
X78987725Y-92692109D01*
X78998810Y-92783431D01*
X78971034Y-92818992D01*
X78910114Y-92824400D01*
X78819159Y-92813997D01*
X78777822Y-92796178D01*
X78762407Y-92741432D01*
X78752156Y-92629669D01*
X78749600Y-92527328D01*
X78736171Y-92290087D01*
X78688816Y-92123289D01*
X78596927Y-92015990D01*
X78449899Y-91957241D01*
X78237126Y-91936096D01*
X78176108Y-91935400D01*
X77902933Y-91935400D01*
X77902933Y-92782067D01*
X77648933Y-92782067D01*
X77648933Y-91723734D01*
X77648933Y-91046400D01*
X77902933Y-91046400D01*
X77902933Y-91723734D01*
X78241600Y-91723734D01*
X78421358Y-91720191D01*
X78538425Y-91706659D01*
X78614589Y-91678780D01*
X78664933Y-91639067D01*
X78731105Y-91520156D01*
X78747642Y-91368497D01*
X78710754Y-91222523D01*
X78706768Y-91214803D01*
X78623720Y-91140454D01*
X78473261Y-91084891D01*
X78271461Y-91052758D01*
X78125183Y-91046636D01*
X77902933Y-91046400D01*
X77648933Y-91046400D01*
X77648933Y-90870338D01*
X78756755Y-90898234D01*
G37*
X82135578Y-43766929D02*
X82166912Y-43801952D01*
X82177597Y-43886787D01*
X82178600Y-43971734D01*
X82178600Y-44183400D01*
X82347933Y-44183400D01*
X82457032Y-44189177D01*
X82505522Y-44216424D01*
X82517206Y-44280017D01*
X82517267Y-44289234D01*
X82508024Y-44357420D01*
X82464429Y-44387727D01*
X82362680Y-44395029D01*
X82347933Y-44395067D01*
X82178600Y-44395067D01*
X82178600Y-44842350D01*
X82183218Y-45087914D01*
X82199436Y-45260472D01*
X82230796Y-45371300D01*
X82280842Y-45431674D01*
X82353115Y-45452870D01*
X82370589Y-45453400D01*
X82452825Y-45473847D01*
X82474933Y-45538067D01*
X82462296Y-45591238D01*
X82409967Y-45616211D01*
X82296321Y-45622718D01*
X82286834Y-45622734D01*
X82151427Y-45611301D01*
X82068080Y-45569491D01*
X82032834Y-45528647D01*
X82002965Y-45464980D01*
X81983114Y-45365312D01*
X81971710Y-45215019D01*
X81967185Y-44999476D01*
X81966933Y-44914814D01*
X81966933Y-44395067D01*
X81839933Y-44395067D01*
X81749170Y-44383676D01*
X81715966Y-44335256D01*
X81712933Y-44289234D01*
X81726602Y-44213597D01*
X81784706Y-44185928D01*
X81839933Y-44183400D01*
X81915114Y-44178776D01*
X81952604Y-44150342D01*
X81965507Y-44076260D01*
X81966933Y-43971734D01*
X81970364Y-43846111D01*
X81987876Y-43783442D01*
X82030293Y-43762072D01*
X82072767Y-43760067D01*
X82135578Y-43766929D01*
G36*
X82135578Y-43766929D02*
G01*
X82166912Y-43801952D01*
X82177597Y-43886787D01*
X82178600Y-43971734D01*
X82178600Y-44183400D01*
X82347933Y-44183400D01*
X82457032Y-44189177D01*
X82505522Y-44216424D01*
X82517206Y-44280017D01*
X82517267Y-44289234D01*
X82508024Y-44357420D01*
X82464429Y-44387727D01*
X82362680Y-44395029D01*
X82347933Y-44395067D01*
X82178600Y-44395067D01*
X82178600Y-44842350D01*
X82183218Y-45087914D01*
X82199436Y-45260472D01*
X82230796Y-45371300D01*
X82280842Y-45431674D01*
X82353115Y-45452870D01*
X82370589Y-45453400D01*
X82452825Y-45473847D01*
X82474933Y-45538067D01*
X82462296Y-45591238D01*
X82409967Y-45616211D01*
X82296321Y-45622718D01*
X82286834Y-45622734D01*
X82151427Y-45611301D01*
X82068080Y-45569491D01*
X82032834Y-45528647D01*
X82002965Y-45464980D01*
X81983114Y-45365312D01*
X81971710Y-45215019D01*
X81967185Y-44999476D01*
X81966933Y-44914814D01*
X81966933Y-44395067D01*
X81839933Y-44395067D01*
X81749170Y-44383676D01*
X81715966Y-44335256D01*
X81712933Y-44289234D01*
X81726602Y-44213597D01*
X81784706Y-44185928D01*
X81839933Y-44183400D01*
X81915114Y-44178776D01*
X81952604Y-44150342D01*
X81965507Y-44076260D01*
X81966933Y-43971734D01*
X81970364Y-43846111D01*
X81987876Y-43783442D01*
X82030293Y-43762072D01*
X82072767Y-43760067D01*
X82135578Y-43766929D01*
G37*
X102837267Y-122963742D02*
X102841138Y-123174589D01*
X102851683Y-123360940D01*
X102867299Y-123502020D01*
X102884268Y-123572907D01*
X102980384Y-123693085D01*
X103118503Y-123755852D01*
X103275014Y-123757306D01*
X103426302Y-123693539D01*
X103459323Y-123668000D01*
X103507712Y-123623680D01*
X103541187Y-123577860D01*
X103562994Y-123514492D01*
X103576379Y-123417532D01*
X103584586Y-123270931D01*
X103590863Y-123058643D01*
X103592047Y-123011834D01*
X103598598Y-122785834D01*
X103606385Y-122631126D01*
X103617707Y-122534344D01*
X103634860Y-122482120D01*
X103660144Y-122461086D01*
X103687297Y-122457734D01*
X103721021Y-122463284D01*
X103743881Y-122489054D01*
X103757973Y-122548723D01*
X103765388Y-122655972D01*
X103768222Y-122824479D01*
X103768600Y-122989002D01*
X103760848Y-123293775D01*
X103733725Y-123524394D01*
X103681434Y-123690278D01*
X103598175Y-123800844D01*
X103478150Y-123865512D01*
X103315560Y-123893698D01*
X103209515Y-123897067D01*
X103055928Y-123890227D01*
X102951334Y-123862384D01*
X102860655Y-123802551D01*
X102833966Y-123779450D01*
X102754064Y-123689269D01*
X102696710Y-123574183D01*
X102658707Y-123420122D01*
X102636858Y-123213015D01*
X102627967Y-122938792D01*
X102627443Y-122870484D01*
X102627273Y-122681256D01*
X102631436Y-122561040D01*
X102643876Y-122494180D01*
X102668539Y-122465022D01*
X102709367Y-122457911D01*
X102731433Y-122457734D01*
X102837267Y-122457734D01*
X102837267Y-122963742D01*
G36*
X102837267Y-122963742D02*
G01*
X102841138Y-123174589D01*
X102851683Y-123360940D01*
X102867299Y-123502020D01*
X102884268Y-123572907D01*
X102980384Y-123693085D01*
X103118503Y-123755852D01*
X103275014Y-123757306D01*
X103426302Y-123693539D01*
X103459323Y-123668000D01*
X103507712Y-123623680D01*
X103541187Y-123577860D01*
X103562994Y-123514492D01*
X103576379Y-123417532D01*
X103584586Y-123270931D01*
X103590863Y-123058643D01*
X103592047Y-123011834D01*
X103598598Y-122785834D01*
X103606385Y-122631126D01*
X103617707Y-122534344D01*
X103634860Y-122482120D01*
X103660144Y-122461086D01*
X103687297Y-122457734D01*
X103721021Y-122463284D01*
X103743881Y-122489054D01*
X103757973Y-122548723D01*
X103765388Y-122655972D01*
X103768222Y-122824479D01*
X103768600Y-122989002D01*
X103760848Y-123293775D01*
X103733725Y-123524394D01*
X103681434Y-123690278D01*
X103598175Y-123800844D01*
X103478150Y-123865512D01*
X103315560Y-123893698D01*
X103209515Y-123897067D01*
X103055928Y-123890227D01*
X102951334Y-123862384D01*
X102860655Y-123802551D01*
X102833966Y-123779450D01*
X102754064Y-123689269D01*
X102696710Y-123574183D01*
X102658707Y-123420122D01*
X102636858Y-123213015D01*
X102627967Y-122938792D01*
X102627443Y-122870484D01*
X102627273Y-122681256D01*
X102631436Y-122561040D01*
X102643876Y-122494180D01*
X102668539Y-122465022D01*
X102709367Y-122457911D01*
X102731433Y-122457734D01*
X102837267Y-122457734D01*
X102837267Y-122963742D01*
G37*
X105927890Y-65992263D02*
X105958557Y-66028257D01*
X105968990Y-66114657D01*
X105969933Y-66196734D01*
X105969933Y-66408400D01*
X106118100Y-66408400D01*
X106220219Y-66417871D01*
X106261423Y-66454845D01*
X106266267Y-66493067D01*
X106249692Y-66551421D01*
X106184989Y-66574966D01*
X106118100Y-66577734D01*
X105969933Y-66577734D01*
X105969933Y-67039938D01*
X105972198Y-67235030D01*
X105978324Y-67402734D01*
X105987311Y-67522426D01*
X105995629Y-67569104D01*
X106056621Y-67620927D01*
X106146740Y-67636067D01*
X106234705Y-67646251D01*
X106261483Y-67689465D01*
X106258627Y-67731317D01*
X106211452Y-67805256D01*
X106113649Y-67841660D01*
X105991656Y-67838060D01*
X105871910Y-67791982D01*
X105841375Y-67770318D01*
X105800033Y-67731948D01*
X105771140Y-67685034D01*
X105751803Y-67613973D01*
X105739129Y-67503163D01*
X105730225Y-67337001D01*
X105723229Y-67133198D01*
X105715748Y-66907718D01*
X105707941Y-66753383D01*
X105696941Y-66656705D01*
X105679878Y-66604202D01*
X105653886Y-66582388D01*
X105616096Y-66577778D01*
X105605094Y-66577734D01*
X105522176Y-66553007D01*
X105497976Y-66497087D01*
X105530084Y-66437357D01*
X105616090Y-66401205D01*
X105620683Y-66400629D01*
X105691905Y-66384454D01*
X105728693Y-66341507D01*
X105745405Y-66247969D01*
X105750003Y-66186150D01*
X105762348Y-66064083D01*
X105787239Y-66004708D01*
X105837396Y-65986051D01*
X105866419Y-65985067D01*
X105927890Y-65992263D01*
G36*
X105927890Y-65992263D02*
G01*
X105958557Y-66028257D01*
X105968990Y-66114657D01*
X105969933Y-66196734D01*
X105969933Y-66408400D01*
X106118100Y-66408400D01*
X106220219Y-66417871D01*
X106261423Y-66454845D01*
X106266267Y-66493067D01*
X106249692Y-66551421D01*
X106184989Y-66574966D01*
X106118100Y-66577734D01*
X105969933Y-66577734D01*
X105969933Y-67039938D01*
X105972198Y-67235030D01*
X105978324Y-67402734D01*
X105987311Y-67522426D01*
X105995629Y-67569104D01*
X106056621Y-67620927D01*
X106146740Y-67636067D01*
X106234705Y-67646251D01*
X106261483Y-67689465D01*
X106258627Y-67731317D01*
X106211452Y-67805256D01*
X106113649Y-67841660D01*
X105991656Y-67838060D01*
X105871910Y-67791982D01*
X105841375Y-67770318D01*
X105800033Y-67731948D01*
X105771140Y-67685034D01*
X105751803Y-67613973D01*
X105739129Y-67503163D01*
X105730225Y-67337001D01*
X105723229Y-67133198D01*
X105715748Y-66907718D01*
X105707941Y-66753383D01*
X105696941Y-66656705D01*
X105679878Y-66604202D01*
X105653886Y-66582388D01*
X105616096Y-66577778D01*
X105605094Y-66577734D01*
X105522176Y-66553007D01*
X105497976Y-66497087D01*
X105530084Y-66437357D01*
X105616090Y-66401205D01*
X105620683Y-66400629D01*
X105691905Y-66384454D01*
X105728693Y-66341507D01*
X105745405Y-66247969D01*
X105750003Y-66186150D01*
X105762348Y-66064083D01*
X105787239Y-66004708D01*
X105837396Y-65986051D01*
X105866419Y-65985067D01*
X105927890Y-65992263D01*
G37*
X78461915Y-43696567D02*
X78817424Y-44644904D01*
X78916830Y-44910773D01*
X79005519Y-45149315D01*
X79079402Y-45349420D01*
X79134388Y-45499979D01*
X79166388Y-45589883D01*
X79172933Y-45610670D01*
X79136228Y-45619007D01*
X79047219Y-45615471D01*
X79040632Y-45614832D01*
X78969072Y-45601057D01*
X78917508Y-45564988D01*
X78871606Y-45488539D01*
X78817028Y-45353627D01*
X78802450Y-45314348D01*
X78696569Y-45027130D01*
X77888783Y-45051234D01*
X77797272Y-45326400D01*
X77745370Y-45473105D01*
X77702451Y-45557309D01*
X77653891Y-45597822D01*
X77585069Y-45613453D01*
X77573137Y-45614711D01*
X77440513Y-45627856D01*
X77612450Y-45149045D01*
X77701796Y-44899296D01*
X77742831Y-44784008D01*
X77987600Y-44784008D01*
X78026489Y-44800382D01*
X78129426Y-44812525D01*
X78275818Y-44818227D01*
X78307953Y-44818400D01*
X78470376Y-44816418D01*
X78563945Y-44807846D01*
X78604432Y-44788744D01*
X78607607Y-44755172D01*
X78604504Y-44744317D01*
X78530843Y-44524838D01*
X78456925Y-44321629D01*
X78388123Y-44147653D01*
X78329812Y-44015871D01*
X78287366Y-43939245D01*
X78266611Y-43929400D01*
X78230240Y-44029425D01*
X78181374Y-44171606D01*
X78126819Y-44335091D01*
X78073382Y-44499030D01*
X78027872Y-44642573D01*
X77997095Y-44744870D01*
X77987600Y-44784008D01*
X77742831Y-44784008D01*
X77804014Y-44612119D01*
X77904001Y-44329996D01*
X77960077Y-44171061D01*
X78135767Y-43671889D01*
X78461915Y-43696567D01*
G36*
X78461915Y-43696567D02*
G01*
X78817424Y-44644904D01*
X78916830Y-44910773D01*
X79005519Y-45149315D01*
X79079402Y-45349420D01*
X79134388Y-45499979D01*
X79166388Y-45589883D01*
X79172933Y-45610670D01*
X79136228Y-45619007D01*
X79047219Y-45615471D01*
X79040632Y-45614832D01*
X78969072Y-45601057D01*
X78917508Y-45564988D01*
X78871606Y-45488539D01*
X78817028Y-45353627D01*
X78802450Y-45314348D01*
X78696569Y-45027130D01*
X77888783Y-45051234D01*
X77797272Y-45326400D01*
X77745370Y-45473105D01*
X77702451Y-45557309D01*
X77653891Y-45597822D01*
X77585069Y-45613453D01*
X77573137Y-45614711D01*
X77440513Y-45627856D01*
X77612450Y-45149045D01*
X77701796Y-44899296D01*
X77742831Y-44784008D01*
X77987600Y-44784008D01*
X78026489Y-44800382D01*
X78129426Y-44812525D01*
X78275818Y-44818227D01*
X78307953Y-44818400D01*
X78470376Y-44816418D01*
X78563945Y-44807846D01*
X78604432Y-44788744D01*
X78607607Y-44755172D01*
X78604504Y-44744317D01*
X78530843Y-44524838D01*
X78456925Y-44321629D01*
X78388123Y-44147653D01*
X78329812Y-44015871D01*
X78287366Y-43939245D01*
X78266611Y-43929400D01*
X78230240Y-44029425D01*
X78181374Y-44171606D01*
X78126819Y-44335091D01*
X78073382Y-44499030D01*
X78027872Y-44642573D01*
X77997095Y-44744870D01*
X77987600Y-44784008D01*
X77742831Y-44784008D01*
X77804014Y-44612119D01*
X77904001Y-44329996D01*
X77960077Y-44171061D01*
X78135767Y-43671889D01*
X78461915Y-43696567D01*
G37*
X87935933Y-141677067D02*
X87830100Y-141677067D01*
X87750477Y-141660368D01*
X87725009Y-141593567D01*
X87724267Y-141567470D01*
X87724267Y-141457874D01*
X87594018Y-141567470D01*
X87476674Y-141643500D01*
X87343014Y-141672584D01*
X87265935Y-141674202D01*
X87123626Y-141662560D01*
X87002524Y-141636763D01*
X86972097Y-141625063D01*
X86851253Y-141524011D01*
X86756700Y-141362696D01*
X86694561Y-141163085D01*
X86672527Y-140961494D01*
X86919933Y-140961494D01*
X86947082Y-141186612D01*
X87023166Y-141356216D01*
X87140140Y-141463765D01*
X87289959Y-141502715D01*
X87464581Y-141466525D01*
X87513147Y-141443951D01*
X87620928Y-141342651D01*
X87690953Y-141177614D01*
X87718763Y-140962949D01*
X87712935Y-140812032D01*
X87662706Y-140618486D01*
X87561997Y-140484601D01*
X87422032Y-140417103D01*
X87254035Y-140422715D01*
X87137739Y-140467392D01*
X87015520Y-140569836D01*
X86944099Y-140728595D01*
X86919965Y-140951636D01*
X86919933Y-140961494D01*
X86672527Y-140961494D01*
X86670958Y-140947146D01*
X86692013Y-140736846D01*
X86708079Y-140677743D01*
X86811822Y-140469850D01*
X86963257Y-140318746D01*
X87147554Y-140230413D01*
X87349878Y-140210833D01*
X87555398Y-140265986D01*
X87629017Y-140306365D01*
X87724267Y-140366685D01*
X87724267Y-139984709D01*
X87725104Y-139804073D01*
X87730621Y-139691831D01*
X87745328Y-139631712D01*
X87773731Y-139607444D01*
X87820340Y-139602754D01*
X87830100Y-139602734D01*
X87935933Y-139602734D01*
X87935933Y-141677067D01*
G36*
X87935933Y-141677067D02*
G01*
X87830100Y-141677067D01*
X87750477Y-141660368D01*
X87725009Y-141593567D01*
X87724267Y-141567470D01*
X87724267Y-141457874D01*
X87594018Y-141567470D01*
X87476674Y-141643500D01*
X87343014Y-141672584D01*
X87265935Y-141674202D01*
X87123626Y-141662560D01*
X87002524Y-141636763D01*
X86972097Y-141625063D01*
X86851253Y-141524011D01*
X86756700Y-141362696D01*
X86694561Y-141163085D01*
X86672527Y-140961494D01*
X86919933Y-140961494D01*
X86947082Y-141186612D01*
X87023166Y-141356216D01*
X87140140Y-141463765D01*
X87289959Y-141502715D01*
X87464581Y-141466525D01*
X87513147Y-141443951D01*
X87620928Y-141342651D01*
X87690953Y-141177614D01*
X87718763Y-140962949D01*
X87712935Y-140812032D01*
X87662706Y-140618486D01*
X87561997Y-140484601D01*
X87422032Y-140417103D01*
X87254035Y-140422715D01*
X87137739Y-140467392D01*
X87015520Y-140569836D01*
X86944099Y-140728595D01*
X86919965Y-140951636D01*
X86919933Y-140961494D01*
X86672527Y-140961494D01*
X86670958Y-140947146D01*
X86692013Y-140736846D01*
X86708079Y-140677743D01*
X86811822Y-140469850D01*
X86963257Y-140318746D01*
X87147554Y-140230413D01*
X87349878Y-140210833D01*
X87555398Y-140265986D01*
X87629017Y-140306365D01*
X87724267Y-140366685D01*
X87724267Y-139984709D01*
X87725104Y-139804073D01*
X87730621Y-139691831D01*
X87745328Y-139631712D01*
X87773731Y-139607444D01*
X87820340Y-139602754D01*
X87830100Y-139602734D01*
X87935933Y-139602734D01*
X87935933Y-141677067D01*
G37*
X105031403Y-135162553D02*
X105055195Y-135186181D01*
X105069841Y-135242371D01*
X105077544Y-135344878D01*
X105080503Y-135507454D01*
X105080933Y-135686900D01*
X105080162Y-135906505D01*
X105076382Y-136055201D01*
X105067391Y-136146743D01*
X105050990Y-136194883D01*
X105024978Y-136213375D01*
X104996267Y-136216067D01*
X104926445Y-136188520D01*
X104911600Y-136150166D01*
X104903947Y-136107931D01*
X104866005Y-136117872D01*
X104817514Y-136150166D01*
X104669176Y-136207679D01*
X104503544Y-136203203D01*
X104358843Y-136137976D01*
X104355373Y-136135214D01*
X104310302Y-136092111D01*
X104280291Y-136038028D01*
X104261456Y-135955003D01*
X104249916Y-135825074D01*
X104241787Y-135630278D01*
X104240996Y-135606047D01*
X104235429Y-135407149D01*
X104235749Y-135277882D01*
X104244430Y-135203283D01*
X104263945Y-135168386D01*
X104296766Y-135158225D01*
X104315080Y-135157734D01*
X104357079Y-135163293D01*
X104383169Y-135190761D01*
X104397111Y-135256321D01*
X104402665Y-135376158D01*
X104403600Y-135538734D01*
X104406284Y-135728454D01*
X104416774Y-135853713D01*
X104438724Y-135934612D01*
X104475790Y-135991254D01*
X104488267Y-136004400D01*
X104580423Y-136067825D01*
X104657600Y-136089067D01*
X104749757Y-136060335D01*
X104826933Y-136004400D01*
X104868497Y-135950757D01*
X104894001Y-135878048D01*
X104907101Y-135766172D01*
X104911451Y-135595026D01*
X104911600Y-135538734D01*
X104913015Y-135357716D01*
X104919646Y-135245235D01*
X104935075Y-135185175D01*
X104962883Y-135161423D01*
X104996267Y-135157734D01*
X105031403Y-135162553D01*
G36*
X105031403Y-135162553D02*
G01*
X105055195Y-135186181D01*
X105069841Y-135242371D01*
X105077544Y-135344878D01*
X105080503Y-135507454D01*
X105080933Y-135686900D01*
X105080162Y-135906505D01*
X105076382Y-136055201D01*
X105067391Y-136146743D01*
X105050990Y-136194883D01*
X105024978Y-136213375D01*
X104996267Y-136216067D01*
X104926445Y-136188520D01*
X104911600Y-136150166D01*
X104903947Y-136107931D01*
X104866005Y-136117872D01*
X104817514Y-136150166D01*
X104669176Y-136207679D01*
X104503544Y-136203203D01*
X104358843Y-136137976D01*
X104355373Y-136135214D01*
X104310302Y-136092111D01*
X104280291Y-136038028D01*
X104261456Y-135955003D01*
X104249916Y-135825074D01*
X104241787Y-135630278D01*
X104240996Y-135606047D01*
X104235429Y-135407149D01*
X104235749Y-135277882D01*
X104244430Y-135203283D01*
X104263945Y-135168386D01*
X104296766Y-135158225D01*
X104315080Y-135157734D01*
X104357079Y-135163293D01*
X104383169Y-135190761D01*
X104397111Y-135256321D01*
X104402665Y-135376158D01*
X104403600Y-135538734D01*
X104406284Y-135728454D01*
X104416774Y-135853713D01*
X104438724Y-135934612D01*
X104475790Y-135991254D01*
X104488267Y-136004400D01*
X104580423Y-136067825D01*
X104657600Y-136089067D01*
X104749757Y-136060335D01*
X104826933Y-136004400D01*
X104868497Y-135950757D01*
X104894001Y-135878048D01*
X104907101Y-135766172D01*
X104911451Y-135595026D01*
X104911600Y-135538734D01*
X104913015Y-135357716D01*
X104919646Y-135245235D01*
X104935075Y-135185175D01*
X104962883Y-135161423D01*
X104996267Y-135157734D01*
X105031403Y-135162553D01*
G37*
X108259678Y-112947064D02*
X108478336Y-113058550D01*
X108653737Y-113231851D01*
X108777540Y-113460009D01*
X108841402Y-113736070D01*
X108848364Y-113873290D01*
X108833612Y-114134745D01*
X108784322Y-114339792D01*
X108692149Y-114512533D01*
X108581509Y-114644098D01*
X108446016Y-114766332D01*
X108312473Y-114838219D01*
X108179766Y-114875058D01*
X108030174Y-114904957D01*
X107927246Y-114915689D01*
X107834876Y-114905910D01*
X107716960Y-114874274D01*
X107655618Y-114855526D01*
X107458296Y-114754862D01*
X107284751Y-114592384D01*
X107156747Y-114390922D01*
X107119730Y-114293393D01*
X107079491Y-114068140D01*
X107076741Y-113902134D01*
X107326458Y-113902134D01*
X107359741Y-114174378D01*
X107450627Y-114400000D01*
X107594040Y-114569498D01*
X107726767Y-114651360D01*
X107901948Y-114701891D01*
X108076253Y-114688859D01*
X108239249Y-114629938D01*
X108409048Y-114508066D01*
X108524956Y-114322715D01*
X108585469Y-114076916D01*
X108594600Y-113912841D01*
X108573644Y-113655793D01*
X108506429Y-113456459D01*
X108386436Y-113297792D01*
X108345110Y-113260525D01*
X108155215Y-113145801D01*
X107961953Y-113107625D01*
X107776279Y-113139095D01*
X107609146Y-113233314D01*
X107471509Y-113383380D01*
X107374322Y-113582394D01*
X107328539Y-113823457D01*
X107326458Y-113902134D01*
X107076741Y-113902134D01*
X107075245Y-113811857D01*
X107106823Y-113570072D01*
X107122663Y-113509145D01*
X107220617Y-113311322D01*
X107378821Y-113132949D01*
X107572936Y-112997093D01*
X107725956Y-112937354D01*
X108006104Y-112904347D01*
X108259678Y-112947064D01*
G36*
X108259678Y-112947064D02*
G01*
X108478336Y-113058550D01*
X108653737Y-113231851D01*
X108777540Y-113460009D01*
X108841402Y-113736070D01*
X108848364Y-113873290D01*
X108833612Y-114134745D01*
X108784322Y-114339792D01*
X108692149Y-114512533D01*
X108581509Y-114644098D01*
X108446016Y-114766332D01*
X108312473Y-114838219D01*
X108179766Y-114875058D01*
X108030174Y-114904957D01*
X107927246Y-114915689D01*
X107834876Y-114905910D01*
X107716960Y-114874274D01*
X107655618Y-114855526D01*
X107458296Y-114754862D01*
X107284751Y-114592384D01*
X107156747Y-114390922D01*
X107119730Y-114293393D01*
X107079491Y-114068140D01*
X107076741Y-113902134D01*
X107326458Y-113902134D01*
X107359741Y-114174378D01*
X107450627Y-114400000D01*
X107594040Y-114569498D01*
X107726767Y-114651360D01*
X107901948Y-114701891D01*
X108076253Y-114688859D01*
X108239249Y-114629938D01*
X108409048Y-114508066D01*
X108524956Y-114322715D01*
X108585469Y-114076916D01*
X108594600Y-113912841D01*
X108573644Y-113655793D01*
X108506429Y-113456459D01*
X108386436Y-113297792D01*
X108345110Y-113260525D01*
X108155215Y-113145801D01*
X107961953Y-113107625D01*
X107776279Y-113139095D01*
X107609146Y-113233314D01*
X107471509Y-113383380D01*
X107374322Y-113582394D01*
X107328539Y-113823457D01*
X107326458Y-113902134D01*
X107076741Y-113902134D01*
X107075245Y-113811857D01*
X107106823Y-113570072D01*
X107122663Y-113509145D01*
X107220617Y-113311322D01*
X107378821Y-113132949D01*
X107572936Y-112997093D01*
X107725956Y-112937354D01*
X108006104Y-112904347D01*
X108259678Y-112947064D01*
G37*
X87586915Y-66403639D02*
X87770177Y-66508098D01*
X87902229Y-66667903D01*
X87971078Y-66871285D01*
X87978267Y-66968656D01*
X87978267Y-67128067D01*
X87493932Y-67128067D01*
X87300081Y-67131012D01*
X87139123Y-67139010D01*
X87028843Y-67150806D01*
X86987519Y-67163790D01*
X86980275Y-67240769D01*
X87009393Y-67354057D01*
X87062373Y-67470818D01*
X87126713Y-67558215D01*
X87142664Y-67571319D01*
X87289625Y-67630251D01*
X87453878Y-67630972D01*
X87601438Y-67576195D01*
X87657059Y-67530234D01*
X87747304Y-67460246D01*
X87840238Y-67427261D01*
X87911209Y-67435566D01*
X87935933Y-67481719D01*
X87903430Y-67561545D01*
X87822227Y-67659109D01*
X87716783Y-67749532D01*
X87617299Y-67805831D01*
X87399386Y-67845573D01*
X87176918Y-67809376D01*
X87092276Y-67773584D01*
X86929769Y-67661701D01*
X86825701Y-67513727D01*
X86770405Y-67312957D01*
X86758600Y-67196942D01*
X86771130Y-66926209D01*
X86778995Y-66900943D01*
X87004600Y-66900943D01*
X87008598Y-66949445D01*
X87031754Y-66979049D01*
X87090816Y-66994414D01*
X87202529Y-67000199D01*
X87364433Y-67001067D01*
X87724267Y-67001067D01*
X87722920Y-66884650D01*
X87686039Y-66733000D01*
X87592853Y-66623637D01*
X87463620Y-66562711D01*
X87318602Y-66556368D01*
X87178057Y-66610757D01*
X87089782Y-66692526D01*
X87028802Y-66800439D01*
X87004600Y-66900943D01*
X86778995Y-66900943D01*
X86841672Y-66699618D01*
X86964247Y-66525368D01*
X87132875Y-66411660D01*
X87341576Y-66366691D01*
X87364433Y-66366291D01*
X87586915Y-66403639D01*
G36*
X87586915Y-66403639D02*
G01*
X87770177Y-66508098D01*
X87902229Y-66667903D01*
X87971078Y-66871285D01*
X87978267Y-66968656D01*
X87978267Y-67128067D01*
X87493932Y-67128067D01*
X87300081Y-67131012D01*
X87139123Y-67139010D01*
X87028843Y-67150806D01*
X86987519Y-67163790D01*
X86980275Y-67240769D01*
X87009393Y-67354057D01*
X87062373Y-67470818D01*
X87126713Y-67558215D01*
X87142664Y-67571319D01*
X87289625Y-67630251D01*
X87453878Y-67630972D01*
X87601438Y-67576195D01*
X87657059Y-67530234D01*
X87747304Y-67460246D01*
X87840238Y-67427261D01*
X87911209Y-67435566D01*
X87935933Y-67481719D01*
X87903430Y-67561545D01*
X87822227Y-67659109D01*
X87716783Y-67749532D01*
X87617299Y-67805831D01*
X87399386Y-67845573D01*
X87176918Y-67809376D01*
X87092276Y-67773584D01*
X86929769Y-67661701D01*
X86825701Y-67513727D01*
X86770405Y-67312957D01*
X86758600Y-67196942D01*
X86771130Y-66926209D01*
X86778995Y-66900943D01*
X87004600Y-66900943D01*
X87008598Y-66949445D01*
X87031754Y-66979049D01*
X87090816Y-66994414D01*
X87202529Y-67000199D01*
X87364433Y-67001067D01*
X87724267Y-67001067D01*
X87722920Y-66884650D01*
X87686039Y-66733000D01*
X87592853Y-66623637D01*
X87463620Y-66562711D01*
X87318602Y-66556368D01*
X87178057Y-66610757D01*
X87089782Y-66692526D01*
X87028802Y-66800439D01*
X87004600Y-66900943D01*
X86778995Y-66900943D01*
X86841672Y-66699618D01*
X86964247Y-66525368D01*
X87132875Y-66411660D01*
X87341576Y-66366691D01*
X87364433Y-66366291D01*
X87586915Y-66403639D01*
G37*
X87833967Y-91406905D02*
X87866581Y-91420450D01*
X88028629Y-91521385D01*
X88137182Y-91664623D01*
X88202573Y-91865924D01*
X88217564Y-91955837D01*
X88243775Y-92147067D01*
X87730021Y-92147067D01*
X87514284Y-92147830D01*
X87369234Y-92151693D01*
X87280895Y-92161016D01*
X87235289Y-92178160D01*
X87218440Y-92205486D01*
X87216267Y-92233836D01*
X87250607Y-92394435D01*
X87340981Y-92521432D01*
X87468421Y-92606490D01*
X87613956Y-92641276D01*
X87758618Y-92617452D01*
X87883249Y-92526907D01*
X87978993Y-92463303D01*
X88071434Y-92443400D01*
X88151868Y-92450282D01*
X88164418Y-92487801D01*
X88139423Y-92550273D01*
X88036682Y-92681181D01*
X87879326Y-92772825D01*
X87690181Y-92820164D01*
X87492074Y-92818157D01*
X87307831Y-92761765D01*
X87271885Y-92741841D01*
X87162926Y-92661077D01*
X87089313Y-92562448D01*
X87035597Y-92420391D01*
X87006122Y-92302026D01*
X86981477Y-92047821D01*
X86993275Y-91977734D01*
X87207088Y-91977734D01*
X87592677Y-91977734D01*
X87778828Y-91975460D01*
X87895172Y-91966963D01*
X87956488Y-91949729D01*
X87977556Y-91921243D01*
X87978267Y-91912131D01*
X87953822Y-91807967D01*
X87894723Y-91693163D01*
X87822325Y-91604504D01*
X87785870Y-91580697D01*
X87604070Y-91550154D01*
X87439651Y-91594126D01*
X87310391Y-91703540D01*
X87235982Y-91861317D01*
X87207088Y-91977734D01*
X86993275Y-91977734D01*
X87019832Y-91819985D01*
X87111968Y-91627964D01*
X87248668Y-91481200D01*
X87420713Y-91389140D01*
X87618886Y-91361227D01*
X87833967Y-91406905D01*
G36*
X87833967Y-91406905D02*
G01*
X87866581Y-91420450D01*
X88028629Y-91521385D01*
X88137182Y-91664623D01*
X88202573Y-91865924D01*
X88217564Y-91955837D01*
X88243775Y-92147067D01*
X87730021Y-92147067D01*
X87514284Y-92147830D01*
X87369234Y-92151693D01*
X87280895Y-92161016D01*
X87235289Y-92178160D01*
X87218440Y-92205486D01*
X87216267Y-92233836D01*
X87250607Y-92394435D01*
X87340981Y-92521432D01*
X87468421Y-92606490D01*
X87613956Y-92641276D01*
X87758618Y-92617452D01*
X87883249Y-92526907D01*
X87978993Y-92463303D01*
X88071434Y-92443400D01*
X88151868Y-92450282D01*
X88164418Y-92487801D01*
X88139423Y-92550273D01*
X88036682Y-92681181D01*
X87879326Y-92772825D01*
X87690181Y-92820164D01*
X87492074Y-92818157D01*
X87307831Y-92761765D01*
X87271885Y-92741841D01*
X87162926Y-92661077D01*
X87089313Y-92562448D01*
X87035597Y-92420391D01*
X87006122Y-92302026D01*
X86981477Y-92047821D01*
X86993275Y-91977734D01*
X87207088Y-91977734D01*
X87592677Y-91977734D01*
X87778828Y-91975460D01*
X87895172Y-91966963D01*
X87956488Y-91949729D01*
X87977556Y-91921243D01*
X87978267Y-91912131D01*
X87953822Y-91807967D01*
X87894723Y-91693163D01*
X87822325Y-91604504D01*
X87785870Y-91580697D01*
X87604070Y-91550154D01*
X87439651Y-91594126D01*
X87310391Y-91703540D01*
X87235982Y-91861317D01*
X87207088Y-91977734D01*
X86993275Y-91977734D01*
X87019832Y-91819985D01*
X87111968Y-91627964D01*
X87248668Y-91481200D01*
X87420713Y-91389140D01*
X87618886Y-91361227D01*
X87833967Y-91406905D01*
G37*
X84909307Y-91384969D02*
X85034204Y-91431873D01*
X85140962Y-91504334D01*
X85219905Y-91588096D01*
X85261359Y-91668901D01*
X85255646Y-91732496D01*
X85193092Y-91764622D01*
X85167969Y-91766067D01*
X85061785Y-91727634D01*
X84996205Y-91658013D01*
X84939754Y-91590719D01*
X84867758Y-91562472D01*
X84748015Y-91561703D01*
X84731089Y-91562763D01*
X84571297Y-91591927D01*
X84490319Y-91649650D01*
X84466127Y-91737660D01*
X84513519Y-91817799D01*
X84636896Y-91894203D01*
X84827871Y-91966893D01*
X85066284Y-92065663D01*
X85223222Y-92182257D01*
X85300500Y-92319302D01*
X85299934Y-92479424D01*
X85260691Y-92592750D01*
X85185048Y-92694567D01*
X85093460Y-92764075D01*
X84935207Y-92811624D01*
X84740693Y-92823263D01*
X84548104Y-92800115D01*
X84396047Y-92743561D01*
X84291927Y-92651234D01*
X84220428Y-92537787D01*
X84218333Y-92532052D01*
X84192590Y-92442726D01*
X84208974Y-92407261D01*
X84273046Y-92401067D01*
X84365646Y-92430035D01*
X84472394Y-92502155D01*
X84500420Y-92528067D01*
X84632683Y-92620182D01*
X84773626Y-92656018D01*
X84903857Y-92639188D01*
X85003980Y-92573300D01*
X85054601Y-92461967D01*
X85057267Y-92424393D01*
X85044704Y-92345508D01*
X84997270Y-92283920D01*
X84900341Y-92229046D01*
X84739295Y-92170302D01*
X84680423Y-92151626D01*
X84528754Y-92097181D01*
X84400948Y-92038575D01*
X84334026Y-91995666D01*
X84272198Y-91889622D01*
X84253990Y-91746275D01*
X84279919Y-91601195D01*
X84327017Y-91514632D01*
X84442608Y-91430202D01*
X84609421Y-91379657D01*
X84798589Y-91369424D01*
X84909307Y-91384969D01*
G36*
X84909307Y-91384969D02*
G01*
X85034204Y-91431873D01*
X85140962Y-91504334D01*
X85219905Y-91588096D01*
X85261359Y-91668901D01*
X85255646Y-91732496D01*
X85193092Y-91764622D01*
X85167969Y-91766067D01*
X85061785Y-91727634D01*
X84996205Y-91658013D01*
X84939754Y-91590719D01*
X84867758Y-91562472D01*
X84748015Y-91561703D01*
X84731089Y-91562763D01*
X84571297Y-91591927D01*
X84490319Y-91649650D01*
X84466127Y-91737660D01*
X84513519Y-91817799D01*
X84636896Y-91894203D01*
X84827871Y-91966893D01*
X85066284Y-92065663D01*
X85223222Y-92182257D01*
X85300500Y-92319302D01*
X85299934Y-92479424D01*
X85260691Y-92592750D01*
X85185048Y-92694567D01*
X85093460Y-92764075D01*
X84935207Y-92811624D01*
X84740693Y-92823263D01*
X84548104Y-92800115D01*
X84396047Y-92743561D01*
X84291927Y-92651234D01*
X84220428Y-92537787D01*
X84218333Y-92532052D01*
X84192590Y-92442726D01*
X84208974Y-92407261D01*
X84273046Y-92401067D01*
X84365646Y-92430035D01*
X84472394Y-92502155D01*
X84500420Y-92528067D01*
X84632683Y-92620182D01*
X84773626Y-92656018D01*
X84903857Y-92639188D01*
X85003980Y-92573300D01*
X85054601Y-92461967D01*
X85057267Y-92424393D01*
X85044704Y-92345508D01*
X84997270Y-92283920D01*
X84900341Y-92229046D01*
X84739295Y-92170302D01*
X84680423Y-92151626D01*
X84528754Y-92097181D01*
X84400948Y-92038575D01*
X84334026Y-91995666D01*
X84272198Y-91889622D01*
X84253990Y-91746275D01*
X84279919Y-91601195D01*
X84327017Y-91514632D01*
X84442608Y-91430202D01*
X84609421Y-91379657D01*
X84798589Y-91369424D01*
X84909307Y-91384969D01*
G37*
X91550424Y-44171816D02*
X91723782Y-44227012D01*
X91869261Y-44333163D01*
X91946005Y-44441481D01*
X91975453Y-44516099D01*
X91946810Y-44546949D01*
X91890970Y-44556833D01*
X91780628Y-44536827D01*
X91698409Y-44461583D01*
X91607169Y-44381117D01*
X91484600Y-44353446D01*
X91451711Y-44352734D01*
X91301203Y-44378097D01*
X91217506Y-44452688D01*
X91202933Y-44572653D01*
X91225042Y-44629146D01*
X91284228Y-44678050D01*
X91396891Y-44729724D01*
X91525006Y-44776067D01*
X91732259Y-44853555D01*
X91870110Y-44925033D01*
X91951824Y-45002799D01*
X91990664Y-45099149D01*
X91999933Y-45216389D01*
X91988907Y-45349528D01*
X91943660Y-45441111D01*
X91869685Y-45513137D01*
X91782512Y-45575290D01*
X91689024Y-45608617D01*
X91558414Y-45621424D01*
X91463285Y-45622734D01*
X91308881Y-45619201D01*
X91208401Y-45601597D01*
X91131181Y-45559415D01*
X91046552Y-45482149D01*
X91043200Y-45478800D01*
X90957824Y-45380133D01*
X90906229Y-45294866D01*
X90899267Y-45267134D01*
X90927953Y-45209659D01*
X91000722Y-45203606D01*
X91097636Y-45244987D01*
X91195600Y-45326400D01*
X91317590Y-45415556D01*
X91454307Y-45454039D01*
X91587058Y-45446481D01*
X91697152Y-45397518D01*
X91765894Y-45311781D01*
X91774593Y-45193906D01*
X91772197Y-45183471D01*
X91727623Y-45104747D01*
X91627271Y-45041711D01*
X91544930Y-45009722D01*
X91279636Y-44904594D01*
X91094294Y-44799009D01*
X90984284Y-44688553D01*
X90944984Y-44568813D01*
X90964164Y-44455190D01*
X91056057Y-44309262D01*
X91197264Y-44213210D01*
X91368485Y-44167306D01*
X91550424Y-44171816D01*
G36*
X91550424Y-44171816D02*
G01*
X91723782Y-44227012D01*
X91869261Y-44333163D01*
X91946005Y-44441481D01*
X91975453Y-44516099D01*
X91946810Y-44546949D01*
X91890970Y-44556833D01*
X91780628Y-44536827D01*
X91698409Y-44461583D01*
X91607169Y-44381117D01*
X91484600Y-44353446D01*
X91451711Y-44352734D01*
X91301203Y-44378097D01*
X91217506Y-44452688D01*
X91202933Y-44572653D01*
X91225042Y-44629146D01*
X91284228Y-44678050D01*
X91396891Y-44729724D01*
X91525006Y-44776067D01*
X91732259Y-44853555D01*
X91870110Y-44925033D01*
X91951824Y-45002799D01*
X91990664Y-45099149D01*
X91999933Y-45216389D01*
X91988907Y-45349528D01*
X91943660Y-45441111D01*
X91869685Y-45513137D01*
X91782512Y-45575290D01*
X91689024Y-45608617D01*
X91558414Y-45621424D01*
X91463285Y-45622734D01*
X91308881Y-45619201D01*
X91208401Y-45601597D01*
X91131181Y-45559415D01*
X91046552Y-45482149D01*
X91043200Y-45478800D01*
X90957824Y-45380133D01*
X90906229Y-45294866D01*
X90899267Y-45267134D01*
X90927953Y-45209659D01*
X91000722Y-45203606D01*
X91097636Y-45244987D01*
X91195600Y-45326400D01*
X91317590Y-45415556D01*
X91454307Y-45454039D01*
X91587058Y-45446481D01*
X91697152Y-45397518D01*
X91765894Y-45311781D01*
X91774593Y-45193906D01*
X91772197Y-45183471D01*
X91727623Y-45104747D01*
X91627271Y-45041711D01*
X91544930Y-45009722D01*
X91279636Y-44904594D01*
X91094294Y-44799009D01*
X90984284Y-44688553D01*
X90944984Y-44568813D01*
X90964164Y-44455190D01*
X91056057Y-44309262D01*
X91197264Y-44213210D01*
X91368485Y-44167306D01*
X91550424Y-44171816D01*
G37*
X104939038Y-122440820D02*
X105033442Y-122461241D01*
X105106081Y-122509322D01*
X105169072Y-122574818D01*
X105260527Y-122689269D01*
X105286307Y-122758935D01*
X105247194Y-122791489D01*
X105191704Y-122796400D01*
X105099401Y-122765562D01*
X105069981Y-122716758D01*
X105018238Y-122650970D01*
X104918389Y-122594407D01*
X104901808Y-122588488D01*
X104737116Y-122563768D01*
X104604174Y-122601161D01*
X104519344Y-122694613D01*
X104505060Y-122735254D01*
X104506549Y-122844879D01*
X104575666Y-122936103D01*
X104718549Y-123014363D01*
X104881517Y-123068878D01*
X105093703Y-123148598D01*
X105232816Y-123250134D01*
X105309350Y-123381697D01*
X105317485Y-123409978D01*
X105316416Y-123561843D01*
X105252568Y-123710790D01*
X105141846Y-123822644D01*
X105119406Y-123835563D01*
X104975919Y-123879154D01*
X104794882Y-123894462D01*
X104616476Y-123880985D01*
X104490584Y-123843431D01*
X104398653Y-123770916D01*
X104313328Y-123664407D01*
X104306770Y-123653555D01*
X104256792Y-123563766D01*
X104250631Y-123525219D01*
X104289077Y-123516237D01*
X104311780Y-123516067D01*
X104394192Y-123544685D01*
X104495103Y-123616040D01*
X104524087Y-123643067D01*
X104657576Y-123734422D01*
X104803128Y-123769513D01*
X104941048Y-123752559D01*
X105051645Y-123687783D01*
X105115226Y-123579405D01*
X105123267Y-123514642D01*
X105101623Y-123414183D01*
X105029052Y-123332464D01*
X104894094Y-123260762D01*
X104704821Y-123196097D01*
X104509792Y-123120928D01*
X104388193Y-123027803D01*
X104329063Y-122905579D01*
X104318933Y-122803779D01*
X104349412Y-122635091D01*
X104442683Y-122519166D01*
X104601499Y-122453866D01*
X104791483Y-122436567D01*
X104939038Y-122440820D01*
G36*
X104939038Y-122440820D02*
G01*
X105033442Y-122461241D01*
X105106081Y-122509322D01*
X105169072Y-122574818D01*
X105260527Y-122689269D01*
X105286307Y-122758935D01*
X105247194Y-122791489D01*
X105191704Y-122796400D01*
X105099401Y-122765562D01*
X105069981Y-122716758D01*
X105018238Y-122650970D01*
X104918389Y-122594407D01*
X104901808Y-122588488D01*
X104737116Y-122563768D01*
X104604174Y-122601161D01*
X104519344Y-122694613D01*
X104505060Y-122735254D01*
X104506549Y-122844879D01*
X104575666Y-122936103D01*
X104718549Y-123014363D01*
X104881517Y-123068878D01*
X105093703Y-123148598D01*
X105232816Y-123250134D01*
X105309350Y-123381697D01*
X105317485Y-123409978D01*
X105316416Y-123561843D01*
X105252568Y-123710790D01*
X105141846Y-123822644D01*
X105119406Y-123835563D01*
X104975919Y-123879154D01*
X104794882Y-123894462D01*
X104616476Y-123880985D01*
X104490584Y-123843431D01*
X104398653Y-123770916D01*
X104313328Y-123664407D01*
X104306770Y-123653555D01*
X104256792Y-123563766D01*
X104250631Y-123525219D01*
X104289077Y-123516237D01*
X104311780Y-123516067D01*
X104394192Y-123544685D01*
X104495103Y-123616040D01*
X104524087Y-123643067D01*
X104657576Y-123734422D01*
X104803128Y-123769513D01*
X104941048Y-123752559D01*
X105051645Y-123687783D01*
X105115226Y-123579405D01*
X105123267Y-123514642D01*
X105101623Y-123414183D01*
X105029052Y-123332464D01*
X104894094Y-123260762D01*
X104704821Y-123196097D01*
X104509792Y-123120928D01*
X104388193Y-123027803D01*
X104329063Y-122905579D01*
X104318933Y-122803779D01*
X104349412Y-122635091D01*
X104442683Y-122519166D01*
X104601499Y-122453866D01*
X104791483Y-122436567D01*
X104939038Y-122440820D01*
G37*
X106409220Y-122460205D02*
X106533864Y-122470451D01*
X106617097Y-122492715D01*
X106680508Y-122531241D01*
X106706081Y-122552984D01*
X106802506Y-122688270D01*
X106827654Y-122841460D01*
X106780345Y-122988945D01*
X106730973Y-123051360D01*
X106676281Y-123115046D01*
X106682820Y-123148342D01*
X106711372Y-123162324D01*
X106793846Y-123232218D01*
X106856930Y-123351689D01*
X106885597Y-123485762D01*
X106880589Y-123556174D01*
X106830784Y-123669449D01*
X106747605Y-123775303D01*
X106747572Y-123775334D01*
X106686569Y-123823804D01*
X106614286Y-123855230D01*
X106509908Y-123874355D01*
X106352615Y-123885922D01*
X106241768Y-123890570D01*
X105842933Y-123905240D01*
X105842933Y-123466678D01*
X106012267Y-123466678D01*
X106016765Y-123604516D01*
X106028402Y-123705817D01*
X106040489Y-123741845D01*
X106107512Y-123763979D01*
X106225092Y-123769088D01*
X106361095Y-123758327D01*
X106483387Y-123732854D01*
X106506066Y-123725085D01*
X106626035Y-123659025D01*
X106680170Y-123564872D01*
X106688952Y-123477067D01*
X106664409Y-123351579D01*
X106583398Y-123270479D01*
X106437675Y-123228572D01*
X106280872Y-123219734D01*
X106012267Y-123219734D01*
X106012267Y-123466678D01*
X105842933Y-123466678D01*
X105842933Y-123219734D01*
X105842933Y-123050400D01*
X106012267Y-123050400D01*
X106263243Y-123050400D01*
X106448248Y-123038169D01*
X106560286Y-123000322D01*
X106580743Y-122983876D01*
X106640646Y-122870819D01*
X106627874Y-122743302D01*
X106577205Y-122662150D01*
X106506322Y-122613520D01*
X106392352Y-122589677D01*
X106259705Y-122584734D01*
X106012267Y-122584734D01*
X106012267Y-123050400D01*
X105842933Y-123050400D01*
X105842933Y-122584734D01*
X105842933Y-122457734D01*
X106221573Y-122457734D01*
X106409220Y-122460205D01*
G36*
X106409220Y-122460205D02*
G01*
X106533864Y-122470451D01*
X106617097Y-122492715D01*
X106680508Y-122531241D01*
X106706081Y-122552984D01*
X106802506Y-122688270D01*
X106827654Y-122841460D01*
X106780345Y-122988945D01*
X106730973Y-123051360D01*
X106676281Y-123115046D01*
X106682820Y-123148342D01*
X106711372Y-123162324D01*
X106793846Y-123232218D01*
X106856930Y-123351689D01*
X106885597Y-123485762D01*
X106880589Y-123556174D01*
X106830784Y-123669449D01*
X106747605Y-123775303D01*
X106747572Y-123775334D01*
X106686569Y-123823804D01*
X106614286Y-123855230D01*
X106509908Y-123874355D01*
X106352615Y-123885922D01*
X106241768Y-123890570D01*
X105842933Y-123905240D01*
X105842933Y-123466678D01*
X106012267Y-123466678D01*
X106016765Y-123604516D01*
X106028402Y-123705817D01*
X106040489Y-123741845D01*
X106107512Y-123763979D01*
X106225092Y-123769088D01*
X106361095Y-123758327D01*
X106483387Y-123732854D01*
X106506066Y-123725085D01*
X106626035Y-123659025D01*
X106680170Y-123564872D01*
X106688952Y-123477067D01*
X106664409Y-123351579D01*
X106583398Y-123270479D01*
X106437675Y-123228572D01*
X106280872Y-123219734D01*
X106012267Y-123219734D01*
X106012267Y-123466678D01*
X105842933Y-123466678D01*
X105842933Y-123219734D01*
X105842933Y-123050400D01*
X106012267Y-123050400D01*
X106263243Y-123050400D01*
X106448248Y-123038169D01*
X106560286Y-123000322D01*
X106580743Y-122983876D01*
X106640646Y-122870819D01*
X106627874Y-122743302D01*
X106577205Y-122662150D01*
X106506322Y-122613520D01*
X106392352Y-122589677D01*
X106259705Y-122584734D01*
X106012267Y-122584734D01*
X106012267Y-123050400D01*
X105842933Y-123050400D01*
X105842933Y-122584734D01*
X105842933Y-122457734D01*
X106221573Y-122457734D01*
X106409220Y-122460205D01*
G37*
X83934338Y-44201930D02*
X84083793Y-44260671D01*
X84104187Y-44275175D01*
X84235990Y-44428485D01*
X84317366Y-44629056D01*
X84337600Y-44795874D01*
X84337600Y-44945400D01*
X83829600Y-44945400D01*
X83596703Y-44948940D01*
X83430919Y-44959183D01*
X83338828Y-44975562D01*
X83321600Y-44989093D01*
X83347827Y-45099010D01*
X83412268Y-45230109D01*
X83493562Y-45343411D01*
X83538214Y-45384368D01*
X83693721Y-45446998D01*
X83855920Y-45428082D01*
X83991213Y-45347567D01*
X84094578Y-45280444D01*
X84195403Y-45245225D01*
X84270036Y-45246900D01*
X84295267Y-45283399D01*
X84269179Y-45338325D01*
X84203764Y-45426186D01*
X84173849Y-45460954D01*
X84096541Y-45537365D01*
X84017583Y-45580725D01*
X83906952Y-45602619D01*
X83782266Y-45612087D01*
X83608653Y-45614573D01*
X83486797Y-45594865D01*
X83385509Y-45547740D01*
X83380920Y-45544882D01*
X83248662Y-45415172D01*
X83161115Y-45234068D01*
X83117958Y-45021870D01*
X83118869Y-44798881D01*
X83123641Y-44776067D01*
X83333341Y-44776067D01*
X83708470Y-44776067D01*
X83887145Y-44775234D01*
X83997573Y-44769591D01*
X84056176Y-44754421D01*
X84079375Y-44725007D01*
X84083590Y-44676632D01*
X84083600Y-44668309D01*
X84045122Y-44536761D01*
X83945012Y-44428255D01*
X83806256Y-44362945D01*
X83723669Y-44352734D01*
X83567173Y-44391672D01*
X83438166Y-44495110D01*
X83359969Y-44642985D01*
X83353366Y-44671313D01*
X83333341Y-44776067D01*
X83123641Y-44776067D01*
X83163527Y-44585404D01*
X83251610Y-44401739D01*
X83382798Y-44268190D01*
X83401316Y-44256559D01*
X83559452Y-44198983D01*
X83748342Y-44181071D01*
X83934338Y-44201930D01*
G36*
X83934338Y-44201930D02*
G01*
X84083793Y-44260671D01*
X84104187Y-44275175D01*
X84235990Y-44428485D01*
X84317366Y-44629056D01*
X84337600Y-44795874D01*
X84337600Y-44945400D01*
X83829600Y-44945400D01*
X83596703Y-44948940D01*
X83430919Y-44959183D01*
X83338828Y-44975562D01*
X83321600Y-44989093D01*
X83347827Y-45099010D01*
X83412268Y-45230109D01*
X83493562Y-45343411D01*
X83538214Y-45384368D01*
X83693721Y-45446998D01*
X83855920Y-45428082D01*
X83991213Y-45347567D01*
X84094578Y-45280444D01*
X84195403Y-45245225D01*
X84270036Y-45246900D01*
X84295267Y-45283399D01*
X84269179Y-45338325D01*
X84203764Y-45426186D01*
X84173849Y-45460954D01*
X84096541Y-45537365D01*
X84017583Y-45580725D01*
X83906952Y-45602619D01*
X83782266Y-45612087D01*
X83608653Y-45614573D01*
X83486797Y-45594865D01*
X83385509Y-45547740D01*
X83380920Y-45544882D01*
X83248662Y-45415172D01*
X83161115Y-45234068D01*
X83117958Y-45021870D01*
X83118869Y-44798881D01*
X83123641Y-44776067D01*
X83333341Y-44776067D01*
X83708470Y-44776067D01*
X83887145Y-44775234D01*
X83997573Y-44769591D01*
X84056176Y-44754421D01*
X84079375Y-44725007D01*
X84083590Y-44676632D01*
X84083600Y-44668309D01*
X84045122Y-44536761D01*
X83945012Y-44428255D01*
X83806256Y-44362945D01*
X83723669Y-44352734D01*
X83567173Y-44391672D01*
X83438166Y-44495110D01*
X83359969Y-44642985D01*
X83353366Y-44671313D01*
X83333341Y-44776067D01*
X83123641Y-44776067D01*
X83163527Y-44585404D01*
X83251610Y-44401739D01*
X83382798Y-44268190D01*
X83401316Y-44256559D01*
X83559452Y-44198983D01*
X83748342Y-44181071D01*
X83934338Y-44201930D01*
G37*
X103221570Y-134738006D02*
X103258415Y-134756108D01*
X103295102Y-134799636D01*
X103337464Y-134879516D01*
X103391334Y-135006678D01*
X103462545Y-135192048D01*
X103552631Y-135434896D01*
X103636389Y-135664232D01*
X103708815Y-135866719D01*
X103765159Y-136028738D01*
X103800672Y-136136666D01*
X103810933Y-136175730D01*
X103775719Y-136209259D01*
X103731936Y-136216067D01*
X103669998Y-136186194D01*
X103608750Y-136089509D01*
X103568636Y-135993817D01*
X103484334Y-135771567D01*
X103188293Y-135759257D01*
X102892251Y-135746946D01*
X102807387Y-135970923D01*
X102741251Y-136116318D01*
X102676481Y-136191280D01*
X102632076Y-136208382D01*
X102599151Y-136209021D01*
X102582322Y-136191360D01*
X102584007Y-136143997D01*
X102606624Y-136055531D01*
X102652591Y-135914557D01*
X102724326Y-135709675D01*
X102757767Y-135615715D01*
X102772769Y-135573487D01*
X102964267Y-135573487D01*
X103005085Y-135605549D01*
X103124115Y-135621650D01*
X103201629Y-135623400D01*
X103343678Y-135617543D01*
X103411835Y-135598341D01*
X103419490Y-135570484D01*
X103397100Y-135505722D01*
X103356862Y-135386021D01*
X103307348Y-135236882D01*
X103305676Y-135231817D01*
X103255395Y-135091484D01*
X103211309Y-134989537D01*
X103182330Y-134946372D01*
X103180814Y-134946067D01*
X103155617Y-134982809D01*
X103115239Y-135077243D01*
X103067855Y-135205678D01*
X103021641Y-135344426D01*
X102984775Y-135469797D01*
X102965431Y-135558102D01*
X102964267Y-135573487D01*
X102772769Y-135573487D01*
X102837235Y-135392037D01*
X102909871Y-135186099D01*
X102969313Y-135016046D01*
X103009202Y-134900016D01*
X103018521Y-134871984D01*
X103064901Y-134774180D01*
X103134027Y-134737355D01*
X103178733Y-134734400D01*
X103221570Y-134738006D01*
G36*
X103221570Y-134738006D02*
G01*
X103258415Y-134756108D01*
X103295102Y-134799636D01*
X103337464Y-134879516D01*
X103391334Y-135006678D01*
X103462545Y-135192048D01*
X103552631Y-135434896D01*
X103636389Y-135664232D01*
X103708815Y-135866719D01*
X103765159Y-136028738D01*
X103800672Y-136136666D01*
X103810933Y-136175730D01*
X103775719Y-136209259D01*
X103731936Y-136216067D01*
X103669998Y-136186194D01*
X103608750Y-136089509D01*
X103568636Y-135993817D01*
X103484334Y-135771567D01*
X103188293Y-135759257D01*
X102892251Y-135746946D01*
X102807387Y-135970923D01*
X102741251Y-136116318D01*
X102676481Y-136191280D01*
X102632076Y-136208382D01*
X102599151Y-136209021D01*
X102582322Y-136191360D01*
X102584007Y-136143997D01*
X102606624Y-136055531D01*
X102652591Y-135914557D01*
X102724326Y-135709675D01*
X102757767Y-135615715D01*
X102772769Y-135573487D01*
X102964267Y-135573487D01*
X103005085Y-135605549D01*
X103124115Y-135621650D01*
X103201629Y-135623400D01*
X103343678Y-135617543D01*
X103411835Y-135598341D01*
X103419490Y-135570484D01*
X103397100Y-135505722D01*
X103356862Y-135386021D01*
X103307348Y-135236882D01*
X103305676Y-135231817D01*
X103255395Y-135091484D01*
X103211309Y-134989537D01*
X103182330Y-134946372D01*
X103180814Y-134946067D01*
X103155617Y-134982809D01*
X103115239Y-135077243D01*
X103067855Y-135205678D01*
X103021641Y-135344426D01*
X102984775Y-135469797D01*
X102965431Y-135558102D01*
X102964267Y-135573487D01*
X102772769Y-135573487D01*
X102837235Y-135392037D01*
X102909871Y-135186099D01*
X102969313Y-135016046D01*
X103009202Y-134900016D01*
X103018521Y-134871984D01*
X103064901Y-134774180D01*
X103134027Y-134737355D01*
X103178733Y-134734400D01*
X103221570Y-134738006D01*
G37*
X80496052Y-91418447D02*
X80664819Y-91531045D01*
X80774040Y-91696662D01*
X80828194Y-91922480D01*
X80831417Y-91956567D01*
X80845100Y-92125900D01*
X80347683Y-92137827D01*
X80135777Y-92143825D01*
X79994375Y-92151587D01*
X79909318Y-92163884D01*
X79866448Y-92183487D01*
X79851610Y-92213167D01*
X79850267Y-92235179D01*
X79880577Y-92371808D01*
X79956788Y-92504902D01*
X80056816Y-92599204D01*
X80087883Y-92614552D01*
X80240147Y-92651546D01*
X80367128Y-92624360D01*
X80481004Y-92546324D01*
X80627912Y-92460929D01*
X80727669Y-92451074D01*
X80845100Y-92464567D01*
X80692485Y-92630755D01*
X80596911Y-92726425D01*
X80512356Y-92778235D01*
X80403675Y-92801871D01*
X80290318Y-92810275D01*
X80139338Y-92811489D01*
X80012621Y-92800592D01*
X79956100Y-92786667D01*
X79811349Y-92679887D01*
X79694983Y-92504427D01*
X79657600Y-92414452D01*
X79603398Y-92168202D01*
X79613693Y-91937169D01*
X79621972Y-91911450D01*
X79850267Y-91911450D01*
X79863318Y-91943564D01*
X79912438Y-91963562D01*
X80012576Y-91974046D01*
X80178681Y-91977616D01*
X80231267Y-91977734D01*
X80399042Y-91973664D01*
X80529123Y-91962764D01*
X80602626Y-91946994D01*
X80612267Y-91938156D01*
X80587705Y-91831454D01*
X80529281Y-91709472D01*
X80459883Y-91618733D01*
X80451852Y-91612113D01*
X80344265Y-91569846D01*
X80203055Y-91559328D01*
X80071414Y-91580902D01*
X80015931Y-91608663D01*
X79928133Y-91707479D01*
X79865682Y-91832203D01*
X79850267Y-91911450D01*
X79621972Y-91911450D01*
X79679872Y-91731585D01*
X79793320Y-91561681D01*
X79945426Y-91437690D01*
X80127575Y-91369843D01*
X80331155Y-91368372D01*
X80496052Y-91418447D01*
G36*
X80496052Y-91418447D02*
G01*
X80664819Y-91531045D01*
X80774040Y-91696662D01*
X80828194Y-91922480D01*
X80831417Y-91956567D01*
X80845100Y-92125900D01*
X80347683Y-92137827D01*
X80135777Y-92143825D01*
X79994375Y-92151587D01*
X79909318Y-92163884D01*
X79866448Y-92183487D01*
X79851610Y-92213167D01*
X79850267Y-92235179D01*
X79880577Y-92371808D01*
X79956788Y-92504902D01*
X80056816Y-92599204D01*
X80087883Y-92614552D01*
X80240147Y-92651546D01*
X80367128Y-92624360D01*
X80481004Y-92546324D01*
X80627912Y-92460929D01*
X80727669Y-92451074D01*
X80845100Y-92464567D01*
X80692485Y-92630755D01*
X80596911Y-92726425D01*
X80512356Y-92778235D01*
X80403675Y-92801871D01*
X80290318Y-92810275D01*
X80139338Y-92811489D01*
X80012621Y-92800592D01*
X79956100Y-92786667D01*
X79811349Y-92679887D01*
X79694983Y-92504427D01*
X79657600Y-92414452D01*
X79603398Y-92168202D01*
X79613693Y-91937169D01*
X79621972Y-91911450D01*
X79850267Y-91911450D01*
X79863318Y-91943564D01*
X79912438Y-91963562D01*
X80012576Y-91974046D01*
X80178681Y-91977616D01*
X80231267Y-91977734D01*
X80399042Y-91973664D01*
X80529123Y-91962764D01*
X80602626Y-91946994D01*
X80612267Y-91938156D01*
X80587705Y-91831454D01*
X80529281Y-91709472D01*
X80459883Y-91618733D01*
X80451852Y-91612113D01*
X80344265Y-91569846D01*
X80203055Y-91559328D01*
X80071414Y-91580902D01*
X80015931Y-91608663D01*
X79928133Y-91707479D01*
X79865682Y-91832203D01*
X79850267Y-91911450D01*
X79621972Y-91911450D01*
X79679872Y-91731585D01*
X79793320Y-91561681D01*
X79945426Y-91437690D01*
X80127575Y-91369843D01*
X80331155Y-91368372D01*
X80496052Y-91418447D01*
G37*
X106465346Y-134653267D02*
X106487165Y-134671429D01*
X106502283Y-134715558D01*
X106511925Y-134796994D01*
X106517318Y-134927077D01*
X106519688Y-135117146D01*
X106520260Y-135378542D01*
X106520267Y-135432900D01*
X106519884Y-135708053D01*
X106517921Y-135909879D01*
X106513150Y-136049718D01*
X106504346Y-136138911D01*
X106490283Y-136188797D01*
X106469735Y-136210715D01*
X106441476Y-136216005D01*
X106435600Y-136216067D01*
X106365779Y-136188520D01*
X106350933Y-136150166D01*
X106343281Y-136107931D01*
X106305339Y-136117872D01*
X106256847Y-136150166D01*
X106100447Y-136212223D01*
X105927171Y-136207895D01*
X105768642Y-136140201D01*
X105719228Y-136098874D01*
X105613816Y-135948626D01*
X105566870Y-135780620D01*
X105568623Y-135705981D01*
X105748025Y-135705981D01*
X105762658Y-135846145D01*
X105811355Y-135941629D01*
X105862781Y-135992837D01*
X105994071Y-136074136D01*
X106115459Y-136075429D01*
X106224699Y-136012292D01*
X106291596Y-135914086D01*
X106334517Y-135767000D01*
X106348612Y-135604633D01*
X106329030Y-135460584D01*
X106310819Y-135415880D01*
X106214038Y-135312216D01*
X106084797Y-135269228D01*
X105949510Y-135286746D01*
X105834593Y-135364602D01*
X105796612Y-135419185D01*
X105765041Y-135521585D01*
X105748701Y-135660578D01*
X105748025Y-135705981D01*
X105568623Y-135705981D01*
X105570935Y-135607579D01*
X105618559Y-135442224D01*
X105702286Y-135297278D01*
X105814663Y-135185463D01*
X105948236Y-135119500D01*
X106095552Y-135112111D01*
X106249155Y-135176019D01*
X106256847Y-135181301D01*
X106350933Y-135247201D01*
X106350933Y-134948467D01*
X106353182Y-134791976D01*
X106363337Y-134702067D01*
X106386510Y-134660703D01*
X106427813Y-134649846D01*
X106435600Y-134649734D01*
X106465346Y-134653267D01*
G36*
X106465346Y-134653267D02*
G01*
X106487165Y-134671429D01*
X106502283Y-134715558D01*
X106511925Y-134796994D01*
X106517318Y-134927077D01*
X106519688Y-135117146D01*
X106520260Y-135378542D01*
X106520267Y-135432900D01*
X106519884Y-135708053D01*
X106517921Y-135909879D01*
X106513150Y-136049718D01*
X106504346Y-136138911D01*
X106490283Y-136188797D01*
X106469735Y-136210715D01*
X106441476Y-136216005D01*
X106435600Y-136216067D01*
X106365779Y-136188520D01*
X106350933Y-136150166D01*
X106343281Y-136107931D01*
X106305339Y-136117872D01*
X106256847Y-136150166D01*
X106100447Y-136212223D01*
X105927171Y-136207895D01*
X105768642Y-136140201D01*
X105719228Y-136098874D01*
X105613816Y-135948626D01*
X105566870Y-135780620D01*
X105568623Y-135705981D01*
X105748025Y-135705981D01*
X105762658Y-135846145D01*
X105811355Y-135941629D01*
X105862781Y-135992837D01*
X105994071Y-136074136D01*
X106115459Y-136075429D01*
X106224699Y-136012292D01*
X106291596Y-135914086D01*
X106334517Y-135767000D01*
X106348612Y-135604633D01*
X106329030Y-135460584D01*
X106310819Y-135415880D01*
X106214038Y-135312216D01*
X106084797Y-135269228D01*
X105949510Y-135286746D01*
X105834593Y-135364602D01*
X105796612Y-135419185D01*
X105765041Y-135521585D01*
X105748701Y-135660578D01*
X105748025Y-135705981D01*
X105568623Y-135705981D01*
X105570935Y-135607579D01*
X105618559Y-135442224D01*
X105702286Y-135297278D01*
X105814663Y-135185463D01*
X105948236Y-135119500D01*
X106095552Y-135112111D01*
X106249155Y-135176019D01*
X106256847Y-135181301D01*
X106350933Y-135247201D01*
X106350933Y-134948467D01*
X106353182Y-134791976D01*
X106363337Y-134702067D01*
X106386510Y-134660703D01*
X106427813Y-134649846D01*
X106435600Y-134649734D01*
X106465346Y-134653267D01*
G37*
X112064172Y-91396621D02*
X112170320Y-91443726D01*
X112277788Y-91552308D01*
X112370075Y-91712091D01*
X112430876Y-91889617D01*
X112446003Y-92009484D01*
X112446933Y-92147067D01*
X111938933Y-92147067D01*
X111715349Y-92147900D01*
X111564970Y-92154527D01*
X111476334Y-92173136D01*
X111437979Y-92209915D01*
X111438444Y-92271054D01*
X111466268Y-92362741D01*
X111477856Y-92396036D01*
X111564524Y-92533829D01*
X111696120Y-92620014D01*
X111849068Y-92648702D01*
X111999789Y-92614000D01*
X112090948Y-92549234D01*
X112172283Y-92491602D01*
X112269637Y-92451864D01*
X112355468Y-92437323D01*
X112402237Y-92455284D01*
X112404600Y-92466056D01*
X112374477Y-92539627D01*
X112300619Y-92634472D01*
X112207789Y-92722105D01*
X112146416Y-92763064D01*
X111973252Y-92814523D01*
X111769675Y-92820263D01*
X111575571Y-92781747D01*
X111481302Y-92738648D01*
X111344817Y-92613645D01*
X111259192Y-92432595D01*
X111221608Y-92188572D01*
X111219267Y-92094849D01*
X111236702Y-91927424D01*
X111443122Y-91927424D01*
X111455939Y-91955399D01*
X111506224Y-91970428D01*
X111609018Y-91976531D01*
X111779359Y-91977729D01*
X111809080Y-91977734D01*
X111990246Y-91976949D01*
X112102977Y-91971557D01*
X112163509Y-91957001D01*
X112188074Y-91928724D01*
X112192906Y-91882168D01*
X112192933Y-91869976D01*
X112163658Y-91766632D01*
X112092589Y-91662044D01*
X112086614Y-91655899D01*
X111992452Y-91583699D01*
X111883872Y-91560148D01*
X111805096Y-91562573D01*
X111640450Y-91608763D01*
X111522400Y-91722330D01*
X111452736Y-91882484D01*
X111443122Y-91927424D01*
X111236702Y-91927424D01*
X111246732Y-91831110D01*
X111330635Y-91627548D01*
X111473236Y-91479278D01*
X111517071Y-91451009D01*
X111685986Y-91388315D01*
X111880203Y-91370053D01*
X112064172Y-91396621D01*
G36*
X112064172Y-91396621D02*
G01*
X112170320Y-91443726D01*
X112277788Y-91552308D01*
X112370075Y-91712091D01*
X112430876Y-91889617D01*
X112446003Y-92009484D01*
X112446933Y-92147067D01*
X111938933Y-92147067D01*
X111715349Y-92147900D01*
X111564970Y-92154527D01*
X111476334Y-92173136D01*
X111437979Y-92209915D01*
X111438444Y-92271054D01*
X111466268Y-92362741D01*
X111477856Y-92396036D01*
X111564524Y-92533829D01*
X111696120Y-92620014D01*
X111849068Y-92648702D01*
X111999789Y-92614000D01*
X112090948Y-92549234D01*
X112172283Y-92491602D01*
X112269637Y-92451864D01*
X112355468Y-92437323D01*
X112402237Y-92455284D01*
X112404600Y-92466056D01*
X112374477Y-92539627D01*
X112300619Y-92634472D01*
X112207789Y-92722105D01*
X112146416Y-92763064D01*
X111973252Y-92814523D01*
X111769675Y-92820263D01*
X111575571Y-92781747D01*
X111481302Y-92738648D01*
X111344817Y-92613645D01*
X111259192Y-92432595D01*
X111221608Y-92188572D01*
X111219267Y-92094849D01*
X111236702Y-91927424D01*
X111443122Y-91927424D01*
X111455939Y-91955399D01*
X111506224Y-91970428D01*
X111609018Y-91976531D01*
X111779359Y-91977729D01*
X111809080Y-91977734D01*
X111990246Y-91976949D01*
X112102977Y-91971557D01*
X112163509Y-91957001D01*
X112188074Y-91928724D01*
X112192906Y-91882168D01*
X112192933Y-91869976D01*
X112163658Y-91766632D01*
X112092589Y-91662044D01*
X112086614Y-91655899D01*
X111992452Y-91583699D01*
X111883872Y-91560148D01*
X111805096Y-91562573D01*
X111640450Y-91608763D01*
X111522400Y-91722330D01*
X111452736Y-91882484D01*
X111443122Y-91927424D01*
X111236702Y-91927424D01*
X111246732Y-91831110D01*
X111330635Y-91627548D01*
X111473236Y-91479278D01*
X111517071Y-91451009D01*
X111685986Y-91388315D01*
X111880203Y-91370053D01*
X112064172Y-91396621D01*
G37*
X84990043Y-66400002D02*
X85131674Y-66488575D01*
X85170271Y-66531732D01*
X85211262Y-66570834D01*
X85258772Y-66557205D01*
X85322951Y-66501974D01*
X85477314Y-66409794D01*
X85664048Y-66374962D01*
X85848297Y-66403366D01*
X85866108Y-66410267D01*
X85959125Y-66464141D01*
X86026853Y-66545373D01*
X86072806Y-66666139D01*
X86100495Y-66838609D01*
X86113434Y-67074959D01*
X86115600Y-67274874D01*
X86115600Y-67805400D01*
X85903933Y-67805400D01*
X85903933Y-67342489D01*
X85898664Y-67065958D01*
X85879878Y-66863105D01*
X85843108Y-66723425D01*
X85783885Y-66636415D01*
X85697742Y-66591571D01*
X85580211Y-66578389D01*
X85578922Y-66578382D01*
X85445019Y-66609499D01*
X85356672Y-66689276D01*
X85318640Y-66746645D01*
X85293379Y-66815459D01*
X85278362Y-66913390D01*
X85271064Y-67058112D01*
X85268957Y-67267295D01*
X85268933Y-67303109D01*
X85268933Y-67805400D01*
X85014933Y-67805400D01*
X85014933Y-67261628D01*
X85013636Y-67033655D01*
X85008398Y-66874873D01*
X84997196Y-66769830D01*
X84978008Y-66703071D01*
X84948812Y-66659143D01*
X84934226Y-66644817D01*
X84813635Y-66587094D01*
X84673772Y-66593385D01*
X84544962Y-66659085D01*
X84495116Y-66711505D01*
X84456509Y-66778150D01*
X84429163Y-66867942D01*
X84410030Y-66998335D01*
X84396064Y-67186782D01*
X84389776Y-67314755D01*
X84379866Y-67524415D01*
X84369796Y-67663809D01*
X84356015Y-67747270D01*
X84334971Y-67789132D01*
X84303111Y-67803726D01*
X84268195Y-67805400D01*
X84168267Y-67805400D01*
X84168267Y-66408400D01*
X84269162Y-66408400D01*
X84363591Y-66441633D01*
X84399012Y-66503650D01*
X84427947Y-66560395D01*
X84450107Y-66545093D01*
X84512796Y-66477903D01*
X84625394Y-66415493D01*
X84753920Y-66374084D01*
X84825114Y-66366067D01*
X84990043Y-66400002D01*
G36*
X84990043Y-66400002D02*
G01*
X85131674Y-66488575D01*
X85170271Y-66531732D01*
X85211262Y-66570834D01*
X85258772Y-66557205D01*
X85322951Y-66501974D01*
X85477314Y-66409794D01*
X85664048Y-66374962D01*
X85848297Y-66403366D01*
X85866108Y-66410267D01*
X85959125Y-66464141D01*
X86026853Y-66545373D01*
X86072806Y-66666139D01*
X86100495Y-66838609D01*
X86113434Y-67074959D01*
X86115600Y-67274874D01*
X86115600Y-67805400D01*
X85903933Y-67805400D01*
X85903933Y-67342489D01*
X85898664Y-67065958D01*
X85879878Y-66863105D01*
X85843108Y-66723425D01*
X85783885Y-66636415D01*
X85697742Y-66591571D01*
X85580211Y-66578389D01*
X85578922Y-66578382D01*
X85445019Y-66609499D01*
X85356672Y-66689276D01*
X85318640Y-66746645D01*
X85293379Y-66815459D01*
X85278362Y-66913390D01*
X85271064Y-67058112D01*
X85268957Y-67267295D01*
X85268933Y-67303109D01*
X85268933Y-67805400D01*
X85014933Y-67805400D01*
X85014933Y-67261628D01*
X85013636Y-67033655D01*
X85008398Y-66874873D01*
X84997196Y-66769830D01*
X84978008Y-66703071D01*
X84948812Y-66659143D01*
X84934226Y-66644817D01*
X84813635Y-66587094D01*
X84673772Y-66593385D01*
X84544962Y-66659085D01*
X84495116Y-66711505D01*
X84456509Y-66778150D01*
X84429163Y-66867942D01*
X84410030Y-66998335D01*
X84396064Y-67186782D01*
X84389776Y-67314755D01*
X84379866Y-67524415D01*
X84369796Y-67663809D01*
X84356015Y-67747270D01*
X84334971Y-67789132D01*
X84303111Y-67803726D01*
X84268195Y-67805400D01*
X84168267Y-67805400D01*
X84168267Y-66408400D01*
X84269162Y-66408400D01*
X84363591Y-66441633D01*
X84399012Y-66503650D01*
X84427947Y-66560395D01*
X84450107Y-66545093D01*
X84512796Y-66477903D01*
X84625394Y-66415493D01*
X84753920Y-66374084D01*
X84825114Y-66366067D01*
X84990043Y-66400002D01*
G37*
X89798446Y-44192498D02*
X89941720Y-44226468D01*
X90044703Y-44295323D01*
X90113689Y-44409075D01*
X90154968Y-44577738D01*
X90174831Y-44811326D01*
X90179600Y-45092207D01*
X90179600Y-45622734D01*
X90073767Y-45622734D01*
X89990776Y-45602890D01*
X89967933Y-45538067D01*
X89958290Y-45469177D01*
X89944996Y-45453400D01*
X89900849Y-45479205D01*
X89831181Y-45538067D01*
X89740657Y-45600310D01*
X89667080Y-45622734D01*
X89569175Y-45631012D01*
X89537479Y-45637339D01*
X89454587Y-45642415D01*
X89367960Y-45634844D01*
X89212554Y-45571894D01*
X89098698Y-45447104D01*
X89040902Y-45278869D01*
X89038691Y-45245930D01*
X89266908Y-45245930D01*
X89317191Y-45362607D01*
X89432695Y-45434789D01*
X89563571Y-45453400D01*
X89713417Y-45434581D01*
X89817780Y-45370454D01*
X89829720Y-45358150D01*
X89895099Y-45245974D01*
X89931501Y-45102405D01*
X89932349Y-45093567D01*
X89936973Y-44984767D01*
X89914438Y-44933938D01*
X89847547Y-44914969D01*
X89812238Y-44911196D01*
X89635842Y-44915135D01*
X89472898Y-44955063D01*
X89348047Y-45022292D01*
X89289929Y-45095331D01*
X89266908Y-45245930D01*
X89038691Y-45245930D01*
X89036600Y-45214794D01*
X89066395Y-45035543D01*
X89158186Y-44905081D01*
X89315585Y-44820925D01*
X89542201Y-44780592D01*
X89674356Y-44776067D01*
X89925600Y-44776067D01*
X89925600Y-44630924D01*
X89896671Y-44480209D01*
X89808035Y-44388539D01*
X89656922Y-44353311D01*
X89629315Y-44352734D01*
X89494479Y-44371155D01*
X89400801Y-44437134D01*
X89382830Y-44458567D01*
X89300153Y-44531296D01*
X89211097Y-44565667D01*
X89138602Y-44559949D01*
X89105608Y-44512410D01*
X89109132Y-44479232D01*
X89155390Y-44396352D01*
X89240221Y-44303056D01*
X89256583Y-44288732D01*
X89359565Y-44220737D01*
X89479229Y-44189462D01*
X89608592Y-44183400D01*
X89798446Y-44192498D01*
G36*
X89798446Y-44192498D02*
G01*
X89941720Y-44226468D01*
X90044703Y-44295323D01*
X90113689Y-44409075D01*
X90154968Y-44577738D01*
X90174831Y-44811326D01*
X90179600Y-45092207D01*
X90179600Y-45622734D01*
X90073767Y-45622734D01*
X89990776Y-45602890D01*
X89967933Y-45538067D01*
X89958290Y-45469177D01*
X89944996Y-45453400D01*
X89900849Y-45479205D01*
X89831181Y-45538067D01*
X89740657Y-45600310D01*
X89667080Y-45622734D01*
X89569175Y-45631012D01*
X89537479Y-45637339D01*
X89454587Y-45642415D01*
X89367960Y-45634844D01*
X89212554Y-45571894D01*
X89098698Y-45447104D01*
X89040902Y-45278869D01*
X89038691Y-45245930D01*
X89266908Y-45245930D01*
X89317191Y-45362607D01*
X89432695Y-45434789D01*
X89563571Y-45453400D01*
X89713417Y-45434581D01*
X89817780Y-45370454D01*
X89829720Y-45358150D01*
X89895099Y-45245974D01*
X89931501Y-45102405D01*
X89932349Y-45093567D01*
X89936973Y-44984767D01*
X89914438Y-44933938D01*
X89847547Y-44914969D01*
X89812238Y-44911196D01*
X89635842Y-44915135D01*
X89472898Y-44955063D01*
X89348047Y-45022292D01*
X89289929Y-45095331D01*
X89266908Y-45245930D01*
X89038691Y-45245930D01*
X89036600Y-45214794D01*
X89066395Y-45035543D01*
X89158186Y-44905081D01*
X89315585Y-44820925D01*
X89542201Y-44780592D01*
X89674356Y-44776067D01*
X89925600Y-44776067D01*
X89925600Y-44630924D01*
X89896671Y-44480209D01*
X89808035Y-44388539D01*
X89656922Y-44353311D01*
X89629315Y-44352734D01*
X89494479Y-44371155D01*
X89400801Y-44437134D01*
X89382830Y-44458567D01*
X89300153Y-44531296D01*
X89211097Y-44565667D01*
X89138602Y-44559949D01*
X89105608Y-44512410D01*
X89109132Y-44479232D01*
X89155390Y-44396352D01*
X89240221Y-44303056D01*
X89256583Y-44288732D01*
X89359565Y-44220737D01*
X89479229Y-44189462D01*
X89608592Y-44183400D01*
X89798446Y-44192498D01*
G37*
X106313676Y-91385708D02*
X106446679Y-91485366D01*
X106532323Y-91581517D01*
X106637283Y-91484243D01*
X106791427Y-91388440D01*
X106963854Y-91354297D01*
X107132018Y-91379465D01*
X107273371Y-91461597D01*
X107347763Y-91558261D01*
X107376696Y-91645627D01*
X107395873Y-91783367D01*
X107406365Y-91983165D01*
X107409267Y-92229631D01*
X107409267Y-92782067D01*
X107197600Y-92782067D01*
X107197600Y-92252900D01*
X107196290Y-92028579D01*
X107190876Y-91872757D01*
X107179130Y-91769285D01*
X107158826Y-91702017D01*
X107127735Y-91654804D01*
X107112933Y-91639067D01*
X106986497Y-91565451D01*
X106844757Y-91566269D01*
X106710280Y-91640225D01*
X106686396Y-91663515D01*
X106643162Y-91715238D01*
X106613422Y-91773258D01*
X106594050Y-91854593D01*
X106581918Y-91976263D01*
X106573900Y-92155286D01*
X106569731Y-92298515D01*
X106563360Y-92516921D01*
X106556058Y-92664545D01*
X106544843Y-92755245D01*
X106526737Y-92802881D01*
X106498761Y-92821313D01*
X106457934Y-92824400D01*
X106456678Y-92824400D01*
X106416123Y-92821672D01*
X106388078Y-92804419D01*
X106369732Y-92759039D01*
X106358268Y-92671928D01*
X106350873Y-92529485D01*
X106344732Y-92318105D01*
X106343714Y-92278375D01*
X106336135Y-92046010D01*
X106325739Y-91882610D01*
X106310187Y-91772476D01*
X106287140Y-91699906D01*
X106254261Y-91649201D01*
X106249122Y-91643375D01*
X106156048Y-91576652D01*
X106072668Y-91554400D01*
X105941873Y-91569865D01*
X105845765Y-91622776D01*
X105779754Y-91722910D01*
X105739249Y-91880046D01*
X105719662Y-92103959D01*
X105715933Y-92314298D01*
X105715933Y-92782067D01*
X105461933Y-92782067D01*
X105461933Y-91385067D01*
X105588933Y-91385067D01*
X105679815Y-91396574D01*
X105713013Y-91444975D01*
X105715933Y-91488976D01*
X105715933Y-91592885D01*
X105818121Y-91490698D01*
X105975196Y-91383607D01*
X106147025Y-91348554D01*
X106313676Y-91385708D01*
G36*
X106313676Y-91385708D02*
G01*
X106446679Y-91485366D01*
X106532323Y-91581517D01*
X106637283Y-91484243D01*
X106791427Y-91388440D01*
X106963854Y-91354297D01*
X107132018Y-91379465D01*
X107273371Y-91461597D01*
X107347763Y-91558261D01*
X107376696Y-91645627D01*
X107395873Y-91783367D01*
X107406365Y-91983165D01*
X107409267Y-92229631D01*
X107409267Y-92782067D01*
X107197600Y-92782067D01*
X107197600Y-92252900D01*
X107196290Y-92028579D01*
X107190876Y-91872757D01*
X107179130Y-91769285D01*
X107158826Y-91702017D01*
X107127735Y-91654804D01*
X107112933Y-91639067D01*
X106986497Y-91565451D01*
X106844757Y-91566269D01*
X106710280Y-91640225D01*
X106686396Y-91663515D01*
X106643162Y-91715238D01*
X106613422Y-91773258D01*
X106594050Y-91854593D01*
X106581918Y-91976263D01*
X106573900Y-92155286D01*
X106569731Y-92298515D01*
X106563360Y-92516921D01*
X106556058Y-92664545D01*
X106544843Y-92755245D01*
X106526737Y-92802881D01*
X106498761Y-92821313D01*
X106457934Y-92824400D01*
X106456678Y-92824400D01*
X106416123Y-92821672D01*
X106388078Y-92804419D01*
X106369732Y-92759039D01*
X106358268Y-92671928D01*
X106350873Y-92529485D01*
X106344732Y-92318105D01*
X106343714Y-92278375D01*
X106336135Y-92046010D01*
X106325739Y-91882610D01*
X106310187Y-91772476D01*
X106287140Y-91699906D01*
X106254261Y-91649201D01*
X106249122Y-91643375D01*
X106156048Y-91576652D01*
X106072668Y-91554400D01*
X105941873Y-91569865D01*
X105845765Y-91622776D01*
X105779754Y-91722910D01*
X105739249Y-91880046D01*
X105719662Y-92103959D01*
X105715933Y-92314298D01*
X105715933Y-92782067D01*
X105461933Y-92782067D01*
X105461933Y-91385067D01*
X105588933Y-91385067D01*
X105679815Y-91396574D01*
X105713013Y-91444975D01*
X105715933Y-91488976D01*
X105715933Y-91592885D01*
X105818121Y-91490698D01*
X105975196Y-91383607D01*
X106147025Y-91348554D01*
X106313676Y-91385708D01*
G37*
X78568296Y-139702688D02*
X78795890Y-139760864D01*
X78987978Y-139867350D01*
X79128565Y-140013687D01*
X79195761Y-140163650D01*
X79207268Y-140246895D01*
X79171689Y-140276844D01*
X79117475Y-140280067D01*
X79016664Y-140247993D01*
X78926320Y-140143815D01*
X78923426Y-140139169D01*
X78810108Y-140005625D01*
X78661505Y-139928722D01*
X78459196Y-139899840D01*
X78410414Y-139899067D01*
X78198119Y-139936009D01*
X78027769Y-140043326D01*
X77903270Y-140215752D01*
X77828529Y-140448022D01*
X77807089Y-140712455D01*
X77835878Y-140950489D01*
X77911469Y-141161378D01*
X78024613Y-141324339D01*
X78109649Y-141392242D01*
X78256076Y-141444028D01*
X78440130Y-141463710D01*
X78620362Y-141449439D01*
X78719445Y-141419460D01*
X78840893Y-141320431D01*
X78933170Y-141155081D01*
X78978887Y-140989150D01*
X79007436Y-140830400D01*
X78730351Y-140830400D01*
X78581799Y-140828575D01*
X78498840Y-140818244D01*
X78462412Y-140792126D01*
X78453450Y-140742940D01*
X78453267Y-140724567D01*
X78456300Y-140674467D01*
X78476263Y-140643360D01*
X78529448Y-140626720D01*
X78632148Y-140620022D01*
X78800655Y-140618739D01*
X78834267Y-140618734D01*
X79215267Y-140618734D01*
X79215267Y-141147900D01*
X79214520Y-141367443D01*
X79210796Y-141516089D01*
X79201862Y-141607602D01*
X79185490Y-141655748D01*
X79159448Y-141674293D01*
X79129542Y-141677067D01*
X79058363Y-141648231D01*
X79018800Y-141551913D01*
X79018011Y-141548040D01*
X78996826Y-141461250D01*
X78967767Y-141447520D01*
X78906590Y-141496838D01*
X78902653Y-141500416D01*
X78759032Y-141606628D01*
X78604348Y-141661431D01*
X78404068Y-141677033D01*
X78403133Y-141677033D01*
X78143875Y-141642360D01*
X77994723Y-141586231D01*
X77804025Y-141446506D01*
X77661066Y-141246923D01*
X77570950Y-141000775D01*
X77538783Y-140721353D01*
X77562190Y-140459984D01*
X77648348Y-140180471D01*
X77791718Y-139960854D01*
X77988923Y-139804507D01*
X78236589Y-139714803D01*
X78321189Y-139701277D01*
X78568296Y-139702688D01*
G36*
X78568296Y-139702688D02*
G01*
X78795890Y-139760864D01*
X78987978Y-139867350D01*
X79128565Y-140013687D01*
X79195761Y-140163650D01*
X79207268Y-140246895D01*
X79171689Y-140276844D01*
X79117475Y-140280067D01*
X79016664Y-140247993D01*
X78926320Y-140143815D01*
X78923426Y-140139169D01*
X78810108Y-140005625D01*
X78661505Y-139928722D01*
X78459196Y-139899840D01*
X78410414Y-139899067D01*
X78198119Y-139936009D01*
X78027769Y-140043326D01*
X77903270Y-140215752D01*
X77828529Y-140448022D01*
X77807089Y-140712455D01*
X77835878Y-140950489D01*
X77911469Y-141161378D01*
X78024613Y-141324339D01*
X78109649Y-141392242D01*
X78256076Y-141444028D01*
X78440130Y-141463710D01*
X78620362Y-141449439D01*
X78719445Y-141419460D01*
X78840893Y-141320431D01*
X78933170Y-141155081D01*
X78978887Y-140989150D01*
X79007436Y-140830400D01*
X78730351Y-140830400D01*
X78581799Y-140828575D01*
X78498840Y-140818244D01*
X78462412Y-140792126D01*
X78453450Y-140742940D01*
X78453267Y-140724567D01*
X78456300Y-140674467D01*
X78476263Y-140643360D01*
X78529448Y-140626720D01*
X78632148Y-140620022D01*
X78800655Y-140618739D01*
X78834267Y-140618734D01*
X79215267Y-140618734D01*
X79215267Y-141147900D01*
X79214520Y-141367443D01*
X79210796Y-141516089D01*
X79201862Y-141607602D01*
X79185490Y-141655748D01*
X79159448Y-141674293D01*
X79129542Y-141677067D01*
X79058363Y-141648231D01*
X79018800Y-141551913D01*
X79018011Y-141548040D01*
X78996826Y-141461250D01*
X78967767Y-141447520D01*
X78906590Y-141496838D01*
X78902653Y-141500416D01*
X78759032Y-141606628D01*
X78604348Y-141661431D01*
X78404068Y-141677033D01*
X78403133Y-141677033D01*
X78143875Y-141642360D01*
X77994723Y-141586231D01*
X77804025Y-141446506D01*
X77661066Y-141246923D01*
X77570950Y-141000775D01*
X77538783Y-140721353D01*
X77562190Y-140459984D01*
X77648348Y-140180471D01*
X77791718Y-139960854D01*
X77988923Y-139804507D01*
X78236589Y-139714803D01*
X78321189Y-139701277D01*
X78568296Y-139702688D01*
G37*
X82198668Y-91397284D02*
X82325956Y-91468972D01*
X82432600Y-91569159D01*
X82432600Y-91477113D01*
X82454166Y-91405918D01*
X82532628Y-91385107D01*
X82538433Y-91385067D01*
X82644267Y-91385067D01*
X82644201Y-92157650D01*
X82643032Y-92443321D01*
X82638855Y-92657865D01*
X82630578Y-92814803D01*
X82617109Y-92927653D01*
X82597357Y-93009935D01*
X82570231Y-93075168D01*
X82570117Y-93075391D01*
X82438258Y-93249848D01*
X82257096Y-93356946D01*
X82030682Y-93395061D01*
X81821190Y-93375084D01*
X81701935Y-93329568D01*
X81579311Y-93248610D01*
X81477622Y-93152614D01*
X81421172Y-93061985D01*
X81416600Y-93035399D01*
X81448564Y-92996812D01*
X81526917Y-92996245D01*
X81625355Y-93028316D01*
X81717571Y-93087644D01*
X81730251Y-93099567D01*
X81834864Y-93175359D01*
X81966755Y-93203886D01*
X82021130Y-93205400D01*
X82192615Y-93178867D01*
X82311897Y-93094539D01*
X82385523Y-92945320D01*
X82415599Y-92778042D01*
X82425807Y-92650786D01*
X82421305Y-92594917D01*
X82399565Y-92598035D01*
X82382631Y-92616402D01*
X82242009Y-92726255D01*
X82048012Y-92777364D01*
X81950023Y-92782067D01*
X81762076Y-92745337D01*
X81608902Y-92645052D01*
X81493332Y-92496066D01*
X81418196Y-92313233D01*
X81386328Y-92111409D01*
X81388534Y-92079475D01*
X81635363Y-92079475D01*
X81639181Y-92161094D01*
X81665303Y-92312028D01*
X81719878Y-92418034D01*
X81792829Y-92493803D01*
X81924758Y-92586177D01*
X82052293Y-92608566D01*
X82194983Y-92572219D01*
X82319479Y-92481331D01*
X82397730Y-92325188D01*
X82426678Y-92111357D01*
X82423450Y-92006893D01*
X82405680Y-91851480D01*
X82372723Y-91750876D01*
X82313284Y-91675315D01*
X82289493Y-91653847D01*
X82138094Y-91566754D01*
X81988347Y-91554807D01*
X81851727Y-91609055D01*
X81739706Y-91720549D01*
X81663760Y-91880339D01*
X81635363Y-92079475D01*
X81388534Y-92079475D01*
X81400557Y-91905448D01*
X81463716Y-91710204D01*
X81578635Y-91540534D01*
X81694740Y-91442726D01*
X81848416Y-91381377D01*
X82027451Y-91366689D01*
X82198668Y-91397284D01*
G36*
X82198668Y-91397284D02*
G01*
X82325956Y-91468972D01*
X82432600Y-91569159D01*
X82432600Y-91477113D01*
X82454166Y-91405918D01*
X82532628Y-91385107D01*
X82538433Y-91385067D01*
X82644267Y-91385067D01*
X82644201Y-92157650D01*
X82643032Y-92443321D01*
X82638855Y-92657865D01*
X82630578Y-92814803D01*
X82617109Y-92927653D01*
X82597357Y-93009935D01*
X82570231Y-93075168D01*
X82570117Y-93075391D01*
X82438258Y-93249848D01*
X82257096Y-93356946D01*
X82030682Y-93395061D01*
X81821190Y-93375084D01*
X81701935Y-93329568D01*
X81579311Y-93248610D01*
X81477622Y-93152614D01*
X81421172Y-93061985D01*
X81416600Y-93035399D01*
X81448564Y-92996812D01*
X81526917Y-92996245D01*
X81625355Y-93028316D01*
X81717571Y-93087644D01*
X81730251Y-93099567D01*
X81834864Y-93175359D01*
X81966755Y-93203886D01*
X82021130Y-93205400D01*
X82192615Y-93178867D01*
X82311897Y-93094539D01*
X82385523Y-92945320D01*
X82415599Y-92778042D01*
X82425807Y-92650786D01*
X82421305Y-92594917D01*
X82399565Y-92598035D01*
X82382631Y-92616402D01*
X82242009Y-92726255D01*
X82048012Y-92777364D01*
X81950023Y-92782067D01*
X81762076Y-92745337D01*
X81608902Y-92645052D01*
X81493332Y-92496066D01*
X81418196Y-92313233D01*
X81386328Y-92111409D01*
X81388534Y-92079475D01*
X81635363Y-92079475D01*
X81639181Y-92161094D01*
X81665303Y-92312028D01*
X81719878Y-92418034D01*
X81792829Y-92493803D01*
X81924758Y-92586177D01*
X82052293Y-92608566D01*
X82194983Y-92572219D01*
X82319479Y-92481331D01*
X82397730Y-92325188D01*
X82426678Y-92111357D01*
X82423450Y-92006893D01*
X82405680Y-91851480D01*
X82372723Y-91750876D01*
X82313284Y-91675315D01*
X82289493Y-91653847D01*
X82138094Y-91566754D01*
X81988347Y-91554807D01*
X81851727Y-91609055D01*
X81739706Y-91720549D01*
X81663760Y-91880339D01*
X81635363Y-92079475D01*
X81388534Y-92079475D01*
X81400557Y-91905448D01*
X81463716Y-91710204D01*
X81578635Y-91540534D01*
X81694740Y-91442726D01*
X81848416Y-91381377D01*
X82027451Y-91366689D01*
X82198668Y-91397284D01*
G37*
X94977003Y-126463168D02*
X94978818Y-126569935D01*
X94980641Y-126752236D01*
X94982456Y-127005504D01*
X94984247Y-127325172D01*
X94985998Y-127706674D01*
X94987692Y-128145443D01*
X94989314Y-128636913D01*
X94990847Y-129176517D01*
X94992275Y-129759688D01*
X94993581Y-130381860D01*
X94994751Y-131038466D01*
X94995766Y-131724940D01*
X94996612Y-132436715D01*
X94996657Y-132479584D01*
X95003000Y-138649667D01*
X80017000Y-138649667D01*
X80022819Y-132352584D01*
X80023847Y-131497190D01*
X80025289Y-130701318D01*
X80027128Y-129967017D01*
X80029350Y-129296336D01*
X80031940Y-128691322D01*
X80034883Y-128154027D01*
X80038165Y-127686497D01*
X80041770Y-127290782D01*
X80045683Y-126968932D01*
X80049890Y-126722994D01*
X80054376Y-126555018D01*
X80059126Y-126467053D01*
X80064124Y-126461148D01*
X80065527Y-126474022D01*
X80174910Y-127244667D01*
X80362748Y-127991924D01*
X80624984Y-128710650D01*
X80957563Y-129395706D01*
X81356429Y-130041951D01*
X81817526Y-130644243D01*
X82336798Y-131197441D01*
X82910190Y-131696405D01*
X83533647Y-132135994D01*
X84203112Y-132511066D01*
X84914530Y-132816480D01*
X85128059Y-132891271D01*
X85473311Y-133002238D01*
X85774528Y-133088181D01*
X86051867Y-133152166D01*
X86325482Y-133197261D01*
X86615528Y-133226534D01*
X86942160Y-133243053D01*
X87325534Y-133249884D01*
X87488833Y-133250575D01*
X87817703Y-133250221D01*
X88078556Y-133247204D01*
X88288027Y-133240402D01*
X88462752Y-133228691D01*
X88619366Y-133210946D01*
X88774504Y-133186045D01*
X88944803Y-133152865D01*
X88949333Y-133151933D01*
X89722487Y-132951341D01*
X90461919Y-132676636D01*
X91162738Y-132331460D01*
X91820054Y-131919458D01*
X92428976Y-131444271D01*
X92984613Y-130909543D01*
X93482075Y-130318917D01*
X93916471Y-129676036D01*
X94132167Y-129291097D01*
X94361284Y-128821576D01*
X94547843Y-128367858D01*
X94697996Y-127909117D01*
X94817891Y-127424527D01*
X94913682Y-126893260D01*
X94975213Y-126436500D01*
X94977003Y-126463168D01*
G36*
X94977003Y-126463168D02*
G01*
X94978818Y-126569935D01*
X94980641Y-126752236D01*
X94982456Y-127005504D01*
X94984247Y-127325172D01*
X94985998Y-127706674D01*
X94987692Y-128145443D01*
X94989314Y-128636913D01*
X94990847Y-129176517D01*
X94992275Y-129759688D01*
X94993581Y-130381860D01*
X94994751Y-131038466D01*
X94995766Y-131724940D01*
X94996612Y-132436715D01*
X94996657Y-132479584D01*
X95003000Y-138649667D01*
X80017000Y-138649667D01*
X80022819Y-132352584D01*
X80023847Y-131497190D01*
X80025289Y-130701318D01*
X80027128Y-129967017D01*
X80029350Y-129296336D01*
X80031940Y-128691322D01*
X80034883Y-128154027D01*
X80038165Y-127686497D01*
X80041770Y-127290782D01*
X80045683Y-126968932D01*
X80049890Y-126722994D01*
X80054376Y-126555018D01*
X80059126Y-126467053D01*
X80064124Y-126461148D01*
X80065527Y-126474022D01*
X80174910Y-127244667D01*
X80362748Y-127991924D01*
X80624984Y-128710650D01*
X80957563Y-129395706D01*
X81356429Y-130041951D01*
X81817526Y-130644243D01*
X82336798Y-131197441D01*
X82910190Y-131696405D01*
X83533647Y-132135994D01*
X84203112Y-132511066D01*
X84914530Y-132816480D01*
X85128059Y-132891271D01*
X85473311Y-133002238D01*
X85774528Y-133088181D01*
X86051867Y-133152166D01*
X86325482Y-133197261D01*
X86615528Y-133226534D01*
X86942160Y-133243053D01*
X87325534Y-133249884D01*
X87488833Y-133250575D01*
X87817703Y-133250221D01*
X88078556Y-133247204D01*
X88288027Y-133240402D01*
X88462752Y-133228691D01*
X88619366Y-133210946D01*
X88774504Y-133186045D01*
X88944803Y-133152865D01*
X88949333Y-133151933D01*
X89722487Y-132951341D01*
X90461919Y-132676636D01*
X91162738Y-132331460D01*
X91820054Y-131919458D01*
X92428976Y-131444271D01*
X92984613Y-130909543D01*
X93482075Y-130318917D01*
X93916471Y-129676036D01*
X94132167Y-129291097D01*
X94361284Y-128821576D01*
X94547843Y-128367858D01*
X94697996Y-127909117D01*
X94817891Y-127424527D01*
X94913682Y-126893260D01*
X94975213Y-126436500D01*
X94977003Y-126463168D01*
G37*
M02*
